<svg width="58" height="54" viewBox="0 0 58 54" fill="none" xmlns="http://www.w3.org/2000/svg">
<path d="M15.396 52.9701C15.3766 52.9893 15.3509 53.0085 15.3315 53.0277C14.8869 53.4508 14.4164 53.7329 13.9395 53.8803C13.3982 54.047 12.8569 54.0406 12.3607 53.8547C11.8709 53.6688 11.4456 53.3162 11.1427 52.797C10.8785 52.3546 10.7045 51.7841 10.6658 51.0982L10.0214 45.5916C9.97625 45.2455 9.95048 44.9442 9.93114 44.6878C9.89892 44.2967 9.89892 44.2583 8.99027 44.1493C8.95805 44.1429 8.92582 44.1365 8.90005 44.1365L2.9519 43.3864C2.24302 43.348 1.66303 43.1749 1.21193 42.9121C0.689934 42.6108 0.335495 42.1877 0.148608 41.6941C-0.038278 41.2069 -0.0511667 40.6684 0.122831 40.1235C0.271051 39.6299 0.58038 39.1299 1.03793 38.6748L8.17183 31.572C7.99139 31.2643 7.8174 30.9053 7.68851 30.495C7.50162 29.9245 7.39851 29.2578 7.4694 28.5463L7.7014 25.5333L6.54786 21.7832C6.41252 21.3409 6.3223 20.5653 6.47052 19.7383C6.57363 19.1357 6.79274 18.4819 7.20518 17.8729L8.79694 15.3407L9.51871 11.4881C9.60893 11.0265 9.89248 10.3021 10.408 9.63545C10.7754 9.15466 11.2716 8.6867 11.9031 8.34054L14.5195 6.82126L16.9555 3.73784C17.239 3.37885 17.8319 2.86602 18.6052 2.51344C19.153 2.26344 19.8039 2.07753 20.5257 2.06471V2.0583L23.5481 1.93009L27.144 0.333892C27.5629 0.141578 28.3298 -0.037914 29.174 0.00695906C29.7927 0.0390113 30.4693 0.186452 31.1202 0.513384L31.1395 0.526205L33.8204 1.78265L37.7514 2.03907C38.209 2.06471 38.963 2.26344 39.6976 2.69935C40.2196 3.00705 40.7481 3.43655 41.1669 4.01349L42.9907 6.42381L46.3482 8.46875C46.7413 8.70593 47.3213 9.23159 47.7724 9.95597C48.0882 10.4688 48.346 11.0906 48.4491 11.8086L48.9453 14.783L50.9688 18.1485C51.2073 18.546 51.4779 19.2832 51.5359 20.1229C51.5746 20.7191 51.5166 21.3922 51.2717 22.0717L50.3244 24.9436L50.5435 28.8604C50.5757 29.3219 50.4726 30.0912 50.1311 30.8668C50.0344 31.0848 49.9184 31.3092 49.7831 31.5271L56.9685 38.6748C57.4196 39.1299 57.7289 39.6299 57.8772 40.1235C58.0512 40.6684 58.0383 41.2069 57.8514 41.6941C57.6645 42.1877 57.3101 42.6108 56.7816 42.9121C56.3305 43.1749 55.7505 43.348 55.0417 43.3864L49.1 44.1365C49.0742 44.1365 49.042 44.1429 49.0097 44.1493C48.1011 44.2583 48.1011 44.2967 48.0689 44.6878C48.0431 44.9442 48.0237 45.2455 47.9786 45.5916L47.3406 51.0982C47.2955 51.7905 47.1215 52.3546 46.8638 52.797C46.5609 53.3162 46.1355 53.6688 45.6393 53.8547C45.1431 54.0406 44.6082 54.047 44.0669 53.8803C43.5642 53.7265 43.0616 53.4188 42.604 52.9636L34.2844 44.6813C34.265 44.6878 34.2393 44.6878 34.2135 44.6942C33.6142 44.8096 32.9246 44.8288 32.2157 44.6685L32.1771 44.6557L29.2771 44.0724L25.404 44.7711C25.0174 44.8416 24.3858 44.8416 23.7027 44.6878C20.9317 47.4507 18.167 50.2136 15.396 52.9701ZM21.7179 43.7518C21.6792 43.7198 21.6405 43.6877 21.6019 43.6557L19.269 41.7646L15.512 40.5851C15.4926 40.5787 15.4733 40.5723 15.454 40.5594C15.0093 40.412 14.3584 40.0466 13.7784 39.4825C13.3402 39.0466 12.9278 38.4953 12.6636 37.8158L12.6507 37.7837L11.4842 35.0657L9.54448 33.1233L2.50724 40.1299C2.29458 40.3415 2.15925 40.5466 2.10125 40.7325C2.06903 40.8287 2.06903 40.912 2.08836 40.9697C2.10769 41.021 2.16569 41.0723 2.25591 41.13C2.4428 41.2325 2.71991 41.3095 3.08079 41.3223V41.3287C3.10657 41.3287 3.13235 41.3287 3.16457 41.3351L9.15782 42.0915C9.1836 42.0915 9.21582 42.0915 9.2416 42.0979C11.8322 42.4185 11.8451 42.5851 11.9998 44.5211C12.0191 44.7455 12.0449 45.0147 12.0836 45.3416L12.728 50.8674C12.728 50.8867 12.728 50.9123 12.728 50.9315C12.7473 51.3033 12.8182 51.579 12.9278 51.7585C12.9793 51.8482 13.0373 51.9059 13.0953 51.9251C13.1469 51.9444 13.2242 51.938 13.3209 51.9123C13.4949 51.8546 13.6818 51.7392 13.8751 51.5533C13.8944 51.5405 13.9073 51.5213 13.9266 51.5085C16.5237 48.9187 19.1208 46.3352 21.7179 43.7518ZM34.323 17.328C34.323 16.6869 34.207 16.1036 33.9815 15.5843C33.7495 15.0651 33.4015 14.5907 32.9311 14.1548C32.4542 13.7189 31.9193 13.392 31.32 13.174C30.7142 12.9496 30.0247 12.8407 29.2642 12.8407C28.5038 12.8407 27.8078 12.9625 27.1698 13.2125C26.5383 13.4561 25.9454 13.8279 25.3976 14.3279C25.3783 14.3471 25.3589 14.3599 25.3396 14.3728C24.8305 14.8535 24.4438 15.3664 24.1925 15.9113C23.9347 16.4626 23.8058 17.0587 23.8058 17.6934C23.8058 18.1421 23.8767 18.4434 24.025 18.5972C24.141 18.7255 24.373 18.7896 24.7209 18.7896C24.8885 18.7896 25.0174 18.7511 25.1205 18.6742C25.2623 18.5588 25.3912 18.3665 25.4943 18.0972L25.8809 17.0716C26.1709 16.3279 26.564 15.7574 27.0731 15.36C27.6338 14.9112 28.2911 14.6933 29.0516 14.6933C29.4511 14.6933 29.8249 14.7638 30.1729 14.9048C30.5209 15.0459 30.8366 15.2574 31.1137 15.5331L31.1202 15.5395C31.3909 15.8087 31.6035 16.1164 31.7453 16.4497C31.8935 16.8023 31.9644 17.1613 31.9644 17.5395C31.9644 18.0267 31.842 18.5524 31.5842 19.1229C31.3651 19.6229 31.0364 20.1742 30.6046 20.7704L30.5982 20.7832C30.334 21.1358 29.9473 21.6166 29.4382 22.232C28.9549 22.8089 28.2976 23.5782 27.4598 24.5461L24.199 28.3219C23.9798 28.5847 23.8252 28.8091 23.7285 28.995C23.677 29.104 23.6447 29.1745 23.6447 29.2194C23.6447 29.3604 23.6641 29.4822 23.7027 29.5719C23.7414 29.6553 23.7994 29.7322 23.8896 29.8091C23.9025 29.8219 23.9218 29.8348 23.9347 29.854C24.0185 29.9181 24.1152 29.9694 24.2183 30.0078C24.3536 30.0527 24.5212 30.0784 24.7209 30.0784H33.9364C34.0782 30.0784 34.2006 30.0527 34.3037 30.0142C34.3939 29.9758 34.4777 29.9245 34.555 29.8476C34.6517 29.7322 34.7226 29.6232 34.7677 29.5142C34.8064 29.4117 34.8257 29.2963 34.8257 29.1617C34.8257 29.0591 34.8064 28.9693 34.7677 28.886C34.729 28.7899 34.6581 28.6937 34.5679 28.5975C34.4584 28.5014 34.3488 28.4373 34.2328 28.3924C34.1297 28.3539 34.0137 28.3283 33.8848 28.3283H29.0773C28.5038 28.3283 28.0398 27.8668 28.0398 27.2962C28.0398 27.027 28.1429 26.7834 28.3169 26.5975C29.0258 25.809 29.6444 25.1103 30.1664 24.5077C30.682 23.9179 31.0557 23.4692 31.3006 23.1615H31.2942L32.9375 21.0845C33.4144 20.405 33.7624 19.7511 33.9944 19.1229C34.2135 18.5203 34.323 17.9177 34.323 17.328ZM35.8826 14.7638C36.2306 15.5523 36.4046 16.4113 36.4046 17.328C36.4046 18.1421 36.2499 18.9755 35.9406 19.8216C35.6441 20.6422 35.2059 21.4627 34.6324 22.2833L34.5937 22.3345L32.9311 24.4372H32.9246C32.6411 24.8026 32.2415 25.2705 31.7324 25.8539L31.378 26.2641H33.8848C34.265 26.2641 34.6324 26.3347 34.9997 26.4757C35.3284 26.6103 35.6441 26.7962 35.9341 27.0462C35.9599 27.0654 35.9921 27.0911 36.0179 27.1231C36.3079 27.4052 36.5206 27.7129 36.6688 28.0527C36.8299 28.4052 36.9072 28.777 36.9072 29.1617C36.9072 29.5399 36.8363 29.9117 36.6881 30.2707C36.5592 30.604 36.3659 30.9181 36.1146 31.2066C36.0952 31.2322 36.0695 31.2579 36.0437 31.2835C35.7601 31.572 35.4379 31.7835 35.077 31.931C34.7161 32.072 34.3424 32.1425 33.9364 32.1425H24.7209C24.3021 32.1425 23.909 32.0784 23.5352 31.9502C23.1872 31.8284 22.8714 31.6553 22.5879 31.4181C22.5621 31.3989 22.5363 31.3797 22.517 31.3604C22.2076 31.0848 21.9692 30.7643 21.8017 30.3861C21.647 30.0207 21.5697 29.636 21.5697 29.2194C21.5697 28.854 21.6728 28.4693 21.879 28.0655C22.0465 27.7321 22.2914 27.3796 22.6008 27.0078L25.8874 23.2064C26.6349 22.3345 27.2858 21.5717 27.8336 20.9114C28.3556 20.2896 28.7229 19.8345 28.9291 19.5524C29.2707 19.0909 29.522 18.6678 29.6831 18.296C29.8184 17.9883 29.8893 17.7382 29.8893 17.5395C29.8893 17.4305 29.87 17.3344 29.8378 17.2511C29.7991 17.1677 29.7411 17.078 29.6509 16.9946C29.5735 16.9177 29.4833 16.8536 29.3931 16.8151C29.2964 16.7767 29.1804 16.7575 29.0516 16.7575C28.7744 16.7575 28.5424 16.828 28.362 16.9754C28.1493 17.1421 27.9689 17.4177 27.8207 17.8024L27.8013 17.8536L27.434 18.8216L27.4276 18.828C27.1827 19.4691 26.8411 19.9563 26.4029 20.296C25.926 20.6742 25.3589 20.8601 24.7209 20.8601C23.7672 20.8601 23.0196 20.5717 22.4848 19.9883C21.9821 19.437 21.7243 18.6742 21.7243 17.6934C21.7243 16.7575 21.9177 15.8728 22.3043 15.0459C22.6716 14.2574 23.2194 13.533 23.9347 12.8663C23.9541 12.8471 23.9734 12.8278 23.9927 12.8086C24.7274 12.1355 25.5394 11.6291 26.4223 11.2893C27.3116 10.9432 28.2589 10.7765 29.2642 10.7765C30.2567 10.7765 31.1846 10.9239 32.0289 11.2381C32.8924 11.5458 33.6593 12.0137 34.3359 12.6419C35.019 13.2638 35.5346 13.9753 35.8826 14.7638ZM19.2884 7.73796C19.7652 7.42384 20.4097 7.55846 20.719 8.03284C21.0348 8.50721 20.9059 9.14825 20.4226 9.46236C18.2766 10.8663 16.4979 12.7958 15.2671 15.0651C14.0813 17.2511 13.4111 19.7511 13.4111 22.4115C13.4111 26.6936 15.1511 30.5655 17.9673 33.3669C20.7834 36.1683 24.6694 37.8991 28.9678 37.8991C33.2662 37.8991 37.1521 36.1683 39.9683 33.3669C42.778 30.5655 44.5245 26.6872 44.5245 22.4115C44.5245 18.1293 42.778 14.2574 39.9683 11.456C37.1521 8.65465 33.2662 6.92383 28.9678 6.92383C28.0849 6.92383 27.2342 6.98793 26.4158 7.12896C25.5716 7.26358 24.7467 7.47513 23.9412 7.74437C23.3999 7.93027 22.8134 7.6418 22.6265 7.09691C22.4396 6.55843 22.7361 5.97508 23.2774 5.78918C24.1732 5.48789 25.1141 5.2507 26.0807 5.09044C27.028 4.93659 27.9947 4.85325 28.9678 4.85325C33.8333 4.85325 38.2412 6.82126 41.4376 10.0008C44.6276 13.174 46.5995 17.5652 46.5995 22.4115C46.5995 27.2578 44.6276 31.6425 41.4376 34.8221C38.2412 38.0017 33.8333 39.9697 28.9678 39.9697C24.1023 39.9697 19.6943 38.0017 16.4979 34.8221C13.308 31.6425 11.336 27.2578 11.336 22.4115C11.336 19.405 12.0964 16.5715 13.4369 14.0907C14.8289 11.5201 16.8459 9.34057 19.2884 7.73796ZM10.2791 30.9309C10.2856 30.9374 10.2985 30.9502 10.3049 30.9566L13.0695 33.7323C13.1727 33.8221 13.2564 33.9439 13.3144 34.0785L14.5582 36.976C14.5711 37.0016 14.584 37.0273 14.5969 37.0593C14.7451 37.444 14.9835 37.7645 15.2349 38.0081C15.5635 38.335 15.8922 38.5273 16.1048 38.6042L16.1371 38.6107L20.081 39.8479V39.8543C20.2035 39.8927 20.3194 39.9504 20.4226 40.0338L22.9487 42.0851C23.1872 42.2902 23.445 42.4377 23.7092 42.5403C23.7478 42.5531 23.793 42.5659 23.8316 42.5851C23.8703 42.6044 23.9154 42.6172 23.9541 42.63C24.4181 42.7646 24.8241 42.7839 25.0367 42.739L29.0967 42.0146C29.2256 41.989 29.3544 41.989 29.4898 42.0146L32.5895 42.6364C32.6153 42.6428 32.6475 42.6492 32.6733 42.6556C33.0793 42.7454 33.4788 42.7326 33.8268 42.6685C33.9557 42.6428 34.0846 42.6108 34.1942 42.5723C34.2393 42.5595 34.2844 42.5403 34.3295 42.5274C34.5615 42.4441 34.7355 42.3479 34.8386 42.271L38.0543 39.7709C38.1639 39.6748 38.2992 39.6043 38.4474 39.5594L41.5407 38.6555L41.5729 38.6491C41.966 38.5466 42.3076 38.3478 42.5847 38.1235C42.9649 37.8222 43.2098 37.5016 43.3 37.3029L45.0078 33.5464C45.0593 33.431 45.1302 33.3284 45.2269 33.2323L47.5211 31.0271C47.534 31.0143 47.5533 30.995 47.5662 30.9822C47.8755 30.7002 48.0882 30.3668 48.23 30.0399C48.4233 29.5976 48.4877 29.2001 48.4749 28.9822L48.2429 24.9244C48.2235 24.7769 48.2364 24.6295 48.288 24.482L49.2997 21.4243L49.3126 21.3986C49.4544 21.014 49.4866 20.6165 49.4608 20.264C49.4286 19.7768 49.2997 19.3921 49.1902 19.2062L47.0829 15.7061C47.0055 15.5843 46.954 15.4561 46.9282 15.3087L46.3998 12.1355V12.1099C46.3418 11.6996 46.1871 11.3342 46.0002 11.0329C45.7424 10.6162 45.4524 10.3406 45.2656 10.2252L41.7792 8.10976C41.6567 8.03925 41.5407 7.94309 41.4505 7.82129L39.5107 5.25711L39.4914 5.23788C39.253 4.89813 38.9436 4.64812 38.6408 4.46863C38.2283 4.21862 37.8417 4.10964 37.6161 4.09682L33.4917 3.83399C33.3693 3.82758 33.2404 3.79553 33.1179 3.73784L30.2567 2.39164C30.2309 2.37882 30.1987 2.366 30.1729 2.35318C29.8055 2.16728 29.4189 2.08394 29.0709 2.07112C28.5811 2.04548 28.188 2.12241 27.9882 2.21215L24.2441 3.87887C24.1216 3.93656 23.9798 3.97502 23.8316 3.98143L20.6159 4.12246H20.5837C20.1777 4.12888 19.7975 4.23785 19.4752 4.38529C19.0306 4.59043 18.7212 4.84684 18.5859 5.01352L16.0533 8.21233C15.976 8.32772 15.8664 8.43028 15.7311 8.50721L12.9471 10.1226L12.9213 10.1355C12.5604 10.3278 12.2769 10.6034 12.0578 10.8855C11.7549 11.2765 11.6002 11.6419 11.5616 11.8599L10.8076 15.8792C10.7882 16.0203 10.7367 16.1485 10.6594 16.2767L8.96449 18.9562C8.95805 18.9755 8.94516 18.9947 8.93227 19.0139C8.70027 19.3537 8.57783 19.7319 8.51338 20.0845C8.42961 20.5653 8.46183 20.9691 8.53272 21.1742L9.72493 25.059C9.77648 25.1936 9.80226 25.341 9.78937 25.4949L9.53804 28.7001V28.7322C9.49293 29.1488 9.55093 29.5399 9.66048 29.8732C9.8087 30.3348 10.0278 30.6745 10.1825 30.8348L10.2791 30.9309ZM48.3911 33.0592L46.8187 34.5721L45.1882 38.1491C45.0013 38.5722 44.5438 39.2132 43.88 39.7389C43.4096 40.1171 42.8232 40.4505 42.1207 40.6364L39.2143 41.4825L36.2886 43.7582L44.0734 51.5085C44.286 51.72 44.4922 51.8546 44.6727 51.9123C44.7693 51.938 44.8531 51.9444 44.9111 51.9251C44.9627 51.9059 45.0142 51.8482 45.0722 51.7585C45.1818 51.5726 45.2527 51.2969 45.272 50.9315C45.272 50.9123 45.272 50.8867 45.2785 50.8674H45.272L45.9164 45.3416C45.9551 45.0147 45.9744 44.7454 45.9938 44.5275C46.1549 42.5851 46.1678 42.4185 48.7648 42.0979C48.7906 42.0915 48.8164 42.0915 48.8422 42.0915L54.8354 41.3351C54.8612 41.3287 54.8934 41.3287 54.9192 41.3287V41.3223C55.2865 41.3095 55.5572 41.2325 55.7441 41.13C55.8343 41.0787 55.8923 41.021 55.9116 40.9697C55.931 40.912 55.931 40.8287 55.8988 40.7325C55.8408 40.5466 55.7054 40.3415 55.4928 40.1299L48.3911 33.0592Z" fill="white"/>
</svg>
