<svg width="60" height="47" viewBox="0 0 60 47" fill="none" xmlns="http://www.w3.org/2000/svg">
<path d="M26.553 43.4388C26.7453 42.8813 26.723 40.0517 24.4858 37.3154C22.5014 34.938 19.9763 32.5614 19.6341 32.1965C19.3458 31.7933 18.8106 31.7961 18.9002 31.8193C18.3518 31.8193 18.1573 32.2279 17.9712 32.4832C17.1949 29.9817 16.0886 27.634 15.9266 27.2344C15.8381 26.899 15.5592 26.6393 15.2072 26.5801C14.7609 26.501 14.4931 26.7721 14.307 26.8942C14.4794 24.3414 14.2232 21.7978 14.2032 21.3749C14.2523 20.7297 13.8387 20.2697 12.7875 20.5233C13.7819 18.1945 14.3574 15.6889 14.4752 15.2802C14.6109 14.9665 14.5557 14.5954 14.3201 14.3333C14.0235 14.002 13.6673 14.0395 13.3966 14.0121C15.0935 12.1395 16.4796 9.96327 16.7337 9.61335C16.9768 9.36158 17.0525 8.98614 16.9154 8.65595C16.4065 7.42766 11.5376 6.04785 8.4488 10.3705C8.54275 8.5784 8.52317 7.57907 8.52478 7.66883C8.47495 4.9198 6.69332 0.56655 5.09043 1.3808C4.31092 1.77856 1.69636 7.32459 2.2742 11.4746C1.77035 11.2125 1.2644 11.0183 0.813598 11.4444C0.208731 12.0169 -0.433939 18.1297 1.45999 21.8801C1.21593 21.8465 1.0139 21.8389 0.87049 21.8505C0.818804 21.8531 0.76625 21.861 0.714192 21.8723C0.444481 21.9194 0.200551 22.0857 0.0665631 22.3384C-0.328831 23.0846 1.04067 29.1087 4.08496 32.0193C3.49596 32.1375 2.98591 32.3179 2.89791 32.9126C2.76938 33.7882 6.09391 39.041 10.1434 40.7607C9.81632 40.9533 9.50112 41.1655 9.37506 41.4934C9.31594 41.6432 9.29623 41.8097 9.32561 41.976C9.51649 43.0528 15.2755 47 20.0222 47C23.7595 47.0001 25.9213 45.279 26.553 43.4388ZM7.57534 17.1622C7.30476 17.6603 7.08797 18.1999 6.92176 18.7624C6.74997 18.1657 6.56801 17.5695 6.37577 16.9878C6.94035 17.1697 6.97245 17.2107 7.57534 17.1622ZM12.4212 27.8198C12.215 29.3469 11.5499 30.5212 11.0108 31.2321C9.6092 28.0268 9.26264 23.8783 12.4834 22.4866C12.5678 23.7653 12.6643 25.8936 12.4212 27.8198ZM8.25383 23.4683C8.14922 21.9368 8.20871 19.109 9.52194 17.4258C9.52368 17.4232 9.52541 17.4215 9.52715 17.4188C10.3119 16.3935 11.326 15.8289 12.496 15.7584C12.168 16.9885 11.5738 19.0383 10.7073 20.7624C10.012 22.1127 8.99876 22.9848 8.25383 23.4683ZM8.28321 25.4771C8.19 26.0406 8.16136 26.6255 8.19024 27.2155C7.83241 26.7079 7.46589 26.2035 7.09628 25.7169C7.74242 25.6989 7.84232 25.6707 8.28321 25.4771ZM11.7309 33.1026C11.838 33.6801 12.0207 34.2521 12.2633 34.806C11.7334 34.4411 11.1993 34.082 10.6766 33.7426C11.2825 33.5077 11.3836 33.4355 11.7309 33.1026ZM17.8749 39.1276C18.2158 39.6671 18.6464 40.1674 19.1341 40.626C18.4377 40.456 17.7463 40.2924 17.0881 40.1451C17.5742 39.7249 17.6761 39.5662 17.8749 39.1276ZM19.0407 34.1286C20.022 35.0957 21.6806 36.7474 23.0998 38.4479C24.1823 39.7721 24.6149 41.0944 24.7695 41.9726C21.1884 40.5735 17.3247 37.5341 19.0407 34.1286ZM14.6776 28.852C15.9648 31.8132 17.3063 34.8328 16.4996 37.7013C13.9266 35.1716 12.0364 31.3251 14.6776 28.852ZM14.7183 9.38932C14.005 10.4286 12.7374 12.2075 11.3725 13.5439C10.2358 14.6295 9.00793 15.0807 8.18169 15.268C9.08081 11.8683 11.3399 8.40381 14.7183 9.38932ZM5.65501 3.70594C7.26807 6.2614 6.77996 9.83504 6.2869 14.9928C6.28553 15.0059 6.28429 15.0198 6.28293 15.0329C2.9113 13.152 3.75204 7.71347 5.65501 3.70594ZM2.09993 13.483C2.79268 14.0223 3.7565 15.0406 4.43077 16.8344C5.39745 19.546 6.12824 22.8664 6.38816 23.9004C2.51032 23.2691 1.68892 17.6328 2.09993 13.483ZM1.94177 23.8377C4.92929 24.8261 6.92783 28.413 9.40283 32.2644C5.66294 32.9507 2.96447 28.303 1.94177 23.8377ZM5.16244 33.6957C8.35968 33.6057 11.4337 36.3976 15.3458 39.2076C12.0243 41.0859 7.72209 37.7052 5.16244 33.6957ZM24.269 43.7743C21.5714 46.6936 15.7197 44.8469 11.7644 41.9649C14.7973 40.8359 18.3376 42.2882 24.269 43.7743ZM59.9336 22.3392C59.657 21.8174 59.109 21.8024 58.5388 21.8814C60.433 18.1215 59.7906 12.0164 59.1862 11.4443C58.9839 11.2527 58.7076 11.1699 58.4423 11.2056C58.3862 11.2099 58.3315 11.2195 58.2789 11.2343C58.1471 11.2701 57.9483 11.3585 57.7252 11.4746C58.2997 7.31152 55.6881 1.77708 54.909 1.3797C54.6428 1.24382 54.3297 1.25245 54.0735 1.38487C54.0209 1.40929 53.971 1.43801 53.9255 1.4702C51.6029 3.11362 51.3788 7.98349 51.4751 7.68067C51.4722 8.54893 51.504 9.46712 51.5515 10.3705C49.6182 7.66489 46.5295 6.61982 43.5797 8.16671C42.9876 8.40418 42.8289 9.15937 43.2666 9.61372C43.5286 9.97461 44.9115 12.1434 46.6052 14.0127C46.3289 14.0395 45.9744 14.0042 45.6802 14.3329C45.3141 14.7404 45.4821 15.1083 45.6162 15.6274C45.8605 16.5708 46.3853 18.5842 47.2138 20.5244C46.9652 20.463 46.657 20.3126 46.2668 20.5207C45.9507 20.6898 45.7712 21.0277 45.797 21.3736C45.7763 21.8056 45.5222 24.3647 45.6933 26.8962C45.4849 26.7578 45.2279 26.5026 44.7929 26.5797C44.2149 26.6769 44.1263 27.1186 43.8935 27.6468C43.4987 28.5435 42.6545 30.4666 42.0282 32.4852C41.8399 32.2237 41.6649 31.8188 41.0994 31.8188C41.0964 31.8188 41.0934 31.8188 41.0898 31.8188C40.3175 31.828 35.9956 36.7376 35.5082 37.3219C34.1977 38.925 32.8581 42.1907 33.4978 43.5499C34.4622 46.0168 37.2392 46.9998 39.9684 46.9998C44.7234 46.9998 50.4833 43.0525 50.6742 41.9758C50.7799 41.3847 50.3364 41.0429 49.8556 40.7602C53.9101 39.0341 57.2303 33.7871 57.1018 32.9121C57.0558 32.6003 56.8549 32.3458 56.5824 32.223C56.5408 32.1994 56.4988 32.1794 56.4572 32.1638C56.3144 32.1094 56.1248 32.0614 55.9136 32.0191C58.9602 29.1017 60.3283 23.0848 59.9336 22.3392ZM54.2578 31.0987C52.7677 32.2957 51.4973 32.429 50.5966 32.2644C53.4982 27.7684 55.2468 24.7673 58.0582 23.8377C57.6377 25.6723 56.4875 29.3547 54.2578 31.0987ZM42.9101 40.1453C42.2525 40.2926 41.5617 40.4561 40.8657 40.626C41.3533 40.1676 41.7838 39.6675 42.1246 39.1281C42.3248 39.5694 42.4264 39.7253 42.9101 40.1453ZM53.6227 16.9906C53.4307 17.5714 53.2492 18.1667 53.0777 18.7624C52.9116 18.1999 52.6949 17.6603 52.4245 17.1622C53.0221 17.2101 53.056 17.1709 53.6227 16.9906ZM50.4728 17.4189C50.4745 17.4215 50.4762 17.4232 50.478 17.426C51.7912 19.1099 51.8507 21.9369 51.7456 23.4692C51.0017 22.9858 49.9893 22.1154 49.2965 20.7704C48.4269 19.0394 47.8318 16.9886 47.5038 15.7586C48.6734 15.8299 49.6881 16.3936 50.4728 17.4189ZM52.902 25.7188C52.5328 26.205 52.1668 26.7089 51.8093 27.2161C51.8383 26.6259 51.8096 26.0407 51.7165 25.4771C52.1593 25.6716 52.2537 25.6972 52.902 25.7188ZM49.7804 25.0642C49.7818 25.0677 49.7826 25.0712 49.7839 25.0747C50.4986 27.1315 49.6039 29.8269 48.9886 31.233C47.178 28.8461 47.2972 25.7898 47.5165 22.4866C48.5951 22.9525 49.3693 23.8298 49.7804 25.0642ZM48.2689 33.1029C48.5588 33.3807 48.6454 33.4791 49.3209 33.744C48.7991 34.0829 48.2658 34.4414 47.7369 34.8058C47.9791 34.2519 48.1616 33.6802 48.2689 33.1029ZM56.6538 21.5856C55.8288 22.9159 54.7727 23.7121 53.6114 23.9003C53.614 23.8898 53.6162 23.8793 53.6188 23.869C53.9998 22.2529 54.7092 19.2457 55.5687 16.8342C56.2429 15.0405 57.2068 14.0221 57.8995 13.4829C58.0901 15.4109 58.1247 19.2858 56.6538 21.5856ZM54.3444 3.70594C55.1746 5.45528 56.5089 9.11067 55.8407 11.8112C55.4904 13.3463 54.7503 14.457 53.7165 15.0328C53.7151 15.0171 53.7139 15.0023 53.7122 14.9866C53.2119 9.75638 52.7781 6.1873 54.3444 3.70594ZM51.8179 15.268C50.9925 15.0816 49.7673 14.6329 48.6354 13.5518C47.2635 12.2094 45.9945 10.4287 45.2812 9.38945C48.6589 8.40282 50.9201 11.8701 51.8179 15.268ZM45.3219 28.852C47.9646 31.3252 46.073 35.1716 43.4998 37.7013C42.6981 34.853 43.979 31.9443 45.3219 28.852ZM40.9589 34.1278C41.4945 35.1897 41.4813 36.3537 40.9172 37.6002C40.9133 37.6081 40.9098 37.6159 40.9063 37.6246C40.0284 39.732 36.9023 41.3192 35.23 41.9726C35.7195 39.1872 37.9136 37.1341 40.9589 34.1278ZM35.7301 43.7743C42.7884 42.0078 45.4506 40.9276 48.2356 41.9649C43.7588 45.225 38.1722 46.4189 35.7301 43.7743ZM44.6537 39.2076C49.705 35.5792 51.875 33.6456 54.837 33.6957C52.2352 37.7696 47.8732 41.0293 44.6537 39.2076ZM41.141 15.8875C41.035 15.5643 40.7544 15.329 40.4162 15.2811L33.7683 14.3263L30.8047 8.33094C30.6541 8.02603 30.3422 7.83257 30.0008 7.83257C30.0003 7.83257 30.0003 7.83257 29.9999 7.83257C29.6588 7.83257 29.3471 8.02504 29.196 8.32909L26.217 14.3261L19.5831 15.281C19.245 15.3289 18.9643 15.564 18.8588 15.8873C18.7529 16.2096 18.8409 16.5642 19.0848 16.8021L23.8853 21.4637L22.7555 28.0515C22.6981 28.386 22.8366 28.724 23.1124 28.9235C23.2687 29.0359 23.454 29.0934 23.6395 29.0934C23.7823 29.0934 23.9255 29.0594 24.0563 28.9915L29.9998 25.8875L35.9432 28.9915C36.2454 29.1474 36.6114 29.123 36.8877 28.9227C37.164 28.7223 37.3019 28.3842 37.2437 28.0497L36.1004 21.4637L40.9135 16.8029C41.1586 16.5661 41.2466 16.2106 41.141 15.8875ZM34.5106 20.5133C34.2987 20.7188 34.2024 21.0151 34.2527 21.3044L35.1669 26.5705L30.4167 24.0903C30.1557 23.9544 29.844 23.9544 29.5831 24.0903L24.8285 26.5731L25.7324 21.3025C25.7818 21.0141 25.6855 20.7188 25.4749 20.5142L21.6377 16.7873L26.9405 16.0242C27.2325 15.9824 27.4852 15.8003 27.6161 15.5372L29.9982 10.7423L32.3676 15.5354C32.4981 15.7994 32.7515 15.9824 33.0441 16.0242L38.3577 16.7873L34.5106 20.5133ZM29.1033 2.73362V0.892055C29.1033 0.39899 29.5049 0 30 0C30.4953 0 30.8968 0.39899 30.8968 0.892055V2.73374C30.8968 3.22681 30.4952 3.6258 30 3.6258C29.5047 3.6258 29.1033 3.22681 29.1033 2.73362ZM35.1468 5.74614C34.7966 5.3977 34.7966 4.83312 35.1468 4.48469L36.4557 3.18316C36.806 2.83472 37.3736 2.83472 37.7239 3.18316C38.0741 3.5316 38.0741 4.09618 37.7239 4.44461L36.4151 5.74614C36.0647 6.0947 35.4971 6.09458 35.1468 5.74614ZM23.5846 5.74614L22.2758 4.44461C21.9256 4.09618 21.9256 3.5316 22.2758 3.18316C22.6252 2.83472 23.1937 2.83472 23.5439 3.18316L24.8528 4.48469C25.2031 4.83312 25.2031 5.3977 24.8528 5.74614C24.5028 6.09507 23.9344 6.09421 23.5846 5.74614Z" fill="white"/>
</svg>
