<svg width="53" height="53" viewBox="0 0 53 53" fill="none" xmlns="http://www.w3.org/2000/svg">
<circle cx="26.5" cy="26.5" r="25.75" stroke="white" stroke-width="1.5"/>
<path d="M19.773 38.9706C19.2128 38.9706 18.7927 38.8306 18.3726 38.5505C17.6724 37.9904 17.2523 37.1502 17.3924 36.1979L18.6527 29.3923L13.8075 24.6591C13.1073 23.9589 12.8273 22.9787 13.1073 22.1665C13.3874 21.3263 14.0876 20.6261 15.0398 20.4861L21.8455 19.5058L24.9262 13.4003C25.3463 12.5601 26.1865 12 27.1388 12C28.119 12 28.9312 12.5601 29.3513 13.4003L32.404 19.5058L39.2097 20.4861C39.7699 20.6261 40.6101 21.3263 40.8901 22.1665C41.1702 23.0067 40.8901 23.9589 40.33 24.6591L35.3448 29.3923L36.465 36.0579C36.6051 37.0381 36.185 37.8503 35.4848 38.4105C34.7846 38.9706 33.8044 38.9706 32.9922 38.5505L26.9987 35.4978L21.0333 38.6905C20.6132 38.8306 20.1931 38.9706 19.773 38.9706ZM26.9987 32.7251C27.4188 32.7251 27.8389 32.8651 28.119 33.0051L33.6644 35.9179L32.6841 29.6723C32.5441 28.8321 32.8242 28.132 33.3843 27.5998L37.8374 23.1467L31.5919 22.3065C30.7516 22.1665 30.0515 21.7464 29.7994 20.9062L26.9987 15.2208L24.226 20.9062C23.8059 21.6064 23.2458 22.1665 22.4336 22.3065L16.1881 23.2868L20.6412 27.7399C21.2013 28.3 21.4814 29.1402 21.3413 29.8124L20.2211 36.0579L25.3743 33.3412C25.5704 33.2292 25.7664 33.0892 25.9625 32.9771C26.2986 32.7251 26.6626 32.7251 26.9987 32.7251Z" fill="white"/>
</svg>
