<svg width="53" height="53" viewBox="0 0 53 53" fill="none" xmlns="http://www.w3.org/2000/svg">
<circle cx="26.5" cy="26.5" r="25.75" stroke="white" stroke-width="1.5"/>
<path d="M26.1061 8.21448C26.7487 14.2612 31.5991 10.8217 33.6726 9.13251C34.4366 8.50825 35.3703 7.39437 35.8796 7.08836C36.207 6.89251 36.7041 7.02716 36.9103 7.44333C37.08 8.04311 37.177 8.81426 36.789 9.94037C36.3403 11.2501 35.5885 12.5353 35.152 13.233C34.0607 15.0446 32.9572 16.6359 31.6476 18.3006C29.5256 20.9935 26.8215 23.1233 24.6025 25.7305C21.1708 29.7576 19.267 35.9635 20.3099 41.1901C20.5766 42.5365 21.2072 44.2257 22.4683 44.9357C30.0106 49.1464 35.54 31.0795 32.9693 25.7427C32.6298 25.0328 31.9144 23.7965 30.9807 23.9679C26.2758 24.8614 24.081 40.3455 27.0155 41.4716C26.8942 43.3077 23.9962 44.4338 23.1716 41.0432C22.8806 39.8681 22.8321 38.6074 22.8684 37.4078C22.9897 32.2424 27.1004 24.433 31.781 22.0461C33.9152 20.9445 36.9224 20.9812 38.0986 23.4415C42.3063 32.2057 30.9564 48.3752 21.1587 46.9064C16.3932 46.1964 14.6834 41.594 15.0472 37.2487C15.3504 33.6623 16.8419 30.235 18.8911 27.334C23.0261 21.4586 29.5498 19.7327 32.7147 15.1303C32.7147 15.1303 32.8117 14.9712 32.836 14.8488C32.8723 14.7141 32.7147 14.555 32.5207 14.7264C32.1448 15.0446 30.338 15.9871 29.0769 16.134C26.5305 16.44 25.136 12.9148 24.6995 10.9563C24.6025 10.5279 24.5903 10.1974 24.178 10.736C22.9291 12.3762 21.959 21.5198 20.6979 22.0339L15.7384 24.0291C15.7384 24.0291 15.5323 24.127 15.4474 23.821C14.8775 21.7034 20.0067 14.3102 21.4255 11.8254C21.6073 11.5071 22.7957 9.20595 23.0018 9.03458C23.3656 8.72857 25.6332 8.12879 26.1061 8.21448Z" fill="white"/>
</svg>
