<svg width="19" height="18" viewBox="0 0 19 18" fill="none" xmlns="http://www.w3.org/2000/svg">
<path fill-rule="evenodd" clip-rule="evenodd" d="M8.75919 11.887C8.67728 11.9786 8.61175 12.086 8.5667 12.2021C8.52301 12.3168 8.49844 12.4401 8.49844 12.5627C8.49844 12.6859 8.52301 12.8085 8.5667 12.9232C8.61175 13.0393 8.67728 13.1474 8.75987 13.239C8.92984 13.4128 9.16397 13.5 9.39878 13.5C9.63359 13.5 9.86704 13.4128 10.0377 13.239C10.1196 13.1467 10.1851 13.0385 10.2302 12.9224C10.2745 12.8078 10.2984 12.6845 10.2984 12.5627C10.2984 12.4401 10.2739 12.3175 10.2302 12.2029C10.1858 12.0868 10.1196 11.9786 10.0384 11.887C9.95168 11.8005 9.84929 11.7313 9.73939 11.6837C9.63086 11.6376 9.51414 11.6116 9.39878 11.6116C9.28206 11.6116 9.16602 11.6376 9.05817 11.6837C8.94827 11.7313 8.84588 11.8005 8.75919 11.887ZM8.49844 9.75276C8.49844 10.0152 8.59946 10.2532 8.7626 10.4248C8.92506 10.5971 9.14963 10.7031 9.39878 10.7031C9.64724 10.7031 9.8725 10.5971 10.035 10.4248C10.1981 10.2532 10.2984 10.0152 10.2984 9.75276V5.45105C10.2984 5.18787 10.1981 4.94993 10.035 4.77832C9.8725 4.60671 9.64724 4.5 9.39878 4.5C9.15032 4.5 8.92506 4.60671 8.76192 4.77832C8.59946 4.94993 8.49844 5.18787 8.49844 5.45105V9.75276Z" fill="#272727"/>
<path d="M9.37371 18C8.58608 18 7.80537 17.8975 7.05305 17.6948C3.81112 16.8222 1.27269 14.1351 0.586147 10.8486C-0.113549 7.50055 1.17782 3.98099 3.87655 1.88207C5.43659 0.668578 7.40411 0 9.41699 0C10.8105 0 12.1943 0.324243 13.4192 0.937049C16.4441 2.45122 18.3984 5.61467 18.3984 8.99671C18.3984 11.7562 17.097 14.416 14.9173 16.1114C13.3517 17.3293 11.3828 18 9.37371 18ZM9.41734 1.38565C7.71086 1.38565 6.04488 1.95031 4.72685 2.97604C2.44288 4.75245 1.34955 7.73126 1.94192 10.5649C2.52286 13.3449 4.67042 15.6184 7.41311 16.3566C8.04807 16.5274 8.70795 16.6143 9.37371 16.6143C11.0764 16.6143 12.7434 16.0473 14.0677 15.0174C15.9126 13.5825 17.0139 11.3319 17.0139 8.99671C17.0139 6.13499 15.3601 3.4579 12.8002 2.17652C11.7664 1.65932 10.5969 1.38565 9.41734 1.38565Z" fill="#272727"/>
</svg>
