<svg viewBox="0 0 25 25" fill="none" xmlns="http://www.w3.org/2000/svg">
<path d="M15.7727 11.4091H17.9545V13.5909H15.7727V11.4091Z" fill="white"/>
<path d="M7.04545 11.4091H9.22727V13.5909H7.04545V11.4091Z" fill="white"/>
<path d="M13.5909 13.5909V11.4091H11.4091V13.5909H13.5909Z" fill="white"/>
<path fill-rule="evenodd" clip-rule="evenodd" d="M24.5 12.5C24.5 5.87257 19.1274 0.5 12.5 0.5C5.87251 0.5 0.5 5.87257 0.5 12.5V23.4091C0.5 24.0115 0.988508 24.5 1.59091 24.5H12.5C19.1274 24.5 24.5 19.1275 24.5 12.5ZM12.5 2.68182C17.9224 2.68182 22.3182 7.07757 22.3182 12.5C22.3182 17.9224 17.9224 22.3182 12.5 22.3182H2.68182V12.5C2.68182 7.07757 7.07757 2.68182 12.5 2.68182Z" fill="white"/>
</svg>
