<svg width="16" height="19" viewBox="0 0 16 19" fill="none" xmlns="http://www.w3.org/2000/svg">
<path d="M5.7537 7.49474C5.7537 6.31053 6.71423 5.35263 7.89844 5.35263C9.08265 5.35263 10.0432 6.31053 10.0432 7.49474C10.0432 8.67895 9.08265 9.63947 7.89844 9.63947C6.71423 9.63947 5.7537 8.67895 5.7537 7.49474ZM15.3984 7.92895C15.3984 12.8842 8.36686 18.6079 8.34581 18.6237L7.89844 18.9895L7.45107 18.6237C7.43002 18.6079 0.398438 12.8842 0.398438 7.92895V7.50263C0.398438 5.43158 1.23791 3.55789 2.59581 2.2C3.95107 0.842105 5.82739 0 7.89844 0C9.96949 0 11.8458 0.842105 13.2011 2.19737C14.559 3.55789 15.3984 5.43158 15.3984 7.50263V7.92895ZM7.89844 17.1421C9.36949 15.8526 13.9748 11.5342 13.9748 7.92895V7.50263C13.9748 5.82105 13.2958 4.30263 12.1958 3.20263C11.0958 2.10526 9.57739 1.42368 7.89844 1.42368C6.21949 1.42368 4.70107 2.10526 3.60107 3.20526C2.50107 4.30263 1.82212 5.82105 1.82212 7.50263V7.92895C1.82212 11.5342 6.42739 15.8526 7.89844 17.1421Z" fill="#272727"/>
</svg>
