<svg width="19" height="19" viewBox="0 0 19 19" fill="none" xmlns="http://www.w3.org/2000/svg">
<path fill-rule="evenodd" clip-rule="evenodd" d="M17.6308 0.202831C17.9012 -0.0675907 18.3397 -0.0676416 18.61 0.202866C18.8804 0.47331 18.8804 0.911617 18.61 1.18205L16.7985 2.99356L17.83 9.032C17.9281 9.60566 17.741 10.1936 17.3294 10.6053L10.0717 17.863C8.80517 19.1294 6.74496 19.1294 5.47849 17.863L0.949859 13.3343C-0.316618 12.0679 -0.31662 10.0076 0.949858 8.74117L8.2077 1.48347C8.61921 1.07195 9.20714 0.884758 9.78096 0.982783L15.8193 2.01434L17.6308 0.202831ZM9.18677 2.46268C9.28116 2.36829 9.4161 2.32538 9.54769 2.34784L14.6194 3.21424L13.0812 4.75238C12.1707 4.25193 11.0104 4.36481 10.2124 5.0917C10.1838 5.11782 10.1556 5.14472 10.1279 5.17242C9.15943 6.14102 9.15942 7.71648 10.1279 8.68494C11.0963 9.6534 12.6718 9.6534 13.6403 8.68494C14.4391 7.88608 14.5789 6.67485 14.0604 5.73159L15.5986 4.19346L16.465 9.26515C16.4874 9.39672 16.4445 9.53166 16.3501 9.62605L9.09243 16.8837C8.36613 17.61 7.184 17.61 6.4577 16.8837L1.92893 12.355C1.20278 11.6288 1.20277 10.4467 1.92894 9.72037L9.10339 2.54607L9.18677 2.46268ZM11.1072 6.15163C11.35 5.90886 11.6794 5.80349 11.9974 5.83618L11.4714 6.36223C11.201 6.63255 11.2012 7.07107 11.4714 7.34148C11.7418 7.61172 12.1803 7.61177 12.4506 7.34145L12.9766 6.8154C13.0093 7.13344 12.904 7.46281 12.6612 7.70558C12.2328 8.13402 11.5355 8.13396 11.1072 7.70557C10.6788 7.2773 10.6788 6.58006 11.1072 6.15163Z" fill="#272727"/>
</svg>
