<svg width="20" height="20" viewBox="0 0 20 20" fill="none" xmlns="http://www.w3.org/2000/svg">
<path d="M18.3689 10.332C18.2391 10.1303 18.2391 9.86972 18.3689 9.66801L19.0913 8.54536C19.7493 7.52278 19.306 6.14896 18.1813 5.71369L16.9442 5.23479C16.7219 5.1487 16.5704 4.93788 16.5582 4.69753L16.49 3.36003C16.4278 2.14192 15.2705 1.29356 14.1075 1.60997L12.8283 1.9577C12.5985 2.02012 12.3533 1.93961 12.2037 1.75247L11.3709 0.71087C10.6124 -0.237718 9.18318 -0.236195 8.42601 0.71087L7.59319 1.7525C7.44359 1.93969 7.19845 2.02012 6.96857 1.95774L5.68933 1.61001C4.52398 1.29313 3.36879 2.1443 3.30682 3.36007L3.23863 4.69757C3.22634 4.93788 3.07485 5.14874 2.85258 5.23479L1.61557 5.71369C0.488542 6.14986 0.04872 7.52482 0.705478 8.5454L1.42792 9.66801C1.55769 9.86969 1.55769 10.1303 1.42792 10.332L0.705594 11.4546C0.0474837 12.4773 0.491015 13.8511 1.6156 14.2863L2.8527 14.7652C3.07497 14.8513 3.2265 15.0621 3.23874 15.3025L3.30693 16.64C3.36906 17.8583 4.52657 18.7063 5.68944 18.39L6.96861 18.0423C7.19853 17.98 7.44363 18.0604 7.59327 18.2475L8.42604 19.2891C9.18464 20.2379 10.6139 20.236 11.3709 19.2891L12.2037 18.2475C12.3533 18.0604 12.5986 17.98 12.8283 18.0423L14.1076 18.39C15.2726 18.707 16.4281 17.8559 16.4901 16.64L16.5583 15.3025C16.5706 15.0622 16.722 14.8513 16.9443 14.7652L18.1813 14.2863C19.3083 13.8502 19.7481 12.4753 19.0915 11.4546L18.3689 10.332ZM17.7196 13.0671L16.4825 13.546C15.7836 13.8166 15.3072 14.4796 15.2687 15.2352L15.2005 16.5727C15.1807 16.9602 14.8127 17.2298 14.4428 17.1293L13.1635 16.7816C12.4408 16.585 11.6698 16.8384 11.1995 17.4268L10.3668 18.4683C10.1255 18.7701 9.67098 18.7695 9.43017 18.4683L8.59747 17.4268C8.23283 16.9707 7.68761 16.7159 7.12424 16.7159C6.96085 16.7159 6.79588 16.7373 6.63334 16.7816L5.35409 17.1293C4.98335 17.2299 4.61616 16.9595 4.59638 16.5727L4.52819 15.2352C4.48967 14.4796 4.01318 13.8165 3.31435 13.546L2.07726 13.0671C1.71884 12.9283 1.57902 12.4912 1.78788 12.1666L2.51028 11.044C2.91838 10.4098 2.91838 9.59016 2.51028 8.95602L1.78788 7.83341C1.57855 7.50818 1.71957 7.07134 2.07729 6.93287L3.31439 6.45396C4.01326 6.18342 4.48971 5.52037 4.52823 4.76479L4.59642 3.4273C4.61616 3.03976 4.98416 2.77023 5.35413 2.8707L6.63338 3.21843C7.35605 3.41496 8.12701 3.1616 8.59743 2.5732L9.43021 1.53161C9.67149 1.22989 10.126 1.23052 10.3668 1.53161L11.1995 2.57324C11.67 3.16164 12.4408 3.415 13.1636 3.21843L14.4428 2.8707C14.8135 2.77004 15.1808 3.04054 15.2006 3.4273L15.2687 4.76479C15.3072 5.52037 15.7837 6.18346 16.4825 6.45396L17.7196 6.93291C18.078 7.07158 18.2178 7.50884 18.009 7.83341L17.2867 8.95598C16.8785 9.59016 16.8785 10.4098 17.2866 11.044L18.009 12.1665C18.2183 12.4919 18.0773 12.9287 17.7196 13.0671Z" fill="#272727"/>
<path d="M13.1238 6.67357C12.8717 6.41869 12.4629 6.41869 12.2108 6.67357L6.18505 12.766C5.93296 13.0208 5.93296 13.4342 6.18509 13.6891C6.31116 13.8165 6.4764 13.8803 6.64161 13.8803C6.80681 13.8803 6.97209 13.8165 7.09812 13.6891L13.1239 7.59665C13.376 7.34181 13.376 6.92849 13.1238 6.67357Z" fill="#272727"/>
<path d="M7.2872 6.48236C6.57519 6.48236 5.99597 7.06802 5.99597 7.78786C5.99597 8.50774 6.57527 9.09336 7.2872 9.09336C7.9992 9.09336 8.57842 8.5077 8.57842 7.78786C8.57846 7.06802 7.9992 6.48236 7.2872 6.48236Z" fill="#272727"/>
<path d="M12.0217 11.2692C11.3097 11.2692 10.7305 11.8549 10.7305 12.5747C10.7305 13.2946 11.3098 13.8802 12.0217 13.8802C12.7337 13.8802 13.313 13.2946 13.313 12.5747C13.313 11.8549 12.7337 11.2692 12.0217 11.2692Z" fill="#272727"/>
</svg>
