<svg width="19" height="18" viewBox="0 0 19 18" fill="none" xmlns="http://www.w3.org/2000/svg">
<path d="M9.66016 18C7.88013 18 6.14007 17.4722 4.66003 16.4832C3.17998 15.4943 2.02643 14.0887 1.34524 12.4442C0.664056 10.7996 0.485826 8.99002 0.833093 7.24419C1.18036 5.49836 2.03753 3.89471 3.2962 2.63604C4.55487 1.37737 6.15852 0.520203 7.90435 0.172936C9.65017 -0.17433 11.4598 0.00389957 13.1043 0.685088C14.7488 1.36628 16.1545 2.51983 17.1434 3.99987C18.1323 5.47991 18.6602 7.21997 18.6602 9C18.6575 11.3861 17.7084 13.6738 16.0212 15.361C14.3339 17.0483 12.0463 17.9973 9.66016 18ZM9.66016 1.25582C8.1285 1.25582 6.63124 1.71001 5.35772 2.56095C4.0842 3.41189 3.0916 4.62137 2.50546 6.03643C1.91933 7.4515 1.76597 9.00859 2.06478 10.5108C2.36359 12.013 3.10115 13.3929 4.18419 14.476C5.26724 15.559 6.64712 16.2966 8.14934 16.5954C9.65157 16.8942 11.2087 16.7408 12.6237 16.1547C14.0388 15.5686 15.2483 14.576 16.0992 13.3024C16.9502 12.0289 17.4043 10.5317 17.4043 9C17.4021 6.9468 16.5855 4.97832 15.1337 3.52648C13.6818 2.07465 11.7134 1.25803 9.66016 1.25582Z" fill="#272727"/>
<path d="M9.66016 10.4651C9.03922 10.4651 8.43222 10.281 7.91593 9.93601C7.39963 9.59103 6.99723 9.10071 6.75961 8.52703C6.52198 7.95336 6.45981 7.3221 6.58095 6.71309C6.70209 6.10408 7.0011 5.54467 7.44017 5.1056C7.87924 4.66653 8.43866 4.36751 9.04767 4.24638C9.65668 4.12524 10.2879 4.18741 10.8616 4.42503C11.4353 4.66266 11.9256 5.06506 12.2706 5.58135C12.6156 6.09765 12.7997 6.70464 12.7997 7.32558C12.7988 8.15797 12.4678 8.95601 11.8792 9.54459C11.2906 10.1332 10.4925 10.4642 9.66016 10.4651ZM9.66016 5.44186C9.28759 5.44186 8.9234 5.55234 8.61362 5.75933C8.30384 5.96631 8.0624 6.26051 7.91983 6.60472C7.77725 6.94892 7.73995 7.32767 7.81263 7.69308C7.88532 8.05849 8.06472 8.39413 8.32817 8.65757C8.59161 8.92102 8.92726 9.10043 9.29266 9.17311C9.65807 9.24579 10.0368 9.20849 10.381 9.06591C10.7252 8.92334 11.0194 8.6819 11.2264 8.37212C11.4334 8.06235 11.5439 7.69815 11.5439 7.32558C11.5434 6.82613 11.3448 6.34725 10.9917 5.99408C10.6385 5.64091 10.1596 5.44231 9.66016 5.44186Z" fill="#272727"/>
<path d="M13.009 13.814C12.8425 13.814 12.6828 13.7478 12.565 13.63C12.4472 13.5123 12.3811 13.3526 12.3811 13.186C12.3811 12.4644 12.0944 11.7723 11.5841 11.2621C11.0739 10.7518 10.3818 10.4651 9.66016 10.4651C8.93852 10.4651 8.24644 10.7518 7.73617 11.2621C7.2259 11.7723 6.93923 12.4644 6.93923 13.186C6.93923 13.3526 6.87307 13.5123 6.75532 13.63C6.63756 13.7478 6.47785 13.814 6.31132 13.814C6.14479 13.814 5.98508 13.7478 5.86732 13.63C5.74957 13.5123 5.68341 13.3526 5.68341 13.186C5.68341 12.1314 6.10239 11.1199 6.84818 10.3741C7.59396 9.62828 8.60546 9.2093 9.66016 9.2093C10.7149 9.2093 11.7264 9.62828 12.4721 10.3741C13.2179 11.1199 13.6369 12.1314 13.6369 13.186C13.6369 13.3526 13.5707 13.5123 13.453 13.63C13.3352 13.7478 13.1755 13.814 13.009 13.814Z" fill="#272727"/>
</svg>
