<svg width="19" height="18" viewBox="0 0 19 18" fill="none" xmlns="http://www.w3.org/2000/svg">
<path d="M9.39844 0C14.3725 0 18.3984 4.02525 18.3984 9C18.3984 10.5786 17.9867 12.1204 17.2049 13.4802L18.3645 17.0813C18.4454 17.3323 18.3789 17.6075 18.1924 17.794C18.0077 17.9787 17.7332 18.0477 17.4797 17.9661L13.8787 16.8065C12.5188 17.5883 10.977 18 9.39844 18C4.42438 18 0.398438 13.9747 0.398438 9C0.398438 4.02594 4.42369 0 9.39844 0ZM9.39844 16.5938C10.8243 16.5938 12.2142 16.1959 13.4179 15.4432C13.5911 15.335 13.8062 15.3057 14.0062 15.3701L16.6057 16.2073L15.7686 13.6078C15.7051 13.4106 15.7319 13.1953 15.8418 13.0195C16.5943 11.8158 16.9922 10.4259 16.9922 9C16.9922 4.81284 13.5856 1.40625 9.39844 1.40625C5.21127 1.40625 1.80469 4.81284 1.80469 9C1.80469 13.1872 5.21127 16.5938 9.39844 16.5938Z" fill="#272727"/>
<path d="M9.39844 14.2999C9.9162 14.2999 10.3359 13.8812 10.3359 13.3648C10.3359 12.8484 9.9162 12.4297 9.39844 12.4297C8.88067 12.4297 8.46094 12.8484 8.46094 13.3648C8.46094 13.8812 8.88067 14.2999 9.39844 14.2999Z" fill="#272727"/>
<path d="M9.39844 4.01416C7.74424 4.01416 6.39844 5.35646 6.39844 7.00637C6.39844 7.41952 6.73421 7.75442 7.14844 7.75442C7.56266 7.75442 7.89844 7.41952 7.89844 7.00637C7.89844 6.18142 8.57134 5.51026 9.39844 5.51026C10.2255 5.51026 10.8984 6.18142 10.8984 7.00637C10.8984 7.83132 10.2255 8.50247 9.39844 8.50247C8.98421 8.50247 8.64844 8.83737 8.64844 9.25052V11.1207C8.64844 11.5338 8.98421 11.8687 9.39844 11.8687C9.81266 11.8687 10.1484 11.5338 10.1484 11.1207V9.90391C11.4409 9.57091 12.3984 8.39808 12.3984 7.00637C12.3984 5.35646 11.0526 4.01416 9.39844 4.01416Z" fill="#272727"/>
</svg>
