<svg width="160" height="55" viewBox="0 0 160 55" fill="none" xmlns="http://www.w3.org/2000/svg">
<path fill-rule="evenodd" clip-rule="evenodd" d="M24.7425 26.3576H31.623V35.9176C29.4759 36.6023 26.7655 36.9753 23.9494 36.9753C12.5287 36.9753 5.81609 27.297 5.81609 17.8485C5.81609 8.57965 11.8874 2.07895 20.354 2.07895C25.7149 2.07895 28.8322 3.87358 31.623 6.37788V9.4963L36.8552 4.3194C33.5471 2.10625 28.754 0 21.9057 0C6.87356 0 0 10.6404 0 19.3884C0 31.8371 9.16322 39.334 20.6805 39.334C26.2644 39.334 31.223 38.4924 36.9517 36.9162V27.0377C36.9517 26.5328 37.177 26.1848 37.5103 25.8823L39.3195 24.0922H27.0483L24.7425 26.3576Z" fill="url(#paint0_linear_589_9)"/>
<path fill-rule="evenodd" clip-rule="evenodd" d="M55.5655 13.3631C46.9126 13.3631 41.5517 19.6204 41.5517 26.2598C41.5517 31.9917 45.8713 38.7972 54.623 38.7972C63.0414 38.7972 68.2069 32.5285 68.2069 25.7708C68.2069 19.4748 63.1586 13.3631 55.5655 13.3631ZM54.131 15.1873C60.2322 15.1873 62.9517 23.0527 62.9517 28.6618C62.9517 37.0026 56.6253 37.1686 55.8713 37.1686C52.9747 37.1686 50.9517 35.4377 49.4391 33.1677C48.1034 31.0751 46.8023 27.1879 46.8023 23.3893C46.8023 19.6067 48.0529 17.7598 50.0253 16.3996C51.6368 15.3806 53.1448 15.1873 54.131 15.1873Z" fill="url(#paint1_linear_589_9)"/>
<path fill-rule="evenodd" clip-rule="evenodd" d="M112.363 13.3608C104.807 13.3608 100.72 18.0942 100.72 23.3802C100.72 27.4062 103.634 31.944 109.644 31.944H111.163C111.163 31.944 110.749 32.9402 110.747 33.9024C110.747 35.3194 111.262 36.1178 112.356 37.3438C102.014 37.967 97.8552 42.0953 97.8552 46.5307C97.8552 50.4157 101.616 54.2392 109.515 54.2392C118.871 54.2392 123.715 49.101 123.715 44.0583C123.715 40.5031 121.924 38.5538 117.391 35.1943C116.057 34.1685 115.8 33.5157 115.8 32.7469C115.8 31.6483 116.464 30.9204 116.708 30.6475C117.136 30.1994 117.88 29.6876 118.159 29.4419C119.68 28.1659 121.832 26.2735 121.832 22.5045C121.832 19.9183 120.745 17.6938 118.267 15.6081H121.292L123.563 13.3608H112.363ZM110.28 15.0417C111.651 15.0417 112.795 15.5239 114.005 16.5179C115.345 17.712 117.487 20.9283 117.487 24.9065C117.487 29.1986 114.117 30.3745 112.294 30.3745C111.4 30.3745 110.331 30.1266 109.423 29.5147C107.411 28.2228 105.416 24.7882 105.416 20.6963C105.416 17.0069 107.637 15.0417 110.28 15.0417ZM113.271 38.9746C113.848 38.9746 114.262 39.0201 114.262 39.0201C114.262 39.0201 115.623 39.9823 116.572 40.6988C118.786 42.432 120.168 43.7535 120.168 46.1099C120.168 49.3512 117.131 51.8919 112.209 51.8919C106.809 51.8919 102.683 49.4035 102.683 45.3411C102.683 41.9771 105.508 39.0793 113.271 38.9746Z" fill="url(#paint2_linear_589_9)"/>
<path fill-rule="evenodd" clip-rule="evenodd" d="M135.218 0.864338H126.37L124.067 3.14345H127.508V35.2648C127.508 35.722 127.361 36.0314 127.048 36.3521L125.145 38.2263H135.522L137.103 36.6614L134.126 36.2929C133.326 36.1974 132.851 35.5127 132.851 34.8486V3.84174C132.851 3.22988 133.136 2.91827 133.347 2.71811L135.218 0.864338Z" fill="url(#paint3_linear_589_9)"/>
<path fill-rule="evenodd" clip-rule="evenodd" d="M149.407 13.3608C143.614 13.3608 137.46 17.7302 137.46 25.5752C137.46 32.0531 141.876 38.7972 150.126 38.7972C152.184 38.7972 153.876 38.5357 155.464 37.8146C157.166 37.039 158.805 35.7789 160 34.1935C157.743 35.3194 155.901 36.0609 153.455 36.0609C148.805 36.0609 144.324 32.7423 142.754 26.642L159.175 20.0753C158.225 16.7294 155.552 13.3608 149.407 13.3608ZM148.336 15.1577C151.444 15.1577 153.69 17.687 153.69 19.6681C153.69 20.3096 153.283 20.6462 152.48 20.9578L142.389 24.9975C142.389 24.9975 142.115 23.7419 142.115 22.3794C142.115 16.6794 146.28 15.1577 148.336 15.1577Z" fill="url(#paint4_linear_589_9)"/>
<path fill-rule="evenodd" clip-rule="evenodd" d="M84.931 13.3631C76.2782 13.3631 70.9149 19.6204 70.9149 26.2598C70.9149 31.9917 75.2345 38.7972 83.9885 38.7972C92.4069 38.7972 97.5701 32.5285 97.5701 25.7708C97.5701 19.4748 92.5241 13.3631 84.931 13.3631ZM83.4966 15.1873C89.5954 15.1873 92.3149 23.0527 92.3149 28.6618C92.3149 37.0026 85.9908 37.1686 85.2345 37.1686C82.3402 37.1686 80.3149 35.4377 78.8023 33.1677C77.469 31.0751 76.1678 27.1879 76.1678 23.3893C76.1678 19.6067 77.4184 17.7598 79.3885 16.3996C81 15.3806 82.508 15.1873 83.4966 15.1873Z" fill="url(#paint5_linear_589_9)"/>
<defs>
<linearGradient id="paint0_linear_589_9" x1="87.8578" y1="-0.141142" x2="87.8578" y2="54.2486" gradientUnits="userSpaceOnUse">
<stop stop-color="#196EEF"/>
<stop offset="0.501961" stop-color="#186DEE"/>
<stop offset="1" stop-color="#1065E7"/>
</linearGradient>
<linearGradient id="paint1_linear_589_9" x1="81.8836" y1="-0.121265" x2="81.8836" y2="54.2732" gradientUnits="userSpaceOnUse">
<stop stop-color="#DE5744"/>
<stop offset="0.501961" stop-color="#DB4632"/>
<stop offset="1" stop-color="#D13D29"/>
</linearGradient>
<linearGradient id="paint2_linear_589_9" x1="86.8913" y1="-0.0724316" x2="86.8913" y2="54.2634" gradientUnits="userSpaceOnUse">
<stop stop-color="#1A6FEF"/>
<stop offset="0.25098" stop-color="#1E72EF"/>
<stop offset="0.501961" stop-color="#166BEC"/>
<stop offset="0.74902" stop-color="#1267E9"/>
<stop offset="1" stop-color="#1063E5"/>
</linearGradient>
<linearGradient id="paint3_linear_589_9" x1="78.9138" y1="-0.122175" x2="78.9138" y2="54.2954" gradientUnits="userSpaceOnUse">
<stop stop-color="#0AA561"/>
<stop offset="0.501961" stop-color="#009B58"/>
<stop offset="1" stop-color="#00914B"/>
</linearGradient>
<linearGradient id="paint4_linear_589_9" x1="84.3325" y1="-0.116404" x2="84.3325" y2="54.1519" gradientUnits="userSpaceOnUse">
<stop stop-color="#DE5644"/>
<stop offset="0.501961" stop-color="#DA4531"/>
<stop offset="1" stop-color="#CE3A28"/>
</linearGradient>
<linearGradient id="paint5_linear_589_9" x1="84.6691" y1="13.3585" x2="84.6691" y2="38.7563" gradientUnits="userSpaceOnUse">
<stop stop-color="#FFC01A"/>
<stop offset="0.501961" stop-color="#FFBA03"/>
<stop offset="1" stop-color="#FFB300"/>
</linearGradient>
</defs>
</svg>
