<svg viewBox="0 0 129 50" fill="none" xmlns="http://www.w3.org/2000/svg">
<path fill-rule="evenodd" clip-rule="evenodd" d="M3.67206 34.9137C3.32716 35.6489 2.31901 35.6603 2.00444 34.9137C-0.686491 28.5199 -0.773662 21.027 2.38723 14.2617C8.21632 1.79628 22.8724 -3.50599 35.1029 2.4368C47.3296 8.37579 52.5257 23.3199 46.7004 35.7854C43.6494 42.3118 38.1766 46.8788 31.9003 48.8913C31.1233 49.1415 30.479 48.3266 30.8277 47.58L33.2268 42.4483C33.4921 41.8684 33.2041 41.3567 32.6128 41.3567C32.0216 41.353 31.3469 41.8532 31.0741 42.4445L27.8412 49.3613C27.6971 49.6645 27.4129 49.873 27.0869 49.9109C26.742 49.945 26.4009 49.9753 26.056 49.998C25.3435 50.0435 24.8736 49.2893 25.1805 48.6336L31.8965 34.2694C32.158 33.6895 31.8738 33.1778 31.2825 33.1778C30.6875 33.1778 30.0166 33.6743 29.7438 34.2656L22.6943 49.3348C22.5199 49.71 22.1371 49.9336 21.7354 49.8843C21.4284 49.8502 21.1252 49.8085 20.822 49.7593C20.1966 49.6645 19.8631 48.9785 20.136 48.3949L30.7898 25.6091C31.0551 25.0255 30.7671 24.5176 30.1758 24.5176C29.5846 24.5176 28.91 25.0141 28.6371 25.6053L18.025 48.2849C17.8203 48.7246 17.3352 48.9482 16.8804 48.7966C16.6037 48.7018 16.3308 48.6071 16.0541 48.501C15.5349 48.3077 15.3075 47.6937 15.5463 47.1858L30.6534 14.8719C30.9187 14.2921 30.6306 13.7804 30.0394 13.7804C29.4481 13.7804 28.7735 14.2769 28.5044 14.8681L13.7687 46.3672C13.5338 46.8713 12.9349 47.0759 12.4574 46.803C12.2034 46.6552 11.9533 46.5074 11.7069 46.352C11.2938 46.0943 11.1498 45.5599 11.3583 45.1127L23.2287 19.7308C23.494 19.1471 23.2059 18.6392 22.6185 18.6354C22.0272 18.6354 21.3526 19.1357 21.0797 19.727L9.91047 43.5967C9.64517 44.169 8.92506 44.3395 8.45509 43.9264C8.22769 43.7217 8.00408 43.5171 7.78425 43.3086C7.48105 43.0206 7.40146 42.5658 7.57959 42.183L12.2262 32.2493C12.4915 31.6694 12.2034 31.1577 11.6122 31.1577C11.0247 31.154 10.3463 31.6542 10.0772 32.2455L6.50701 39.871C6.20381 40.5191 5.34726 40.6329 4.92277 40.0568C4.7219 39.7801 4.52482 39.4996 4.33153 39.2192C4.14202 38.9311 4.11928 38.5635 4.2633 38.2527L10.407 25.1126C10.6723 24.5327 10.3842 24.0249 9.79298 24.0211C9.20173 24.0211 8.5271 24.5176 8.25801 25.1088L3.67206 34.9137ZM113.924 36.3891C113.924 36.6848 113.78 36.8023 113.326 36.8023C113.276 36.8023 113.064 36.7985 113.019 36.7909V35.9609C113.068 35.9571 113.295 35.9495 113.356 35.9495C113.72 35.9495 113.924 36.0708 113.924 36.3361V36.3891ZM114.773 38.5229C114.773 38.5116 114.766 38.4926 114.758 38.4775L114.103 37.2571C114.421 37.132 114.663 36.8477 114.663 36.3891V36.3361C114.663 35.5667 114.095 35.3204 113.356 35.3204C113.041 35.3204 112.674 35.3469 112.473 35.3772C112.336 35.3999 112.28 35.4378 112.28 35.5857V38.4888C112.28 38.5381 112.317 38.576 112.363 38.576H112.931C112.977 38.576 113.019 38.5381 113.019 38.4888V37.3897C113.098 37.3897 113.235 37.3973 113.326 37.3973L113.371 37.3935L113.955 38.4888C113.977 38.5343 113.993 38.576 114.042 38.576H114.705C114.754 38.576 114.773 38.5533 114.773 38.5229ZM111.73 38.4699V38.0643C111.73 38.0189 111.692 37.9772 111.643 37.9772H110.76C110.555 37.9772 110.483 37.909 110.483 37.6853V37.2267H111.609C111.658 37.2267 111.696 37.185 111.696 37.1396V36.7265C111.696 36.681 111.658 36.6431 111.609 36.6431H110.483V36.2489C110.483 36.0215 110.555 35.9533 110.76 35.9533H111.643C111.692 35.9533 111.73 35.9154 111.73 35.8661V35.4644C111.73 35.4075 111.703 35.3848 111.643 35.3772C111.491 35.3545 111.275 35.3204 110.805 35.3204C110.244 35.3204 109.744 35.4606 109.744 36.2489V37.6853C109.744 38.4737 110.24 38.6139 110.801 38.6139C111.271 38.6139 111.491 38.5798 111.643 38.557C111.703 38.5495 111.73 38.5229 111.73 38.4699ZM109.445 35.8889V35.4416C109.445 35.3962 109.399 35.3582 109.354 35.3582H107.197C107.152 35.3582 107.11 35.3962 107.11 35.4416V35.8889C107.11 35.9343 107.152 35.9722 107.197 35.9722H107.906V38.4888C107.906 38.5381 107.944 38.576 107.993 38.576H108.561C108.611 38.576 108.649 38.5381 108.649 38.4888V35.9722H109.354C109.399 35.9722 109.445 35.9343 109.445 35.8889ZM106.81 38.413V35.4416C106.81 35.3962 106.773 35.3582 106.723 35.3582H106.212C106.162 35.3582 106.124 35.3962 106.124 35.4416V37.2722C106.124 37.3025 106.109 37.3139 106.102 37.3139C106.087 37.3139 106.083 37.3025 106.068 37.276L105.041 35.4947C104.984 35.4037 104.942 35.3582 104.855 35.3582H104.415C104.324 35.3582 104.252 35.4341 104.252 35.525V38.4888C104.252 38.5381 104.29 38.576 104.339 38.576H104.851C104.9 38.576 104.938 38.5381 104.938 38.4888V36.7378C104.938 36.7113 104.946 36.7037 104.961 36.7037C104.972 36.7037 104.98 36.7113 104.999 36.7378L105.988 38.4433C106.06 38.557 106.124 38.576 106.215 38.576H106.64C106.731 38.576 106.81 38.504 106.81 38.413ZM103.703 38.4699V38.0643C103.703 38.0189 103.665 37.9772 103.615 37.9772H102.736C102.532 37.9772 102.456 37.909 102.456 37.6853V37.2267H103.581C103.631 37.2267 103.669 37.185 103.669 37.1396V36.7265C103.669 36.681 103.631 36.6431 103.581 36.6431H102.456V36.2489C102.456 36.0215 102.532 35.9533 102.736 35.9533H103.615C103.665 35.9533 103.703 35.9154 103.703 35.8661V35.4644C103.703 35.4075 103.676 35.3848 103.615 35.3772C103.464 35.3545 103.248 35.3204 102.778 35.3204C102.217 35.3204 101.717 35.4606 101.717 36.2489V37.6853C101.717 38.4737 102.213 38.6139 102.774 38.6139C103.244 38.6139 103.464 38.5798 103.615 38.557C103.676 38.5495 103.703 38.5229 103.703 38.4699ZM101.25 38.4433V38.0227C101.25 37.9696 101.224 37.9355 101.167 37.9355H101.152C100.989 37.9469 100.75 37.9696 100.511 37.9696C100.212 37.9696 99.9695 37.8142 99.9695 37.2381V36.6923C99.9695 36.1163 100.212 35.9609 100.511 35.9609C100.75 35.9609 100.989 35.9836 101.152 35.9988H101.167C101.224 35.9988 101.25 35.9609 101.25 35.9116V35.4909C101.25 35.4303 101.213 35.4113 101.152 35.3962C101.061 35.3658 100.811 35.3204 100.504 35.3204C99.8444 35.3204 99.219 35.6615 99.219 36.6923V37.2381C99.219 38.269 99.8444 38.6139 100.504 38.6139C100.811 38.6139 101.061 38.5722 101.152 38.5419C101.213 38.5229 101.25 38.504 101.25 38.4433ZM96.729 37.1964H96.0809L96.3462 35.9988C96.3576 35.9571 96.3689 35.9343 96.4068 35.9343C96.4485 35.9343 96.4561 35.9571 96.4637 35.9988L96.729 37.1964ZM97.7788 38.5078C97.7788 38.504 97.7712 38.4964 97.7712 38.485L97.1269 35.8017C97.0246 35.3848 96.71 35.3204 96.4068 35.3204C96.1074 35.3204 95.7853 35.3848 95.6867 35.8017L95.0386 38.485C95.0386 38.4964 95.0348 38.504 95.0348 38.5078C95.0348 38.5495 95.0651 38.576 95.1106 38.576H95.717C95.7587 38.576 95.7928 38.5419 95.8042 38.4964L95.9596 37.7877H96.8503L97.0057 38.4964C97.017 38.5419 97.0511 38.576 97.0966 38.576H97.703C97.7447 38.576 97.7788 38.5495 97.7788 38.5078ZM94.6482 38.5154V35.5136C94.6482 35.4227 94.5838 35.3582 94.4929 35.3582H94.0835C93.9926 35.3582 93.9319 35.4037 93.894 35.4757L93.227 36.7113C93.208 36.7454 93.1967 36.7681 93.1815 36.7681C93.1625 36.7681 93.1474 36.7454 93.1322 36.7113L92.469 35.4757C92.4273 35.4037 92.3666 35.3582 92.2757 35.3582H91.8664C91.7754 35.3582 91.711 35.4189 91.711 35.5061V38.5154C91.711 38.5646 91.7489 38.576 91.7868 38.576H92.3591C92.397 38.576 92.4273 38.5381 92.4273 38.4888V36.6848C92.4273 36.6544 92.4424 36.6507 92.45 36.6507C92.4614 36.6507 92.4728 36.6582 92.4841 36.681L92.8745 37.3935C92.9048 37.4466 92.9503 37.4693 93.0072 37.4693H93.3521C93.4089 37.4693 93.4544 37.4466 93.4847 37.3935L93.8751 36.681C93.8864 36.6582 93.8978 36.6507 93.9092 36.6507C93.9168 36.6507 93.9319 36.6544 93.9319 36.6848V38.4888C93.9319 38.5381 93.9622 38.576 94.0002 38.576H94.5724C94.6103 38.576 94.6482 38.5646 94.6482 38.5154ZM91.1159 37.367V35.4416C91.1159 35.3962 91.0704 35.3582 91.025 35.3582H90.4602C90.411 35.3582 90.3731 35.3962 90.3731 35.4416V37.367C90.3731 37.8104 90.2518 37.9961 89.8576 37.9961C89.4673 37.9961 89.3498 37.8104 89.3498 37.367V35.4416C89.3498 35.3962 89.3119 35.3582 89.2664 35.3582H88.6941C88.6486 35.3582 88.6069 35.3962 88.6069 35.4416V37.367C88.6069 38.3562 89.1678 38.6139 89.8576 38.6139C90.5512 38.6139 91.1159 38.3562 91.1159 37.367ZM87.2728 37.1964H86.6285L86.8938 35.9988C86.9014 35.9571 86.9128 35.9343 86.9545 35.9343C86.9924 35.9343 86.9999 35.9571 87.0113 35.9988L87.2728 37.1964ZM88.3227 38.5078C88.3227 38.504 88.3189 38.4964 88.3189 38.485L87.6708 35.8017C87.5684 35.3848 87.2539 35.3204 86.9545 35.3204C86.6513 35.3204 86.3329 35.3848 86.2306 35.8017L85.5825 38.485C85.5825 38.4964 85.5787 38.504 85.5787 38.5078C85.5787 38.5495 85.609 38.576 85.6545 38.576H86.2609C86.3064 38.576 86.3405 38.5419 86.3481 38.4964L86.5034 37.7877H87.3979L87.5533 38.4964C87.5609 38.5419 87.595 38.576 87.6405 38.576H88.2469C88.2886 38.576 88.3227 38.5495 88.3227 38.5078ZM84.4947 36.3891C84.4947 36.6848 84.3507 36.8023 83.8959 36.8023C83.8466 36.8023 83.6344 36.7985 83.5851 36.7909V35.9609C83.6382 35.9571 83.8618 35.9495 83.9224 35.9495C84.2901 35.9495 84.4947 36.0708 84.4947 36.3361V36.3891ZM85.3399 38.5229C85.3399 38.5116 85.3361 38.4926 85.3285 38.4775L84.6691 37.2571C84.9874 37.132 85.2338 36.8477 85.2338 36.3891V36.3361C85.2338 35.5667 84.6615 35.3204 83.9224 35.3204C83.6116 35.3204 83.2402 35.3469 83.0431 35.3772C82.9067 35.3999 82.8461 35.4378 82.8461 35.5857V38.4888C82.8461 38.5381 82.884 38.576 82.9332 38.576H83.4979C83.5472 38.576 83.5851 38.5381 83.5851 38.4888V37.3897C83.6685 37.3897 83.8011 37.3973 83.8959 37.3973L83.9414 37.3935L84.525 38.4888C84.544 38.5343 84.5629 38.576 84.6084 38.576H85.2755C85.3247 38.576 85.3399 38.5533 85.3399 38.5229ZM82.4329 35.8889V35.4416C82.4329 35.3962 82.3875 35.3582 82.342 35.3582H80.1854C80.14 35.3582 80.0983 35.3962 80.0983 35.4416V35.8889C80.0983 35.9343 80.14 35.9722 80.1854 35.9722H80.8942V38.4888C80.8942 38.5381 80.9359 38.576 80.9814 38.576H81.5499C81.5991 38.576 81.637 38.5381 81.637 38.4888V35.9722H82.342C82.3875 35.9722 82.4329 35.9343 82.4329 35.8889ZM78.7642 38.4699V38.0643C78.7642 38.0189 78.7263 37.9772 78.677 37.9772H77.9304C77.7257 37.9772 77.6537 37.909 77.6537 37.6853V35.4454C77.6537 35.3999 77.6158 35.3582 77.5665 35.3582H76.998C76.9487 35.3582 76.9108 35.3999 76.9108 35.4454V37.6853C76.9108 38.4737 77.4111 38.6139 77.9683 38.6139C78.1995 38.6139 78.533 38.5912 78.677 38.557C78.7414 38.5457 78.7642 38.5229 78.7642 38.4699ZM75.5654 37.1964H74.9173L75.1826 35.9988C75.1902 35.9571 75.2015 35.9343 75.2432 35.9343C75.2811 35.9343 75.2925 35.9571 75.3001 35.9988L75.5654 37.1964ZM76.6114 38.5078C76.6114 38.504 76.6076 38.4964 76.6076 38.485L75.9595 35.8017C75.8572 35.3848 75.5426 35.3204 75.2432 35.3204C74.94 35.3204 74.6217 35.3848 74.5193 35.8017L73.8712 38.485C73.8712 38.4964 73.8674 38.504 73.8674 38.5078C73.8674 38.5495 73.8978 38.576 73.9432 38.576H74.5534C74.5951 38.576 74.6292 38.5419 74.6368 38.4964L74.7922 37.7877H75.6867L75.8421 38.4964C75.8496 38.5419 75.8837 38.576 75.9292 38.576H76.5356C76.5811 38.576 76.6114 38.5495 76.6114 38.5078ZM73.9811 35.8889V35.4416C73.9811 35.3962 73.9395 35.3582 73.8902 35.3582H71.7337C71.6882 35.3582 71.6465 35.3962 71.6465 35.4416V35.8889C71.6465 35.9343 71.6882 35.9722 71.7337 35.9722H72.4424V38.4888C72.4424 38.5381 72.4841 38.576 72.5296 38.576H73.0981C73.1473 38.576 73.189 38.5381 73.189 38.4888V35.9722H73.8902C73.9395 35.9722 73.9811 35.9343 73.9811 35.8889ZM71.3471 38.413V35.4416C71.3471 35.3962 71.3092 35.3582 71.2599 35.3582H70.7482C70.699 35.3582 70.6611 35.3962 70.6611 35.4416V37.2722C70.6611 37.3025 70.6497 37.3139 70.6383 37.3139C70.627 37.3139 70.6232 37.3025 70.6042 37.276L69.5771 35.4947C69.524 35.4037 69.4786 35.3582 69.3952 35.3582H68.9555C68.8608 35.3582 68.7888 35.4341 68.7888 35.525V38.4888C68.7888 38.5381 68.8267 38.576 68.876 38.576H69.3876C69.4369 38.576 69.4748 38.5381 69.4748 38.4888V36.7378C69.4748 36.7113 69.4824 36.7037 69.4975 36.7037C69.5127 36.7037 69.5203 36.7113 69.5354 36.7378L70.5284 38.4433C70.5966 38.557 70.6611 38.576 70.752 38.576H71.1803C71.2713 38.576 71.3471 38.504 71.3471 38.413ZM68.2392 38.4699V38.0643C68.2392 38.0189 68.2013 37.9772 68.1558 37.9772H67.2728C67.0681 37.9772 66.9961 37.909 66.9961 37.6853V37.2267H68.1179C68.1672 37.2267 68.2089 37.185 68.2089 37.1396V36.7265C68.2089 36.681 68.1672 36.6431 68.1179 36.6431H66.9961V36.2489C66.9961 36.0215 67.0681 35.9533 67.2728 35.9533H68.1558C68.2013 35.9533 68.2392 35.9154 68.2392 35.8661V35.4644C68.2392 35.4075 68.2165 35.3848 68.1558 35.3772C68.0005 35.3545 67.7844 35.3204 67.3145 35.3204C66.7535 35.3204 66.257 35.4606 66.257 36.2489V37.6853C66.257 38.4737 66.7497 38.6139 67.3107 38.6139C67.7806 38.6139 68.0005 38.5798 68.1558 38.557C68.2165 38.5495 68.2392 38.5229 68.2392 38.4699ZM64.9987 37.2457C64.9987 37.8331 64.7486 37.9885 64.3582 37.9885C64.2483 37.9885 64.1081 37.9848 64.0474 37.9772V35.9571C64.1081 35.9533 64.2483 35.9495 64.3582 35.9495C64.7486 35.9495 64.9987 36.1049 64.9987 36.6886V37.2457ZM65.7416 37.2457V36.6886C65.7416 35.7752 65.2224 35.3204 64.3582 35.3204C63.9982 35.3204 63.6116 35.3545 63.4297 35.3848C63.3463 35.3999 63.3046 35.4378 63.3046 35.5364V38.3979C63.3046 38.4964 63.3463 38.5381 63.4297 38.5495C63.6116 38.5798 63.9982 38.6139 64.3582 38.6139C65.2224 38.6139 65.7416 38.1591 65.7416 37.2457ZM85.4119 18.4812C85.4119 17.5071 85.211 16.8287 84.8093 16.4459C84.4076 16.0631 83.93 15.8699 83.3804 15.8699C82.8044 15.8699 82.323 16.0745 81.9326 16.48C81.5423 16.8856 81.349 17.3669 81.349 17.9241V24.3974C82.1297 24.0033 82.7665 23.6091 83.2592 23.215C83.7519 22.8208 84.1612 22.4153 84.4796 21.9984C84.8472 21.4867 85.0936 20.9523 85.2224 20.3952C85.3475 19.838 85.4119 19.2013 85.4119 18.4812ZM87.9929 28.5741C87.9929 29.2487 87.8716 29.8816 87.6329 30.4729C87.3903 31.0641 87.0568 31.5796 86.6361 32.0192C86.2078 32.4589 85.7113 32.8075 85.1352 33.0653C84.5629 33.3192 83.9414 33.4481 83.2743 33.4481C82.6111 33.4481 81.9895 33.3192 81.4172 33.0653C80.8411 32.8075 80.3446 32.4589 79.9201 32.0192C79.4957 31.5796 79.1621 31.0641 78.9196 30.4729C78.6808 29.8816 78.5595 29.2487 78.5595 28.5741V17.9241C78.5595 17.2494 78.6846 16.6203 78.9385 16.029C79.1887 15.434 79.5336 14.9185 79.9694 14.4789C80.4053 14.0393 80.9169 13.6906 81.5044 13.4329C82.088 13.1789 82.7134 13.0501 83.3804 13.0501C84.0437 13.0501 84.6691 13.1713 85.2565 13.4177C85.8402 13.6603 86.3518 14.0089 86.7877 14.46C87.2235 14.9148 87.5685 15.4643 87.8224 16.1124C88.0763 16.7643 88.2014 17.5071 88.2014 18.341C88.2014 19.5727 88.0839 20.6112 87.8565 21.4564C87.6253 22.3053 87.269 23.0634 86.7877 23.7342C86.2381 24.4808 85.5218 25.1479 84.6349 25.7391C83.7519 26.3304 82.6565 26.9633 81.349 27.6341V28.5741C81.349 29.1539 81.5233 29.6429 81.8834 30.037C82.2359 30.4312 82.702 30.6283 83.2743 30.6283C83.8277 30.6283 84.2863 30.4312 84.6539 30.037C85.0215 29.6429 85.2035 29.1539 85.2035 28.5741C85.2035 28.3884 85.321 28.2216 85.4953 28.161L86.8256 27.7137C87.4017 27.5204 87.9929 27.9563 87.9929 28.5741ZM72.3249 15.8699C71.7526 15.8699 71.2713 16.0745 70.8809 16.48C70.4905 16.8856 70.2934 17.3669 70.2934 17.9241V28.5741C70.2934 29.1539 70.4905 29.6429 70.8809 30.037C71.2713 30.4312 71.7526 30.6283 72.3249 30.6283C72.8782 30.6283 73.352 30.4312 73.7537 30.037C74.1593 29.6429 74.3601 29.1539 74.3601 28.5741C74.3601 28.3884 74.4776 28.2216 74.6482 28.161L75.9785 27.7137C76.5546 27.5204 77.1496 27.9563 77.1496 28.5741C77.1496 29.2487 77.0208 29.8816 76.7668 30.4729C76.5167 31.0641 76.1718 31.5796 75.7359 32.0192C75.3001 32.4589 74.7884 32.8075 74.201 33.0653C73.6173 33.3192 72.9919 33.4481 72.3249 33.4481C71.6616 33.4481 71.0363 33.3192 70.4488 33.0653C69.8652 32.8075 69.3535 32.4589 68.9176 32.0192C68.4818 31.5796 68.1369 31.0641 67.883 30.4729C67.6328 29.8816 67.504 29.2487 67.504 28.5741V17.9241C67.504 17.1585 67.6328 16.4725 67.883 15.8699C68.1369 15.2672 68.4818 14.7556 68.9176 14.3387C69.3535 13.9218 69.8652 13.6034 70.4488 13.3836C71.0363 13.16 71.6616 13.0501 72.3249 13.0501C72.9919 13.0501 73.6173 13.1676 74.201 13.3987C74.7884 13.6299 75.3001 13.9559 75.7359 14.3766C76.1718 14.7935 76.5167 15.3013 76.7668 15.904C77.0208 16.5104 77.1496 17.1812 77.1496 17.9241C77.1496 18.3864 76.782 18.7579 76.3272 18.7579H75.1788C74.724 18.7579 74.3601 18.3864 74.3601 17.9241C74.3601 17.3669 74.1593 16.8856 73.7537 16.48C73.352 16.0745 72.8782 15.8699 72.3249 15.8699ZM63.3046 32.5498C63.3046 33.0918 63.7367 33.5315 64.2673 33.5315H65.1314C65.662 33.5315 66.0941 33.0918 66.0941 32.5498V8.95302C66.0941 8.41105 65.662 7.9714 65.1314 7.9714H64.2673C63.7367 7.9714 63.3046 8.41105 63.3046 8.95302V32.5498ZM125.522 23.594V18.0264C125.522 17.4465 125.321 16.9576 124.919 16.5634C124.514 16.1693 124.04 15.9722 123.49 15.9722C122.914 15.9722 122.433 16.1693 122.043 16.5634C121.652 16.9576 121.459 17.4465 121.459 18.0264V23.594C121.459 24.1738 121.652 24.6628 122.043 25.0569C122.433 25.4511 122.914 25.6482 123.49 25.6482C124.04 25.6482 124.514 25.4511 124.919 25.0569C125.321 24.6628 125.522 24.1738 125.522 23.594ZM128.311 15.9381V23.594C128.311 24.9167 127.959 25.9855 127.262 26.7965C126.56 27.6076 125.42 28.0852 123.832 28.2254C123.1 28.2936 122.623 28.4604 122.403 28.7295C122.187 28.9948 122.077 29.279 122.077 29.5822C122.077 29.7679 122.149 29.9802 122.285 30.2265C122.422 30.4691 122.653 30.6131 122.971 30.6586H127.542C128.243 30.6586 128.709 31.3939 128.421 32.0458L128.023 32.9402C127.868 33.2927 127.519 33.5201 127.14 33.5201L122.217 33.4784C120.837 33.467 120.151 33.8612 120.151 34.6268C120.151 35.3924 120.837 35.7752 122.217 35.7752H125.067C125.799 35.7752 126.261 36.5749 125.909 37.2305L125.45 38.0871C125.279 38.3979 125.116 38.5949 124.768 38.5949H122.376C120.974 38.5949 119.663 38.2349 118.753 37.5148C117.847 36.7985 117.396 35.8472 117.396 34.6609C117.396 33.7323 117.688 32.9326 118.272 32.2618C118.859 31.5872 119.632 31.1248 120.599 30.8671C120.273 30.7533 120.042 30.5676 119.89 30.3099C119.742 30.056 119.666 29.7793 119.666 29.4761C119.666 29.154 119.791 28.8394 120.045 28.5362C120.299 28.2368 120.69 28.0245 121.216 27.9108C119.518 27.005 118.67 25.5686 118.67 23.594V18.0264C118.67 17.3518 118.779 16.7188 118.995 16.1276C119.215 15.5363 119.519 15.0209 119.909 14.5812C120.299 14.1416 120.781 13.7929 121.353 13.5352C121.929 13.2813 122.569 13.1524 123.282 13.1524C124.017 13.1524 124.635 13.2282 125.143 13.3798C125.647 13.5314 126.015 13.6754 126.242 13.8156H127.898C128.664 13.8156 129.122 14.6836 128.702 15.3355L128.311 15.9381ZM116.816 13.0652C117.207 13.0652 117.536 13.1183 117.813 13.2244C117.855 13.2396 117.9 13.2585 117.938 13.2737C118.291 13.4291 118.378 13.8611 118.237 14.225L117.771 15.4302C117.631 15.7978 117.203 15.885 116.816 15.885C116.24 15.885 115.759 16.0897 115.368 16.4952C114.978 16.9007 114.785 17.3821 114.785 17.9392V32.5347C114.785 33.0766 114.353 33.5163 113.822 33.5163H112.958C112.424 33.5163 111.995 33.0766 111.995 32.5347V14.2212C111.995 13.6792 112.424 13.2434 112.958 13.2434H113.269C113.629 13.2434 113.959 13.4442 114.125 13.7702L114.474 14.46C114.633 14.134 114.91 13.8232 115.3 13.52C115.691 13.2168 116.195 13.0652 116.816 13.0652ZM107.792 18.5191C107.792 17.545 107.591 16.8628 107.189 16.4838C106.788 16.0973 106.314 15.9078 105.761 15.9078C105.188 15.9078 104.707 16.1086 104.317 16.5142C103.922 16.9235 103.729 17.4048 103.729 17.962V24.4353C104.51 24.0412 105.147 23.6432 105.643 23.2529C106.136 22.8549 106.541 22.4494 106.864 22.0325C107.231 21.5208 107.478 20.9902 107.603 20.4331C107.728 19.8759 107.792 19.2354 107.792 18.5191ZM110.377 28.612C110.377 29.2828 110.256 29.9157 110.013 30.507C109.774 31.0982 109.441 31.6175 109.016 32.0571C108.592 32.4968 108.092 32.8455 107.519 33.0994C106.943 33.3571 106.325 33.4822 105.658 33.4822C104.991 33.4822 104.373 33.3571 103.797 33.0994C103.225 32.8455 102.725 32.4968 102.3 32.0571C101.876 31.6175 101.542 31.0982 101.304 30.507C101.061 29.9157 100.94 29.2828 100.94 28.612V17.962C100.94 17.2873 101.069 16.6544 101.319 16.0631C101.573 15.4719 101.918 14.9565 102.353 14.5168C102.789 14.0734 103.301 13.7247 103.885 13.4708C104.468 13.213 105.097 13.088 105.761 13.088C106.428 13.088 107.053 13.2092 107.637 13.4518C108.224 13.6982 108.736 14.0468 109.172 14.4979C109.608 14.9489 109.952 15.5022 110.203 16.1503C110.456 16.8022 110.582 17.545 110.582 18.3789C110.582 19.6068 110.468 20.6453 110.237 21.4943C110.009 22.3395 109.653 23.1013 109.172 23.7721C108.618 24.5149 107.902 25.182 107.019 25.7732C106.136 26.3645 105.041 26.9974 103.729 27.672V28.612C103.729 29.1919 103.907 29.677 104.264 30.0711C104.62 30.4653 105.086 30.6662 105.658 30.6662C106.208 30.6662 106.67 30.4653 107.034 30.0711C107.402 29.677 107.587 29.1919 107.587 28.612C107.587 28.4225 107.701 28.2557 107.879 28.1989L109.21 27.7516C109.786 27.5583 110.377 27.9942 110.377 28.612ZM94.5687 16.2868C93.9964 16.2868 93.4923 16.4876 93.0564 16.8932C92.6206 17.3025 92.4007 17.7838 92.4007 18.3372V28.6764C92.4007 29.2563 92.6206 29.7414 93.0564 30.1394C93.4923 30.5335 93.9964 30.7306 94.5687 30.7306C95.122 30.7306 95.6185 30.5335 96.0657 30.1394C96.5167 29.7414 96.7403 29.2563 96.7403 28.6764V18.3372C96.7403 17.7838 96.5167 17.3025 96.0657 16.8932C95.6185 16.4876 95.122 16.2868 94.5687 16.2868ZM99.5298 28.6764C99.5298 29.3472 99.4123 29.9802 99.1849 30.5714C98.9537 31.1627 98.6392 31.6781 98.2374 32.1216C97.8357 32.5612 97.3581 32.9099 96.8086 33.1638C96.259 33.4215 95.6488 33.5504 94.9856 33.5504C94.2465 33.5504 93.6287 33.4329 93.1246 33.2017C92.6206 32.9705 92.2757 32.7242 92.09 32.4702L91.7564 32.9743C91.5783 33.2472 91.2789 33.4102 90.9605 33.4102H90.5739C90.0433 33.4102 89.6113 32.9705 89.6113 32.4285V8.99092C89.6113 8.56644 89.8766 8.19123 90.2707 8.05857L91.1349 7.76674C91.7602 7.55829 92.4007 8.03204 92.4007 8.69909V14.441C92.5182 14.1871 92.8139 13.9597 93.2952 13.7626C93.7765 13.5655 94.3299 13.467 94.9477 13.467C95.6147 13.467 96.2287 13.5958 96.7896 13.8498C97.3543 14.1037 97.8357 14.4524 98.2374 14.892C98.6392 15.3317 98.9537 15.8509 99.1849 16.4421C99.4123 17.0334 99.5298 17.6663 99.5298 18.3372V28.6764Z" fill="white"/>
</svg>
