<svg viewBox="0 0 31 38" fill="none" xmlns="http://www.w3.org/2000/svg">
<path d="M26.4603 4.67692C23.5337 1.66182 19.6403 0 15.5 0C11.3597 0 7.46627 1.66182 4.53966 4.67692C1.61305 7.69202 0 11.7031 0 15.9687C0 19.6983 1.27678 23.3251 3.58864 26.1886C4.18237 26.914 4.83915 27.596 5.54322 28.2023L14.7329 37.6752C14.9483 37.8917 15.2215 38 15.5 38C15.7785 38 16.0517 37.8917 16.2671 37.6752L25.4568 28.2023C26.1608 27.596 26.8176 26.914 27.4061 26.1886C29.7232 23.3251 31 19.6983 31 15.9687C31 11.7031 29.3869 7.69202 26.4603 4.67692ZM15.5 25.9179C10.3666 25.9179 6.21051 21.6308 6.21051 16.3422C6.21051 11.059 10.3666 6.7718 15.5 6.7718C20.6334 6.7718 24.7895 11.059 24.7895 16.3422C24.7895 21.6308 20.6334 25.9179 15.5 25.9179Z" fill="#409AF8"/>
</svg>
