<svg width="30" height="20" viewBox="0 0 30 20" fill="none" xmlns="http://www.w3.org/2000/svg">
<path d="M30 20.0001H0L2.38419e-07 0L29.9999 6.92457e-05L30 20.0001Z" fill="#41479B"/>
<path d="M29.9999 3.68438H0V16.3158H29.9999V3.68438Z" fill="#F5F5F5"/>
<path d="M17.6876 10.0001L19.0313 7.63187H16.3439L15 5.26328L13.6561 7.63187H10.9687L12.3124 10.0001L10.9687 12.3683H13.6561L15 14.7369L16.3439 12.3683H19.0313L17.6876 10.0001ZM17.713 8.40641L17.2481 9.22561L16.7833 8.40641H17.713ZM16.8087 10.0001L15.9044 11.5938H14.0955L13.1912 10.0001L14.0955 8.40641H15.9045L16.8087 10.0001ZM15 6.81237L15.465 7.63193H14.535L15 6.81237ZM12.287 8.40641H13.2166L12.7517 9.22561L12.287 8.40641ZM12.287 11.5938L12.7518 10.7746L13.2166 11.5938H12.287ZM15 13.1878L14.535 12.3683H15.465L15 13.1878ZM17.2481 10.7746L17.713 11.5938H16.7834L17.2481 10.7746Z" fill="#41479B"/>
</svg>
