<svg width="130" height="50" viewBox="0 0 130 50" fill="none" xmlns="http://www.w3.org/2000/svg">
<path fill-rule="evenodd" clip-rule="evenodd" d="M3.69154 34.9137C3.34482 35.6489 2.33132 35.6603 2.01508 34.9137C-0.690134 28.5199 -0.777768 21.027 2.3999 14.2617C8.25992 1.79628 22.9938 -3.50599 35.2892 2.4368C47.5807 8.37579 52.8044 23.3199 46.9482 35.7854C43.8811 42.3118 38.3792 46.8788 32.0696 48.8913C31.2885 49.1415 30.6408 48.3266 30.9913 47.58L33.4031 42.4483C33.6698 41.8684 33.3803 41.3567 32.7859 41.3567C32.1915 41.353 31.5133 41.8532 31.239 42.4445L27.9889 49.3613C27.8441 49.6645 27.5583 49.873 27.2307 49.9109C26.884 49.945 26.541 49.9753 26.1943 49.998C25.478 50.0435 25.0055 49.2893 25.3142 48.6336L32.0658 34.2694C32.3287 33.6895 32.0429 33.1778 31.4485 33.1778C30.8503 33.1778 30.1759 33.6743 29.9016 34.2656L22.8147 49.3348C22.6394 49.71 22.2546 49.9336 21.8507 49.8843C21.5421 49.8502 21.2373 49.8085 20.9325 49.7593C20.3038 49.6645 19.9685 48.9785 20.2429 48.3949L30.9532 25.6091C31.2199 25.0255 30.9303 24.5176 30.336 24.5176C29.7416 24.5176 29.0634 25.0141 28.789 25.6053L18.1206 48.2849C17.9149 48.7246 17.4272 48.9482 16.9699 48.7966C16.6918 48.7018 16.4175 48.6071 16.1393 48.501C15.6173 48.3077 15.3887 47.6937 15.6288 47.1858L30.816 14.8719C31.0827 14.2921 30.7932 13.7804 30.1988 13.7804C29.6044 13.7804 28.9262 14.2769 28.6557 14.8681L13.8418 46.3672C13.6056 46.8713 13.0036 47.0759 12.5235 46.803C12.2682 46.6552 12.0167 46.5074 11.7691 46.352C11.3538 46.0943 11.209 45.5599 11.4185 45.1127L23.3519 19.7308C23.6187 19.1471 23.3291 18.6392 22.7385 18.6354C22.1441 18.6354 21.4659 19.1357 21.1916 19.727L9.96306 43.5967C9.69635 44.169 8.97242 44.3395 8.49996 43.9264C8.27135 43.7217 8.04655 43.5171 7.82556 43.3086C7.52075 43.0206 7.44074 42.5658 7.61981 42.183L12.2911 32.2493C12.5578 31.6694 12.2682 31.1577 11.6738 31.1577C11.0832 31.154 10.4012 31.6542 10.1307 32.2455L6.54154 39.871C6.23673 40.5191 5.37563 40.6329 4.94889 40.0568C4.74696 39.7801 4.54883 39.4996 4.35451 39.2192C4.164 38.9311 4.14114 38.5635 4.28593 38.2527L10.4622 25.1126C10.7289 24.5327 10.4393 24.0249 9.84494 24.0211C9.25056 24.0211 8.57235 24.5176 8.30183 25.1088L3.69154 34.9137ZM114.529 36.3891C114.529 36.6848 114.384 36.8023 113.927 36.8023C113.877 36.8023 113.664 36.7985 113.618 36.7909V35.9609C113.668 35.9571 113.896 35.9495 113.957 35.9495C114.323 35.9495 114.529 36.0708 114.529 36.3361V36.3891ZM115.382 38.5229C115.382 38.5116 115.375 38.4926 115.367 38.4775L114.708 37.2571C115.028 37.132 115.272 36.8477 115.272 36.3891V36.3361C115.272 35.5667 114.7 35.3204 113.957 35.3204C113.641 35.3204 113.272 35.3469 113.07 35.3772C112.932 35.3999 112.875 35.4378 112.875 35.5857V38.4888C112.875 38.5381 112.913 38.576 112.959 38.576H113.531C113.576 38.576 113.618 38.5381 113.618 38.4888V37.3897C113.698 37.3897 113.835 37.3973 113.927 37.3973L113.973 37.3935L114.559 38.4888C114.582 38.5343 114.598 38.576 114.647 38.576H115.314C115.363 38.576 115.382 38.5533 115.382 38.5229ZM112.323 38.4699V38.0643C112.323 38.0189 112.285 37.9772 112.235 37.9772H111.347C111.142 37.9772 111.069 37.909 111.069 37.6853V37.2267H112.201C112.25 37.2267 112.289 37.185 112.289 37.1396V36.7265C112.289 36.681 112.25 36.6431 112.201 36.6431H111.069V36.2489C111.069 36.0215 111.142 35.9533 111.347 35.9533H112.235C112.285 35.9533 112.323 35.9154 112.323 35.8661V35.4644C112.323 35.4075 112.296 35.3848 112.235 35.3772C112.083 35.3545 111.866 35.3204 111.393 35.3204C110.829 35.3204 110.326 35.4606 110.326 36.2489V37.6853C110.326 38.4737 110.825 38.6139 111.389 38.6139C111.862 38.6139 112.083 38.5798 112.235 38.557C112.296 38.5495 112.323 38.5229 112.323 38.4699ZM110.025 35.8889V35.4416C110.025 35.3962 109.98 35.3582 109.934 35.3582H107.766C107.72 35.3582 107.678 35.3962 107.678 35.4416V35.8889C107.678 35.9343 107.72 35.9722 107.766 35.9722H108.478V38.4888C108.478 38.5381 108.517 38.576 108.566 38.576H109.138C109.187 38.576 109.225 38.5381 109.225 38.4888V35.9722H109.934C109.98 35.9722 110.025 35.9343 110.025 35.8889ZM107.377 38.413V35.4416C107.377 35.3962 107.339 35.3582 107.29 35.3582H106.775C106.726 35.3582 106.688 35.3962 106.688 35.4416V37.2722C106.688 37.3025 106.672 37.3139 106.665 37.3139C106.65 37.3139 106.646 37.3025 106.63 37.276L105.598 35.4947C105.541 35.4037 105.499 35.3582 105.411 35.3582H104.969C104.878 35.3582 104.805 35.4341 104.805 35.525V38.4888C104.805 38.5381 104.844 38.576 104.893 38.576H105.407C105.457 38.576 105.495 38.5381 105.495 38.4888V36.7378C105.495 36.7113 105.503 36.7037 105.518 36.7037C105.529 36.7037 105.537 36.7113 105.556 36.7378L106.55 38.4433C106.623 38.557 106.688 38.576 106.779 38.576H107.206C107.297 38.576 107.377 38.504 107.377 38.413ZM104.253 38.4699V38.0643C104.253 38.0189 104.215 37.9772 104.165 37.9772H103.281C103.076 37.9772 102.999 37.909 102.999 37.6853V37.2267H104.131C104.181 37.2267 104.219 37.185 104.219 37.1396V36.7265C104.219 36.681 104.181 36.6431 104.131 36.6431H102.999V36.2489C102.999 36.0215 103.076 35.9533 103.281 35.9533H104.165C104.215 35.9533 104.253 35.9154 104.253 35.8661V35.4644C104.253 35.4075 104.226 35.3848 104.165 35.3772C104.013 35.3545 103.796 35.3204 103.323 35.3204C102.759 35.3204 102.256 35.4606 102.256 36.2489V37.6853C102.256 38.4737 102.756 38.6139 103.319 38.6139C103.792 38.6139 104.013 38.5798 104.165 38.557C104.226 38.5495 104.253 38.5229 104.253 38.4699ZM101.788 38.4433V38.0227C101.788 37.9696 101.761 37.9355 101.704 37.9355H101.689C101.525 37.9469 101.285 37.9696 101.045 37.9696C100.744 37.9696 100.5 37.8142 100.5 37.2381V36.6923C100.5 36.1163 100.744 35.9609 101.045 35.9609C101.285 35.9609 101.525 35.9836 101.689 35.9988H101.704C101.761 35.9988 101.788 35.9609 101.788 35.9116V35.4909C101.788 35.4303 101.75 35.4113 101.689 35.3962C101.597 35.3658 101.346 35.3204 101.037 35.3204C100.374 35.3204 99.7455 35.6615 99.7455 36.6923V37.2381C99.7455 38.269 100.374 38.6139 101.037 38.6139C101.346 38.6139 101.597 38.5722 101.689 38.5419C101.75 38.5229 101.788 38.504 101.788 38.4433ZM97.2423 37.1964H96.5907L96.8574 35.9988C96.8689 35.9571 96.8803 35.9343 96.9184 35.9343C96.9603 35.9343 96.9679 35.9571 96.9756 35.9988L97.2423 37.1964ZM98.2977 38.5078C98.2977 38.504 98.2901 38.4964 98.2901 38.485L97.6423 35.8017C97.5395 35.3848 97.2232 35.3204 96.9184 35.3204C96.6174 35.3204 96.2935 35.3848 96.1945 35.8017L95.5429 38.485C95.5429 38.4964 95.5391 38.504 95.5391 38.5078C95.5391 38.5495 95.5696 38.576 95.6153 38.576H96.225C96.2669 38.576 96.3012 38.5419 96.3126 38.4964L96.4688 37.7877H97.3642L97.5204 38.4964C97.5318 38.5419 97.5661 38.576 97.6119 38.576H98.2215C98.2634 38.576 98.2977 38.5495 98.2977 38.5078ZM95.1505 38.5154V35.5136C95.1505 35.4227 95.0857 35.3582 94.9943 35.3582H94.5828C94.4913 35.3582 94.4304 35.4037 94.3923 35.4757L93.7217 36.7113C93.7026 36.7454 93.6912 36.7681 93.676 36.7681C93.6569 36.7681 93.6417 36.7454 93.6264 36.7113L92.9597 35.4757C92.9177 35.4037 92.8568 35.3582 92.7653 35.3582H92.3538C92.2624 35.3582 92.1976 35.4189 92.1976 35.5061V38.5154C92.1976 38.5646 92.2357 38.576 92.2738 38.576H92.8492C92.8873 38.576 92.9177 38.5381 92.9177 38.4888V36.6848C92.9177 36.6544 92.933 36.6507 92.9406 36.6507C92.952 36.6507 92.9635 36.6582 92.9749 36.681L93.3673 37.3935C93.3978 37.4466 93.4435 37.4693 93.5007 37.4693H93.8474C93.9046 37.4693 93.9503 37.4466 93.9808 37.3935L94.3732 36.681C94.3847 36.6582 94.3961 36.6507 94.4075 36.6507C94.4151 36.6507 94.4304 36.6544 94.4304 36.6848V38.4888C94.4304 38.5381 94.4609 38.576 94.499 38.576H95.0743C95.1124 38.576 95.1505 38.5646 95.1505 38.5154ZM91.5994 37.367V35.4416C91.5994 35.3962 91.5537 35.3582 91.508 35.3582H90.9403C90.8907 35.3582 90.8526 35.3962 90.8526 35.4416V37.367C90.8526 37.8104 90.7307 37.9961 90.3345 37.9961C89.942 37.9961 89.8239 37.8104 89.8239 37.367V35.4416C89.8239 35.3962 89.7858 35.3582 89.7401 35.3582H89.1647C89.119 35.3582 89.0771 35.3962 89.0771 35.4416V37.367C89.0771 38.3562 89.641 38.6139 90.3345 38.6139C91.0317 38.6139 91.5994 38.3562 91.5994 37.367ZM87.7359 37.1964H87.0882L87.3549 35.9988C87.3625 35.9571 87.374 35.9343 87.4159 35.9343C87.454 35.9343 87.4616 35.9571 87.473 35.9988L87.7359 37.1964ZM88.7913 38.5078C88.7913 38.504 88.7875 38.4964 88.7875 38.485L88.136 35.8017C88.0331 35.3848 87.7169 35.3204 87.4159 35.3204C87.1111 35.3204 86.791 35.3848 86.6881 35.8017L86.0366 38.485C86.0366 38.4964 86.0328 38.504 86.0328 38.5078C86.0328 38.5495 86.0633 38.576 86.109 38.576H86.7186C86.7643 38.576 86.7986 38.5419 86.8063 38.4964L86.9625 37.7877H87.8617L88.0179 38.4964C88.0255 38.5419 88.0598 38.576 88.1055 38.576H88.7151C88.757 38.576 88.7913 38.5495 88.7913 38.5078ZM84.9431 36.3891C84.9431 36.6848 84.7983 36.8023 84.3411 36.8023C84.2916 36.8023 84.0782 36.7985 84.0286 36.7909V35.9609C84.082 35.9571 84.3068 35.9495 84.3678 35.9495C84.7373 35.9495 84.9431 36.0708 84.9431 36.3361V36.3891ZM85.7928 38.5229C85.7928 38.5116 85.7889 38.4926 85.7813 38.4775L85.1184 37.2571C85.4384 37.132 85.6861 36.8477 85.6861 36.3891V36.3361C85.6861 35.5667 85.1107 35.3204 84.3678 35.3204C84.0553 35.3204 83.6819 35.3469 83.4838 35.3772C83.3466 35.3999 83.2857 35.4378 83.2857 35.5857V38.4888C83.2857 38.5381 83.3238 38.576 83.3733 38.576H83.941C83.9905 38.576 84.0286 38.5381 84.0286 38.4888V37.3897C84.1125 37.3897 84.2458 37.3973 84.3411 37.3973L84.3868 37.3935L84.9736 38.4888C84.9926 38.5343 85.0117 38.576 85.0574 38.576H85.728C85.7775 38.576 85.7928 38.5533 85.7928 38.5229ZM82.8704 35.8889V35.4416C82.8704 35.3962 82.8246 35.3582 82.7789 35.3582H80.6109C80.5652 35.3582 80.5233 35.3962 80.5233 35.4416V35.8889C80.5233 35.9343 80.5652 35.9722 80.6109 35.9722H81.3234V38.4888C81.3234 38.5381 81.3654 38.576 81.4111 38.576H81.9826C82.0321 38.576 82.0702 38.5381 82.0702 38.4888V35.9722H82.7789C82.8246 35.9722 82.8704 35.9343 82.8704 35.8889ZM79.1821 38.4699V38.0643C79.1821 38.0189 79.144 37.9772 79.0945 37.9772H78.3439C78.1382 37.9772 78.0658 37.909 78.0658 37.6853V35.4454C78.0658 35.3999 78.0277 35.3582 77.9781 35.3582H77.4066C77.3571 35.3582 77.319 35.3999 77.319 35.4454V37.6853C77.319 38.4737 77.8219 38.6139 78.382 38.6139C78.6144 38.6139 78.9497 38.5912 79.0945 38.557C79.1593 38.5457 79.1821 38.5229 79.1821 38.4699ZM75.9664 37.1964H75.3148L75.5815 35.9988C75.5892 35.9571 75.6006 35.9343 75.6425 35.9343C75.6806 35.9343 75.692 35.9571 75.6997 35.9988L75.9664 37.1964ZM77.018 38.5078C77.018 38.504 77.0142 38.4964 77.0142 38.485L76.3626 35.8017C76.2597 35.3848 75.9435 35.3204 75.6425 35.3204C75.3377 35.3204 75.0176 35.3848 74.9148 35.8017L74.2632 38.485C74.2632 38.4964 74.2594 38.504 74.2594 38.5078C74.2594 38.5495 74.2899 38.576 74.3356 38.576H74.9491C74.991 38.576 75.0253 38.5419 75.0329 38.4964L75.1891 37.7877H76.0883L76.2445 38.4964C76.2521 38.5419 76.2864 38.576 76.3321 38.576H76.9418C76.9875 38.576 77.018 38.5495 77.018 38.5078ZM74.3737 35.8889V35.4416C74.3737 35.3962 74.3318 35.3582 74.2823 35.3582H72.1143C72.0686 35.3582 72.0267 35.3962 72.0267 35.4416V35.8889C72.0267 35.9343 72.0686 35.9722 72.1143 35.9722H72.8268V38.4888C72.8268 38.5381 72.8687 38.576 72.9144 38.576H73.486C73.5355 38.576 73.5774 38.5381 73.5774 38.4888V35.9722H74.2823C74.3318 35.9722 74.3737 35.9343 74.3737 35.8889ZM71.7257 38.413V35.4416C71.7257 35.3962 71.6876 35.3582 71.638 35.3582H71.1237C71.0741 35.3582 71.036 35.3962 71.036 35.4416V37.2722C71.036 37.3025 71.0246 37.3139 71.0132 37.3139C71.0017 37.3139 70.9979 37.3025 70.9789 37.276L69.9463 35.4947C69.893 35.4037 69.8473 35.3582 69.7634 35.3582H69.3215C69.2262 35.3582 69.1538 35.4341 69.1538 35.525V38.4888C69.1538 38.5381 69.1919 38.576 69.2414 38.576H69.7558C69.8053 38.576 69.8434 38.5381 69.8434 38.4888V36.7378C69.8434 36.7113 69.8511 36.7037 69.8663 36.7037C69.8816 36.7037 69.8892 36.7113 69.9044 36.7378L70.9027 38.4433C70.9713 38.557 71.036 38.576 71.1275 38.576H71.558C71.6495 38.576 71.7257 38.504 71.7257 38.413ZM68.6013 38.4699V38.0643C68.6013 38.0189 68.5632 37.9772 68.5175 37.9772H67.6297C67.424 37.9772 67.3516 37.909 67.3516 37.6853V37.2267H68.4794C68.5289 37.2267 68.5709 37.185 68.5709 37.1396V36.7265C68.5709 36.681 68.5289 36.6431 68.4794 36.6431H67.3516V36.2489C67.3516 36.0215 67.424 35.9533 67.6297 35.9533H68.5175C68.5632 35.9533 68.6013 35.9154 68.6013 35.8661V35.4644C68.6013 35.4075 68.5785 35.3848 68.5175 35.3772C68.3613 35.3545 68.1441 35.3204 67.6717 35.3204C67.1078 35.3204 66.6086 35.4606 66.6086 36.2489V37.6853C66.6086 38.4737 67.104 38.6139 67.6679 38.6139C68.1403 38.6139 68.3613 38.5798 68.5175 38.557C68.5785 38.5495 68.6013 38.5229 68.6013 38.4699ZM65.3437 37.2457C65.3437 37.8331 65.0922 37.9885 64.6997 37.9885C64.5892 37.9885 64.4483 37.9848 64.3873 37.9772V35.9571C64.4483 35.9533 64.5892 35.9495 64.6997 35.9495C65.0922 35.9495 65.3437 36.1049 65.3437 36.6886V37.2457ZM66.0904 37.2457V36.6886C66.0904 35.7752 65.5685 35.3204 64.6997 35.3204C64.3378 35.3204 63.9491 35.3545 63.7663 35.3848C63.6824 35.3999 63.6405 35.4378 63.6405 35.5364V38.3979C63.6405 38.4964 63.6824 38.5381 63.7663 38.5495C63.9491 38.5798 64.3378 38.6139 64.6997 38.6139C65.5685 38.6139 66.0904 38.1591 66.0904 37.2457ZM85.8652 18.4812C85.8652 17.5071 85.6632 16.8287 85.2593 16.4459C84.8555 16.0631 84.3754 15.8699 83.8229 15.8699C83.2438 15.8699 82.7599 16.0745 82.3674 16.48C81.975 16.8856 81.7807 17.3669 81.7807 17.9241V24.3974C82.5656 24.0033 83.2057 23.6091 83.701 23.215C84.1963 22.8208 84.6078 22.4153 84.9278 21.9984C85.2974 21.4867 85.5451 20.9523 85.6746 20.3952C85.8004 19.838 85.8652 19.2013 85.8652 18.4812ZM88.4599 28.5741C88.4599 29.2487 88.3379 29.8816 88.0979 30.4729C87.854 31.0641 87.5188 31.5796 87.0958 32.0192C86.6653 32.4589 86.1661 32.8075 85.587 33.0653C85.0117 33.3192 84.3868 33.4481 83.7162 33.4481C83.0494 33.4481 82.4246 33.3192 81.8492 33.0653C81.2701 32.8075 80.771 32.4589 80.3442 32.0192C79.9175 31.5796 79.5822 31.0641 79.3383 30.4729C79.0983 29.8816 78.9764 29.2487 78.9764 28.5741V17.9241C78.9764 17.2494 79.1021 16.6203 79.3574 16.029C79.6089 15.434 79.9556 14.9185 80.3938 14.4789C80.8319 14.0393 81.3463 13.6906 81.9369 13.4329C82.5236 13.1789 83.1523 13.0501 83.8229 13.0501C84.4897 13.0501 85.1184 13.1713 85.7089 13.4177C86.2957 13.6603 86.8101 14.0089 87.2482 14.46C87.6864 14.9148 88.0331 15.4643 88.2884 16.1124C88.5437 16.7643 88.6694 17.5071 88.6694 18.341C88.6694 19.5727 88.5513 20.6112 88.3227 21.4564C88.0903 22.3053 87.7321 23.0634 87.2482 23.7342C86.6958 24.4808 85.9756 25.1479 85.0841 25.7391C84.1963 26.3304 83.0952 26.9633 81.7807 27.6341V28.5741C81.7807 29.1539 81.9559 29.6429 82.3179 30.037C82.6722 30.4312 83.1409 30.6283 83.7162 30.6283C84.2725 30.6283 84.7335 30.4312 85.1031 30.037C85.4727 29.6429 85.6556 29.1539 85.6556 28.5741C85.6556 28.3884 85.7737 28.2216 85.949 28.161L87.2863 27.7137C87.8655 27.5204 88.4599 27.9563 88.4599 28.5741ZM72.7087 15.8699C72.1334 15.8699 71.6495 16.0745 71.257 16.48C70.8646 16.8856 70.6664 17.3669 70.6664 17.9241V28.5741C70.6664 29.1539 70.8646 29.6429 71.257 30.037C71.6495 30.4312 72.1334 30.6283 72.7087 30.6283C73.265 30.6283 73.7412 30.4312 74.1451 30.037C74.5528 29.6429 74.7547 29.1539 74.7547 28.5741C74.7547 28.3884 74.8729 28.2216 75.0443 28.161L76.3817 27.7137C76.9608 27.5204 77.559 27.9563 77.559 28.5741C77.559 29.2487 77.4295 29.8816 77.1742 30.4729C76.9227 31.0641 76.576 31.5796 76.1378 32.0192C75.6997 32.4589 75.1853 32.8075 74.5947 33.0653C74.0079 33.3192 73.3793 33.4481 72.7087 33.4481C72.0419 33.4481 71.4132 33.3192 70.8227 33.0653C70.2359 32.8075 69.7215 32.4589 69.2833 32.0192C68.8452 31.5796 68.4985 31.0641 68.2432 30.4729C67.9917 29.8816 67.8622 29.2487 67.8622 28.5741V17.9241C67.8622 17.1585 67.9917 16.4725 68.2432 15.8699C68.4985 15.2672 68.8452 14.7556 69.2833 14.3387C69.7215 13.9218 70.2359 13.6034 70.8227 13.3836C71.4132 13.16 72.0419 13.0501 72.7087 13.0501C73.3793 13.0501 74.0079 13.1676 74.5947 13.3987C75.1853 13.6299 75.6997 13.9559 76.1378 14.3766C76.576 14.7935 76.9227 15.3013 77.1742 15.904C77.4295 16.5104 77.559 17.1812 77.559 17.9241C77.559 18.3864 77.1894 18.7579 76.7322 18.7579H75.5777C75.1205 18.7579 74.7547 18.3864 74.7547 17.9241C74.7547 17.3669 74.5528 16.8856 74.1451 16.48C73.7412 16.0745 73.265 15.8699 72.7087 15.8699ZM63.6405 32.5498C63.6405 33.0918 64.0749 33.5315 64.6083 33.5315H65.477C66.0104 33.5315 66.4448 33.0918 66.4448 32.5498V8.95302C66.4448 8.41105 66.0104 7.9714 65.477 7.9714H64.6083C64.0749 7.9714 63.6405 8.41105 63.6405 8.95302V32.5498ZM126.188 23.594V18.0264C126.188 17.4465 125.986 16.9576 125.582 16.5634C125.175 16.1693 124.698 15.9722 124.146 15.9722C123.567 15.9722 123.083 16.1693 122.69 16.5634C122.298 16.9576 122.104 17.4465 122.104 18.0264V23.594C122.104 24.1738 122.298 24.6628 122.69 25.0569C123.083 25.4511 123.567 25.6482 124.146 25.6482C124.698 25.6482 125.175 25.4511 125.582 25.0569C125.986 24.6628 126.188 24.1738 126.188 23.594ZM128.992 15.9381V23.594C128.992 24.9167 128.638 25.9855 127.937 26.7965C127.232 27.6076 126.085 28.0852 124.489 28.2254C123.753 28.2936 123.273 28.4604 123.052 28.7295C122.835 28.9948 122.725 29.279 122.725 29.5822C122.725 29.7679 122.797 29.9802 122.934 30.2265C123.071 30.4691 123.304 30.6131 123.624 30.6586H128.219C128.924 30.6586 129.392 31.3939 129.103 32.0458L128.703 32.9402C128.546 33.2927 128.196 33.5201 127.815 33.5201L122.866 33.4784C121.479 33.467 120.789 33.8612 120.789 34.6268C120.789 35.3924 121.479 35.7752 122.866 35.7752H125.731C126.466 35.7752 126.931 36.5749 126.577 37.2305L126.116 38.0871C125.944 38.3979 125.78 38.5949 125.43 38.5949H123.026C121.616 38.5949 120.298 38.2349 119.383 37.5148C118.472 36.7985 118.019 35.8472 118.019 34.6609C118.019 33.7323 118.312 32.9326 118.899 32.2618C119.49 31.5872 120.267 31.1248 121.239 30.8671C120.911 30.7533 120.679 30.5676 120.526 30.3099C120.378 30.056 120.301 29.7793 120.301 29.4761C120.301 29.154 120.427 28.8394 120.682 28.5362C120.938 28.2368 121.33 28.0245 121.86 27.9108C120.153 27.005 119.299 25.5686 119.299 23.594V18.0264C119.299 17.3518 119.41 16.7188 119.627 16.1276C119.848 15.5363 120.153 15.0209 120.545 14.5812C120.938 14.1416 121.422 13.7929 121.997 13.5352C122.576 13.2813 123.22 13.1524 123.936 13.1524C124.675 13.1524 125.296 13.2282 125.807 13.3798C126.314 13.5314 126.683 13.6754 126.912 13.8156H128.577C129.347 13.8156 129.808 14.6836 129.385 15.3355L128.992 15.9381ZM117.436 13.0652C117.829 13.0652 118.16 13.1183 118.438 13.2244C118.48 13.2396 118.526 13.2585 118.564 13.2737C118.918 13.4291 119.006 13.8611 118.865 14.225L118.396 15.4302C118.255 15.7978 117.825 15.885 117.436 15.885C116.857 15.885 116.373 16.0897 115.981 16.4952C115.588 16.9007 115.394 17.3821 115.394 17.9392V32.5347C115.394 33.0766 114.959 33.5163 114.426 33.5163H113.557C113.02 33.5163 112.59 33.0766 112.59 32.5347V14.2212C112.59 13.6792 113.02 13.2434 113.557 13.2434H113.87C114.232 13.2434 114.563 13.4442 114.731 13.7702L115.081 14.46C115.241 14.134 115.52 13.8232 115.912 13.52C116.304 13.2168 116.811 13.0652 117.436 13.0652ZM108.364 18.5191C108.364 17.545 108.162 16.8628 107.758 16.4838C107.354 16.0973 106.878 15.9078 106.322 15.9078C105.747 15.9078 105.263 16.1086 104.87 16.5142C104.474 16.9235 104.28 17.4048 104.28 17.962V24.4353C105.065 24.0412 105.705 23.6432 106.204 23.2529C106.699 22.8549 107.107 22.4494 107.431 22.0325C107.8 21.5208 108.048 20.9902 108.174 20.4331C108.299 19.8759 108.364 19.2354 108.364 18.5191ZM110.963 28.612C110.963 29.2828 110.841 29.9157 110.597 30.507C110.357 31.0982 110.022 31.6175 109.595 32.0571C109.168 32.4968 108.665 32.8455 108.09 33.0994C107.511 33.3571 106.89 33.4822 106.219 33.4822C105.548 33.4822 104.927 33.3571 104.348 33.0994C103.773 32.8455 103.27 32.4968 102.843 32.0571C102.416 31.6175 102.081 31.0982 101.841 30.507C101.597 29.9157 101.475 29.2828 101.475 28.612V17.962C101.475 17.2873 101.605 16.6544 101.856 16.0631C102.112 15.4719 102.458 14.9565 102.897 14.5168C103.335 14.0734 103.849 13.7247 104.436 13.4708C105.023 13.213 105.655 13.088 106.322 13.088C106.992 13.088 107.621 13.2092 108.208 13.4518C108.798 13.6982 109.313 14.0468 109.751 14.4979C110.189 14.9489 110.536 15.5022 110.787 16.1503C111.043 16.8022 111.168 17.545 111.168 18.3789C111.168 19.6068 111.054 20.6453 110.822 21.4943C110.593 22.3395 110.235 23.1013 109.751 23.7721C109.195 24.5149 108.475 25.182 107.587 25.7732C106.699 26.3645 105.598 26.9974 104.28 27.672V28.612C104.28 29.1919 104.459 29.677 104.817 30.0711C105.175 30.4653 105.644 30.6662 106.219 30.6662C106.771 30.6662 107.236 30.4653 107.602 30.0711C107.972 29.677 108.158 29.1919 108.158 28.612C108.158 28.4225 108.273 28.2557 108.452 28.1989L109.789 27.7516C110.368 27.5583 110.963 27.9942 110.963 28.612ZM95.0705 16.2868C94.4951 16.2868 93.9884 16.4876 93.5502 16.8932C93.1121 17.3025 92.8911 17.7838 92.8911 18.3372V28.6764C92.8911 29.2563 93.1121 29.7414 93.5502 30.1394C93.9884 30.5335 94.4951 30.7306 95.0705 30.7306C95.6268 30.7306 96.1259 30.5335 96.5755 30.1394C97.0289 29.7414 97.2537 29.2563 97.2537 28.6764V18.3372C97.2537 17.7838 97.0289 17.3025 96.5755 16.8932C96.1259 16.4876 95.6268 16.2868 95.0705 16.2868ZM100.058 28.6764C100.058 29.3472 99.9398 29.9802 99.7112 30.5714C99.4788 31.1627 99.1626 31.6781 98.7587 32.1216C98.3548 32.5612 97.8747 32.9099 97.3223 33.1638C96.7698 33.4215 96.1564 33.5504 95.4896 33.5504C94.7466 33.5504 94.1256 33.4329 93.6188 33.2017C93.1121 32.9705 92.7653 32.7242 92.5786 32.4702L92.2433 32.9743C92.0643 33.2472 91.7633 33.4102 91.4432 33.4102H91.0546C90.5211 33.4102 90.0868 32.9705 90.0868 32.4285V8.99092C90.0868 8.56644 90.3535 8.19123 90.7498 8.05857L91.6185 7.76674C92.2472 7.55829 92.8911 8.03204 92.8911 8.69909V14.441C93.0092 14.1871 93.3064 13.9597 93.7903 13.7626C94.2742 13.5655 94.8304 13.467 95.4515 13.467C96.1221 13.467 96.7393 13.5958 97.3032 13.8498C97.8709 14.1037 98.3548 14.4524 98.7587 14.892C99.1626 15.3317 99.4788 15.8509 99.7112 16.4421C99.9398 17.0334 100.058 17.6663 100.058 18.3372V28.6764Z" fill="#3C3D75"/>
</svg>
