<svg xmlns="http://www.w3.org/2000/svg" width="35" height="35" viewBox="0 0 35 35" fill="none">
  <path fill-rule="evenodd" clip-rule="evenodd" d="M35 17.5C35 27.17 27.17 35 17.5 35C7.83 35 0 27.17 0 17.5C0 7.83 7.83 0 17.5 0C27.17 0 35 7.83 35 17.5Z" fill="white"/>
  <path d="M17.8414 19.8542C17.7364 19.9431 17.6182 19.9684 17.5 19.9684C17.3818 19.9684 17.2768 19.9431 17.1717 19.8542L15.4647 18.7626L7.91439 23.4845C8.01944 24.0557 8.47902 24.5 9.08305 24.5H25.917C26.521 24.5 26.9937 24.0557 27.0856 23.4845L19.5353 18.7626L17.8414 19.8542ZM14.3617 18.039L7.875 22.1009V13.7994L14.3617 18.039ZM27.125 13.7994V22.1009L20.6383 18.039L27.125 13.7994ZM27.0856 12.3905C26.9937 11.8193 26.521 11.375 25.917 11.375H9.08305C8.47902 11.375 7.99318 11.8193 7.91439 12.3905L17.5 18.661L27.0856 12.3905Z" fill="#2B68A8"/>
</svg>