<svg width="5" height="5.5" viewBox="0 0 12 13" fill="none" xmlns="http://www.w3.org/2000/svg">
<rect width="12" height="13" fill="#B4B7BD"/>
<g clip-path="url(#clip0_0_1)">
<rect width="390" height="25862" transform="translate(-74 -12747)" fill="#F5F8FD"/>
<rect x="-35" y="-195" width="310" height="290" rx="15" fill="#409AF8"/>
<path d="M17.7996 3.64H18.9516V8.272L22.8516 3.64H23.8956V10H22.7436V5.368L18.8556 10H17.7996V3.64ZM31.5916 3.64V10H30.4396V4.648H27.7036L27.6316 6.064C27.5916 6.92 27.5156 7.636 27.4036 8.212C27.2916 8.78 27.1076 9.236 26.8516 9.58C26.5956 9.924 26.2396 10.096 25.7836 10.096C25.5756 10.096 25.3396 10.06 25.0756 9.988L25.1476 9.016C25.2516 9.04 25.3476 9.052 25.4356 9.052C25.7556 9.052 25.9956 8.912 26.1556 8.632C26.3156 8.352 26.4196 8.02 26.4676 7.636C26.5156 7.252 26.5596 6.704 26.5996 5.992L26.7076 3.64H31.5916ZM33.8191 3.64H34.9711V8.272L38.8711 3.64H39.9151V10H38.7631V5.368L34.8751 10H33.8191V3.64ZM48.8178 6.688C49.2418 6.8 49.5698 6.98 49.8018 7.228C50.0338 7.476 50.1498 7.784 50.1498 8.152C50.1498 8.528 50.0218 8.864 49.7658 9.16C49.5098 9.448 49.1538 9.676 48.6978 9.844C48.2498 10.004 47.7458 10.084 47.1858 10.084C46.7138 10.084 46.2498 10.024 45.7938 9.904C45.3458 9.776 44.9458 9.596 44.5938 9.364L44.9418 8.488C45.2458 8.68 45.5938 8.832 45.9858 8.944C46.3778 9.048 46.7738 9.1 47.1738 9.1C47.7178 9.1 48.1498 9.008 48.4698 8.824C48.7978 8.632 48.9618 8.376 48.9618 8.056C48.9618 7.76 48.8298 7.532 48.5658 7.372C48.3098 7.212 47.9458 7.132 47.4738 7.132H46.3098V6.304H47.3898C47.8218 6.304 48.1618 6.228 48.4098 6.076C48.6578 5.924 48.7818 5.716 48.7818 5.452C48.7818 5.164 48.6338 4.94 48.3378 4.78C48.0498 4.62 47.6578 4.54 47.1618 4.54C46.5298 4.54 45.8618 4.704 45.1578 5.032L44.8458 4.144C45.6218 3.752 46.4338 3.556 47.2818 3.556C47.7938 3.556 48.2538 3.628 48.6618 3.772C49.0698 3.916 49.3898 4.12 49.6218 4.384C49.8538 4.648 49.9698 4.948 49.9698 5.284C49.9698 5.596 49.8658 5.876 49.6578 6.124C49.4498 6.372 49.1698 6.56 48.8178 6.688ZM56.2332 6.7C57.0572 6.908 57.4692 7.424 57.4692 8.248C57.4692 8.808 57.2572 9.24 56.8332 9.544C56.4172 9.848 55.7932 10 54.9612 10H51.9012V3.64H54.8532C55.6052 3.64 56.1932 3.784 56.6172 4.072C57.0412 4.352 57.2532 4.752 57.2532 5.272C57.2532 5.608 57.1612 5.9 56.9772 6.148C56.8012 6.388 56.5532 6.572 56.2332 6.7ZM53.0292 6.376H54.7572C55.1972 6.376 55.5292 6.296 55.7532 6.136C55.9852 5.976 56.1012 5.744 56.1012 5.44C56.1012 4.832 55.6532 4.528 54.7572 4.528H53.0292V6.376ZM54.8772 9.112C55.3572 9.112 55.7172 9.036 55.9572 8.884C56.1972 8.732 56.3172 8.496 56.3172 8.176C56.3172 7.848 56.2052 7.604 55.9812 7.444C55.7652 7.284 55.4212 7.204 54.9492 7.204H53.0292V9.112H54.8772ZM61.9963 10.072C61.3643 10.072 60.7963 9.932 60.2923 9.652C59.7883 9.372 59.3923 8.988 59.1043 8.5C58.8243 8.004 58.6843 7.444 58.6843 6.82C58.6843 6.196 58.8243 5.64 59.1043 5.152C59.3923 4.656 59.7883 4.272 60.2923 4C60.7963 3.72 61.3643 3.58 61.9963 3.58C62.6283 3.58 63.1923 3.72 63.6883 4C64.1923 4.272 64.5843 4.656 64.8643 5.152C65.1523 5.64 65.2963 6.196 65.2963 6.82C65.2963 7.444 65.1523 8.004 64.8643 8.5C64.5843 8.988 64.1923 9.372 63.6883 9.652C63.1923 9.932 62.6283 10.072 61.9963 10.072ZM61.9963 9.064C62.4043 9.064 62.7683 8.972 63.0883 8.788C63.4163 8.596 63.6723 8.332 63.8563 7.996C64.0403 7.652 64.1323 7.26 64.1323 6.82C64.1323 6.38 64.0403 5.992 63.8563 5.656C63.6723 5.312 63.4163 5.048 63.0883 4.864C62.7683 4.68 62.4043 4.588 61.9963 4.588C61.5883 4.588 61.2203 4.68 60.8923 4.864C60.5723 5.048 60.3163 5.312 60.1243 5.656C59.9403 5.992 59.8483 6.38 59.8483 6.82C59.8483 7.26 59.9403 7.652 60.1243 7.996C60.3163 8.332 60.5723 8.596 60.8923 8.788C61.2203 8.972 61.5883 9.064 61.9963 9.064ZM66.9598 3.64H68.1118V6.34H71.7358V3.64H72.8878V10H71.7358V7.336H68.1118V10H66.9598V3.64ZM75.1277 3.64H76.2797V8.272L80.1797 3.64H81.2237V10H80.0717V5.368L76.1837 10H75.1277V3.64ZM88.1998 4.648H85.8717V10H84.7198V4.648H82.3918V3.64H88.1998V4.648ZM94.8445 6.856C94.8445 6.944 94.8365 7.06 94.8205 7.204H89.6605C89.7325 7.764 89.9765 8.216 90.3925 8.56C90.8165 8.896 91.3405 9.064 91.9645 9.064C92.7245 9.064 93.3365 8.808 93.8005 8.296L94.4365 9.04C94.1485 9.376 93.7885 9.632 93.3565 9.808C92.9325 9.984 92.4565 10.072 91.9285 10.072C91.2565 10.072 90.6605 9.936 90.1405 9.664C89.6205 9.384 89.2165 8.996 88.9285 8.5C88.6485 8.004 88.5085 7.444 88.5085 6.82C88.5085 6.204 88.6445 5.648 88.9165 5.152C89.1965 4.656 89.5765 4.272 90.0565 4C90.5445 3.72 91.0925 3.58 91.7005 3.58C92.3085 3.58 92.8485 3.72 93.3205 4C93.8005 4.272 94.1725 4.656 94.4365 5.152C94.7085 5.648 94.8445 6.216 94.8445 6.856ZM91.7005 4.552C91.1485 4.552 90.6845 4.72 90.3085 5.056C89.9405 5.392 89.7245 5.832 89.6605 6.376H93.7405C93.6765 5.84 93.4565 5.404 93.0805 5.068C92.7125 4.724 92.2525 4.552 91.7005 4.552ZM99.8543 3.64H101.006V6.34H104.63V3.64H105.782V10H104.63V7.336H101.006V10H99.8543V3.64ZM110.29 3.58C111.17 3.58 111.842 3.796 112.306 4.228C112.778 4.66 113.014 5.304 113.014 6.16V10H111.922V9.16C111.73 9.456 111.454 9.684 111.094 9.844C110.742 9.996 110.322 10.072 109.834 10.072C109.122 10.072 108.55 9.9 108.118 9.556C107.694 9.212 107.482 8.76 107.482 8.2C107.482 7.64 107.686 7.192 108.094 6.856C108.502 6.512 109.15 6.34 110.038 6.34H111.862V6.112C111.862 5.616 111.718 5.236 111.43 4.972C111.142 4.708 110.718 4.576 110.158 4.576C109.782 4.576 109.414 4.64 109.054 4.768C108.694 4.888 108.39 5.052 108.142 5.26L107.662 4.396C107.99 4.132 108.382 3.932 108.838 3.796C109.294 3.652 109.778 3.58 110.29 3.58ZM110.026 9.184C110.466 9.184 110.846 9.088 111.166 8.896C111.486 8.696 111.718 8.416 111.862 8.056V7.168H110.086C109.11 7.168 108.622 7.496 108.622 8.152C108.622 8.472 108.746 8.724 108.994 8.908C109.242 9.092 109.586 9.184 110.026 9.184ZM122.421 3.64V10H121.377V5.356L119.001 9.28H118.497L116.145 5.344V10H115.089V3.64H116.277L118.773 7.936L121.341 3.64H122.421ZM133.634 6.856C133.634 6.944 133.626 7.06 133.61 7.204H128.45C128.522 7.764 128.766 8.216 129.182 8.56C129.606 8.896 130.13 9.064 130.754 9.064C131.514 9.064 132.126 8.808 132.59 8.296L133.226 9.04C132.938 9.376 132.578 9.632 132.146 9.808C131.722 9.984 131.246 10.072 130.718 10.072C130.046 10.072 129.45 9.936 128.93 9.664C128.41 9.384 128.006 8.996 127.718 8.5C127.438 8.004 127.298 7.444 127.298 6.82C127.298 6.204 127.434 5.648 127.706 5.152C127.986 4.656 128.366 4.272 128.846 4C129.334 3.72 129.882 3.58 130.49 3.58C131.098 3.58 131.638 3.72 132.11 4C132.59 4.272 132.962 4.656 133.226 5.152C133.498 5.648 133.634 6.216 133.634 6.856ZM130.49 4.552C129.938 4.552 129.474 4.72 129.098 5.056C128.73 5.392 128.514 5.832 128.45 6.376H132.53C132.466 5.84 132.246 5.404 131.87 5.068C131.502 4.724 131.042 4.552 130.49 4.552ZM141.029 7.312H139.793V10H138.641V7.312H137.405L135.653 10H134.285L136.469 6.712L134.453 3.64H135.677L137.393 6.328H138.641V3.64H139.793V6.328H141.041L142.757 3.64H143.993L141.977 6.724L144.161 10H142.793L141.029 7.312ZM150.966 6.856C150.966 6.944 150.958 7.06 150.942 7.204H145.782C145.854 7.764 146.098 8.216 146.514 8.56C146.938 8.896 147.462 9.064 148.086 9.064C148.846 9.064 149.458 8.808 149.922 8.296L150.558 9.04C150.27 9.376 149.91 9.632 149.478 9.808C149.054 9.984 148.578 10.072 148.05 10.072C147.378 10.072 146.782 9.936 146.262 9.664C145.742 9.384 145.338 8.996 145.05 8.5C144.77 8.004 144.63 7.444 144.63 6.82C144.63 6.204 144.766 5.648 145.038 5.152C145.318 4.656 145.698 4.272 146.178 4C146.666 3.72 147.214 3.58 147.822 3.58C148.43 3.58 148.97 3.72 149.442 4C149.922 4.272 150.294 4.656 150.558 5.152C150.83 5.648 150.966 6.216 150.966 6.856ZM147.822 4.552C147.27 4.552 146.806 4.72 146.43 5.056C146.062 5.392 145.846 5.832 145.782 6.376H149.862C149.798 5.84 149.578 5.404 149.202 5.068C148.834 4.724 148.374 4.552 147.822 4.552ZM159.115 8.992V11.476H158.035V10H152.719V11.476H151.627V8.992H151.963C152.371 8.968 152.651 8.68 152.803 8.128C152.955 7.576 153.059 6.796 153.115 5.788L153.211 3.64H158.143V8.992H159.115ZM154.171 5.872C154.139 6.672 154.071 7.336 153.967 7.864C153.871 8.384 153.691 8.76 153.427 8.992H156.991V4.648H154.231L154.171 5.872ZM160.616 3.64H161.768V6.34H165.392V3.64H166.544V10H165.392V7.336H161.768V10H160.616V3.64ZM174.532 6.856C174.532 6.944 174.524 7.06 174.508 7.204H169.348C169.42 7.764 169.664 8.216 170.08 8.56C170.504 8.896 171.028 9.064 171.652 9.064C172.412 9.064 173.024 8.808 173.488 8.296L174.124 9.04C173.836 9.376 173.476 9.632 173.044 9.808C172.62 9.984 172.144 10.072 171.616 10.072C170.944 10.072 170.348 9.936 169.828 9.664C169.308 9.384 168.904 8.996 168.616 8.5C168.336 8.004 168.196 7.444 168.196 6.82C168.196 6.204 168.332 5.648 168.604 5.152C168.884 4.656 169.264 4.272 169.744 4C170.232 3.72 170.78 3.58 171.388 3.58C171.996 3.58 172.536 3.72 173.008 4C173.488 4.272 173.86 4.656 174.124 5.152C174.396 5.648 174.532 6.216 174.532 6.856ZM171.388 4.552C170.836 4.552 170.372 4.72 169.996 5.056C169.628 5.392 169.412 5.832 169.348 6.376H173.428C173.364 5.84 173.144 5.404 172.768 5.068C172.4 4.724 171.94 4.552 171.388 4.552ZM180.651 6.7C181.475 6.908 181.887 7.424 181.887 8.248C181.887 8.808 181.675 9.24 181.251 9.544C180.835 9.848 180.211 10 179.379 10H176.319V3.64H179.271C180.023 3.64 180.611 3.784 181.035 4.072C181.459 4.352 181.671 4.752 181.671 5.272C181.671 5.608 181.579 5.9 181.395 6.148C181.219 6.388 180.971 6.572 180.651 6.7ZM177.447 6.376H179.175C179.615 6.376 179.947 6.296 180.171 6.136C180.403 5.976 180.519 5.744 180.519 5.44C180.519 4.832 180.071 4.528 179.175 4.528H177.447V6.376ZM179.295 9.112C179.775 9.112 180.135 9.036 180.375 8.884C180.615 8.732 180.735 8.496 180.735 8.176C180.735 7.848 180.623 7.604 180.399 7.444C180.183 7.284 179.839 7.204 179.367 7.204H177.447V9.112H179.295ZM183.69 3.64H184.842V6.34H188.466V3.64H189.618V10H188.466V7.336H184.842V10H183.69V3.64ZM194.582 10.072C193.95 10.072 193.382 9.932 192.878 9.652C192.374 9.372 191.978 8.988 191.69 8.5C191.41 8.004 191.27 7.444 191.27 6.82C191.27 6.196 191.41 5.64 191.69 5.152C191.978 4.656 192.374 4.272 192.878 4C193.382 3.72 193.95 3.58 194.582 3.58C195.214 3.58 195.778 3.72 196.274 4C196.778 4.272 197.17 4.656 197.45 5.152C197.738 5.64 197.882 6.196 197.882 6.82C197.882 7.444 197.738 8.004 197.45 8.5C197.17 8.988 196.778 9.372 196.274 9.652C195.778 9.932 195.214 10.072 194.582 10.072ZM194.582 9.064C194.99 9.064 195.354 8.972 195.674 8.788C196.002 8.596 196.258 8.332 196.442 7.996C196.626 7.652 196.718 7.26 196.718 6.82C196.718 6.38 196.626 5.992 196.442 5.656C196.258 5.312 196.002 5.048 195.674 4.864C195.354 4.68 194.99 4.588 194.582 4.588C194.174 4.588 193.806 4.68 193.478 4.864C193.158 5.048 192.902 5.312 192.71 5.656C192.526 5.992 192.434 6.38 192.434 6.82C192.434 7.26 192.526 7.652 192.71 7.996C192.902 8.332 193.158 8.596 193.478 8.788C193.806 8.972 194.174 9.064 194.582 9.064ZM-1.0495 26.072C-1.6975 26.072 -2.2775 25.932 -2.7895 25.652C-3.2935 25.372 -3.6895 24.988 -3.9775 24.5C-4.2655 24.004 -4.4095 23.444 -4.4095 22.82C-4.4095 22.196 -4.2655 21.64 -3.9775 21.152C-3.6895 20.656 -3.2935 20.272 -2.7895 20C-2.2775 19.72 -1.6975 19.58 -1.0495 19.58C-0.4735 19.58 0.0385003 19.696 0.4865 19.928C0.9425 20.16 1.2945 20.496 1.5425 20.936L0.6665 21.5C0.4665 21.196 0.2185 20.968 -0.0774996 20.816C-0.3735 20.664 -0.7015 20.588 -1.0615 20.588C-1.4775 20.588 -1.8535 20.68 -2.1895 20.864C-2.5175 21.048 -2.7775 21.312 -2.9695 21.656C-3.1535 21.992 -3.2455 22.38 -3.2455 22.82C-3.2455 23.268 -3.1535 23.664 -2.9695 24.008C-2.7775 24.344 -2.5175 24.604 -2.1895 24.788C-1.8535 24.972 -1.4775 25.064 -1.0615 25.064C-0.7015 25.064 -0.3735 24.988 -0.0774996 24.836C0.2185 24.684 0.4665 24.456 0.6665 24.152L1.5425 24.704C1.2945 25.144 0.9425 25.484 0.4865 25.724C0.0385003 25.956 -0.4735 26.072 -1.0495 26.072ZM9.14863 26.096C8.48463 26.096 7.89263 25.928 7.37263 25.592C6.86063 25.248 6.45663 24.752 6.16063 24.104C5.86463 23.456 5.71663 22.688 5.71663 21.8C5.71663 20.912 5.86463 20.144 6.16063 19.496C6.45663 18.848 6.86063 18.356 7.37263 18.02C7.89263 17.676 8.48463 17.504 9.14863 17.504C9.80463 17.504 10.3886 17.676 10.9006 18.02C11.4206 18.356 11.8286 18.848 12.1246 19.496C12.4206 20.144 12.5686 20.912 12.5686 21.8C12.5686 22.688 12.4206 23.456 12.1246 24.104C11.8286 24.752 11.4206 25.248 10.9006 25.592C10.3886 25.928 9.80463 26.096 9.14863 26.096ZM9.14863 25.028C9.82063 25.028 10.3566 24.752 10.7566 24.2C11.1646 23.648 11.3686 22.848 11.3686 21.8C11.3686 20.752 11.1646 19.952 10.7566 19.4C10.3566 18.848 9.82063 18.572 9.14863 18.572C8.46863 18.572 7.92463 18.848 7.51663 19.4C7.11663 19.952 6.91663 20.752 6.91663 21.8C6.91663 22.848 7.11663 23.648 7.51663 24.2C7.92463 24.752 8.46863 25.028 9.14863 25.028ZM18.8565 21.596C19.3365 21.78 19.7045 22.044 19.9605 22.388C20.2165 22.732 20.3445 23.144 20.3445 23.624C20.3445 24.128 20.2085 24.568 19.9365 24.944C19.6645 25.312 19.2765 25.596 18.7725 25.796C18.2685 25.996 17.6765 26.096 16.9965 26.096C16.3245 26.096 15.7365 25.996 15.2325 25.796C14.7365 25.596 14.3525 25.312 14.0805 24.944C13.8085 24.568 13.6725 24.128 13.6725 23.624C13.6725 23.144 13.7965 22.732 14.0445 22.388C14.3005 22.044 14.6685 21.78 15.1485 21.596C14.7645 21.412 14.4725 21.168 14.2725 20.864C14.0725 20.56 13.9725 20.2 13.9725 19.784C13.9725 19.32 14.0965 18.916 14.3445 18.572C14.6005 18.228 14.9565 17.964 15.4125 17.78C15.8685 17.596 16.3965 17.504 16.9965 17.504C17.6045 17.504 18.1365 17.596 18.5925 17.78C19.0565 17.964 19.4125 18.228 19.6605 18.572C19.9165 18.916 20.0445 19.32 20.0445 19.784C20.0445 20.192 19.9405 20.552 19.7325 20.864C19.5325 21.168 19.2405 21.412 18.8565 21.596ZM16.9965 18.476C16.4285 18.476 15.9805 18.6 15.6525 18.848C15.3245 19.088 15.1605 19.416 15.1605 19.832C15.1605 20.248 15.3205 20.576 15.6405 20.816C15.9685 21.056 16.4205 21.176 16.9965 21.176C17.5805 21.176 18.0365 21.056 18.3645 20.816C18.7005 20.576 18.8685 20.248 18.8685 19.832C18.8685 19.416 18.6965 19.088 18.3525 18.848C18.0165 18.6 17.5645 18.476 16.9965 18.476ZM16.9965 25.124C17.6605 25.124 18.1845 24.988 18.5685 24.716C18.9525 24.436 19.1445 24.06 19.1445 23.588C19.1445 23.124 18.9525 22.76 18.5685 22.496C18.1845 22.224 17.6605 22.088 16.9965 22.088C16.3325 22.088 15.8125 22.224 15.4365 22.496C15.0605 22.76 14.8725 23.124 14.8725 23.588C14.8725 24.06 15.0605 24.436 15.4365 24.716C15.8125 24.988 16.3325 25.124 16.9965 25.124ZM22.2352 21.224C22.0112 21.224 21.8192 21.148 21.6592 20.996C21.4992 20.836 21.4192 20.636 21.4192 20.396C21.4192 20.164 21.4992 19.972 21.6592 19.82C21.8192 19.66 22.0112 19.58 22.2352 19.58C22.4592 19.58 22.6472 19.656 22.7992 19.808C22.9512 19.96 23.0272 20.156 23.0272 20.396C23.0272 20.636 22.9472 20.836 22.7872 20.996C22.6352 21.148 22.4512 21.224 22.2352 21.224ZM22.2352 26.072C22.0112 26.072 21.8192 25.996 21.6592 25.844C21.4992 25.684 21.4192 25.484 21.4192 25.244C21.4192 25.012 21.4992 24.82 21.6592 24.668C21.8192 24.508 22.0112 24.428 22.2352 24.428C22.4592 24.428 22.6472 24.504 22.7992 24.656C22.9512 24.808 23.0272 25.004 23.0272 25.244C23.0272 25.484 22.9472 25.684 22.7872 25.844C22.6352 25.996 22.4512 26.072 22.2352 26.072ZM27.5939 26.096C26.9299 26.096 26.3379 25.928 25.8179 25.592C25.3059 25.248 24.9019 24.752 24.6059 24.104C24.3099 23.456 24.1619 22.688 24.1619 21.8C24.1619 20.912 24.3099 20.144 24.6059 19.496C24.9019 18.848 25.3059 18.356 25.8179 18.02C26.3379 17.676 26.9299 17.504 27.5939 17.504C28.2499 17.504 28.8339 17.676 29.3459 18.02C29.8659 18.356 30.2739 18.848 30.5699 19.496C30.8659 20.144 31.0139 20.912 31.0139 21.8C31.0139 22.688 30.8659 23.456 30.5699 24.104C30.2739 24.752 29.8659 25.248 29.3459 25.592C28.8339 25.928 28.2499 26.096 27.5939 26.096ZM27.5939 25.028C28.2659 25.028 28.8019 24.752 29.2019 24.2C29.6099 23.648 29.8139 22.848 29.8139 21.8C29.8139 20.752 29.6099 19.952 29.2019 19.4C28.8019 18.848 28.2659 18.572 27.5939 18.572C26.9139 18.572 26.3699 18.848 25.9619 19.4C25.5619 19.952 25.3619 20.752 25.3619 21.8C25.3619 22.848 25.5619 23.648 25.9619 24.2C26.3699 24.752 26.9139 25.028 27.5939 25.028ZM35.5978 26.096C34.9338 26.096 34.3418 25.928 33.8218 25.592C33.3098 25.248 32.9058 24.752 32.6098 24.104C32.3138 23.456 32.1658 22.688 32.1658 21.8C32.1658 20.912 32.3138 20.144 32.6098 19.496C32.9058 18.848 33.3098 18.356 33.8218 18.02C34.3418 17.676 34.9338 17.504 35.5978 17.504C36.2538 17.504 36.8378 17.676 37.3498 18.02C37.8698 18.356 38.2778 18.848 38.5738 19.496C38.8698 20.144 39.0178 20.912 39.0178 21.8C39.0178 22.688 38.8698 23.456 38.5738 24.104C38.2778 24.752 37.8698 25.248 37.3498 25.592C36.8378 25.928 36.2538 26.096 35.5978 26.096ZM35.5978 25.028C36.2698 25.028 36.8058 24.752 37.2058 24.2C37.6138 23.648 37.8178 22.848 37.8178 21.8C37.8178 20.752 37.6138 19.952 37.2058 19.4C36.8058 18.848 36.2698 18.572 35.5978 18.572C34.9178 18.572 34.3738 18.848 33.9658 19.4C33.5658 19.952 33.3658 20.752 33.3658 21.8C33.3658 22.848 33.5658 23.648 33.9658 24.2C34.3738 24.752 34.9178 25.028 35.5978 25.028ZM50.4004 24.992V27.476H49.3204V26H44.0044V27.476H42.9124V24.992H43.2484C43.6564 24.968 43.9364 24.68 44.0884 24.128C44.2404 23.576 44.3444 22.796 44.4004 21.788L44.4964 19.64H49.4284V24.992H50.4004ZM45.4564 21.872C45.4244 22.672 45.3564 23.336 45.2524 23.864C45.1564 24.384 44.9764 24.76 44.7124 24.992H48.2764V20.648H45.5164L45.4564 21.872ZM54.6252 26.072C53.9932 26.072 53.4252 25.932 52.9212 25.652C52.4172 25.372 52.0212 24.988 51.7332 24.5C51.4532 24.004 51.3132 23.444 51.3132 22.82C51.3132 22.196 51.4532 21.64 51.7332 21.152C52.0212 20.656 52.4172 20.272 52.9212 20C53.4252 19.72 53.9932 19.58 54.6252 19.58C55.2572 19.58 55.8212 19.72 56.3172 20C56.8212 20.272 57.2132 20.656 57.4932 21.152C57.7812 21.64 57.9252 22.196 57.9252 22.82C57.9252 23.444 57.7812 24.004 57.4932 24.5C57.2132 24.988 56.8212 25.372 56.3172 25.652C55.8212 25.932 55.2572 26.072 54.6252 26.072ZM54.6252 25.064C55.0332 25.064 55.3972 24.972 55.7172 24.788C56.0452 24.596 56.3012 24.332 56.4852 23.996C56.6692 23.652 56.7612 23.26 56.7612 22.82C56.7612 22.38 56.6692 21.992 56.4852 21.656C56.3012 21.312 56.0452 21.048 55.7172 20.864C55.3972 20.68 55.0332 20.588 54.6252 20.588C54.2172 20.588 53.8492 20.68 53.5212 20.864C53.2012 21.048 52.9452 21.312 52.7532 21.656C52.5692 21.992 52.4772 22.38 52.4772 22.82C52.4772 23.26 52.5692 23.652 52.7532 23.996C52.9452 24.332 53.2012 24.596 53.5212 24.788C53.8492 24.972 54.2172 25.064 54.6252 25.064ZM68.1753 24.956V26H62.1393V25.184L65.5593 21.884C65.9753 21.484 66.2553 21.14 66.3993 20.852C66.5433 20.556 66.6153 20.26 66.6153 19.964C66.6153 19.524 66.4593 19.184 66.1473 18.944C65.8433 18.696 65.4033 18.572 64.8273 18.572C63.8993 18.572 63.1833 18.876 62.6793 19.484L61.8633 18.776C62.1913 18.376 62.6193 18.064 63.1473 17.84C63.6833 17.616 64.2793 17.504 64.9353 17.504C65.8153 17.504 66.5153 17.716 67.0353 18.14C67.5553 18.556 67.8153 19.124 67.8153 19.844C67.8153 20.292 67.7193 20.716 67.5273 21.116C67.3353 21.516 66.9713 21.972 66.4353 22.484L63.8673 24.956H68.1753ZM75.0659 24.956V26H69.0299V25.184L72.4499 21.884C72.8659 21.484 73.1459 21.14 73.2899 20.852C73.4339 20.556 73.5059 20.26 73.5059 19.964C73.5059 19.524 73.3499 19.184 73.0379 18.944C72.7339 18.696 72.2939 18.572 71.7179 18.572C70.7899 18.572 70.0739 18.876 69.5699 19.484L68.7539 18.776C69.0819 18.376 69.5099 18.064 70.0379 17.84C70.5739 17.616 71.1699 17.504 71.8259 17.504C72.7059 17.504 73.4059 17.716 73.9259 18.14C74.4459 18.556 74.7059 19.124 74.7059 19.844C74.7059 20.292 74.6099 20.716 74.4179 21.116C74.2259 21.516 73.8619 21.972 73.3259 22.484L70.7579 24.956H75.0659ZM76.8446 21.224C76.6206 21.224 76.4286 21.148 76.2686 20.996C76.1086 20.836 76.0286 20.636 76.0286 20.396C76.0286 20.164 76.1086 19.972 76.2686 19.82C76.4286 19.66 76.6206 19.58 76.8446 19.58C77.0686 19.58 77.2566 19.656 77.4086 19.808C77.5606 19.96 77.6366 20.156 77.6366 20.396C77.6366 20.636 77.5566 20.836 77.3966 20.996C77.2446 21.148 77.0606 21.224 76.8446 21.224ZM76.8446 26.072C76.6206 26.072 76.4286 25.996 76.2686 25.844C76.1086 25.684 76.0286 25.484 76.0286 25.244C76.0286 25.012 76.1086 24.82 76.2686 24.668C76.4286 24.508 76.6206 24.428 76.8446 24.428C77.0686 24.428 77.2566 24.504 77.4086 24.656C77.5606 24.808 77.6366 25.004 77.6366 25.244C77.6366 25.484 77.5566 25.684 77.3966 25.844C77.2446 25.996 77.0606 26.072 76.8446 26.072ZM82.2033 26.096C81.5393 26.096 80.9473 25.928 80.4273 25.592C79.9153 25.248 79.5113 24.752 79.2153 24.104C78.9193 23.456 78.7713 22.688 78.7713 21.8C78.7713 20.912 78.9193 20.144 79.2153 19.496C79.5113 18.848 79.9153 18.356 80.4273 18.02C80.9473 17.676 81.5393 17.504 82.2033 17.504C82.8593 17.504 83.4433 17.676 83.9553 18.02C84.4753 18.356 84.8833 18.848 85.1793 19.496C85.4753 20.144 85.6233 20.912 85.6233 21.8C85.6233 22.688 85.4753 23.456 85.1793 24.104C84.8833 24.752 84.4753 25.248 83.9553 25.592C83.4433 25.928 82.8593 26.096 82.2033 26.096ZM82.2033 25.028C82.8753 25.028 83.4113 24.752 83.8113 24.2C84.2193 23.648 84.4233 22.848 84.4233 21.8C84.4233 20.752 84.2193 19.952 83.8113 19.4C83.4113 18.848 82.8753 18.572 82.2033 18.572C81.5233 18.572 80.9793 18.848 80.5713 19.4C80.1713 19.952 79.9713 20.752 79.9713 21.8C79.9713 22.848 80.1713 23.648 80.5713 24.2C80.9793 24.752 81.5233 25.028 82.2033 25.028ZM90.2072 26.096C89.5432 26.096 88.9512 25.928 88.4312 25.592C87.9192 25.248 87.5152 24.752 87.2192 24.104C86.9232 23.456 86.7752 22.688 86.7752 21.8C86.7752 20.912 86.9232 20.144 87.2192 19.496C87.5152 18.848 87.9192 18.356 88.4312 18.02C88.9512 17.676 89.5432 17.504 90.2072 17.504C90.8632 17.504 91.4472 17.676 91.9592 18.02C92.4792 18.356 92.8872 18.848 93.1832 19.496C93.4792 20.144 93.6272 20.912 93.6272 21.8C93.6272 22.688 93.4792 23.456 93.1832 24.104C92.8872 24.752 92.4792 25.248 91.9592 25.592C91.4472 25.928 90.8632 26.096 90.2072 26.096ZM90.2072 25.028C90.8792 25.028 91.4152 24.752 91.8152 24.2C92.2232 23.648 92.4272 22.848 92.4272 21.8C92.4272 20.752 92.2232 19.952 91.8152 19.4C91.4152 18.848 90.8792 18.572 90.2072 18.572C89.5272 18.572 88.9832 18.848 88.5752 19.4C88.1752 19.952 87.9752 20.752 87.9752 21.8C87.9752 22.848 88.1752 23.648 88.5752 24.2C88.9832 24.752 89.5272 25.028 90.2072 25.028ZM105.874 19.64V26H104.83V21.356L102.454 25.28H101.95L99.5978 21.344V26H98.5418V19.64H99.7298L102.226 23.936L104.794 19.64H105.874ZM110.888 26.072C110.24 26.072 109.66 25.932 109.148 25.652C108.644 25.372 108.248 24.988 107.96 24.5C107.672 24.004 107.528 23.444 107.528 22.82C107.528 22.196 107.672 21.64 107.96 21.152C108.248 20.656 108.644 20.272 109.148 20C109.66 19.72 110.24 19.58 110.888 19.58C111.464 19.58 111.976 19.696 112.424 19.928C112.88 20.16 113.232 20.496 113.48 20.936L112.604 21.5C112.404 21.196 112.156 20.968 111.86 20.816C111.564 20.664 111.236 20.588 110.876 20.588C110.46 20.588 110.084 20.68 109.748 20.864C109.42 21.048 109.16 21.312 108.968 21.656C108.784 21.992 108.692 22.38 108.692 22.82C108.692 23.268 108.784 23.664 108.968 24.008C109.16 24.344 109.42 24.604 109.748 24.788C110.084 24.972 110.46 25.064 110.876 25.064C111.236 25.064 111.564 24.988 111.86 24.836C112.156 24.684 112.404 24.456 112.604 24.152L113.48 24.704C113.232 25.144 112.88 25.484 112.424 25.724C111.976 25.956 111.464 26.072 110.888 26.072ZM117.443 23.312H116.123V26H114.971V19.64H116.123V22.328H117.467L119.531 19.64H120.767L118.355 22.7L120.935 26H119.579L117.443 23.312ZM131.258 19.64V26H130.106V20.648H126.518V26H125.366V19.64H131.258ZM136.211 26.072C135.579 26.072 135.011 25.932 134.507 25.652C134.003 25.372 133.607 24.988 133.319 24.5C133.039 24.004 132.899 23.444 132.899 22.82C132.899 22.196 133.039 21.64 133.319 21.152C133.607 20.656 134.003 20.272 134.507 20C135.011 19.72 135.579 19.58 136.211 19.58C136.843 19.58 137.407 19.72 137.903 20C138.407 20.272 138.799 20.656 139.079 21.152C139.367 21.64 139.511 22.196 139.511 22.82C139.511 23.444 139.367 24.004 139.079 24.5C138.799 24.988 138.407 25.372 137.903 25.652C137.407 25.932 136.843 26.072 136.211 26.072ZM136.211 25.064C136.619 25.064 136.983 24.972 137.303 24.788C137.631 24.596 137.887 24.332 138.071 23.996C138.255 23.652 138.347 23.26 138.347 22.82C138.347 22.38 138.255 21.992 138.071 21.656C137.887 21.312 137.631 21.048 137.303 20.864C136.983 20.68 136.619 20.588 136.211 20.588C135.803 20.588 135.435 20.68 135.107 20.864C134.787 21.048 134.531 21.312 134.339 21.656C134.155 21.992 134.063 22.38 134.063 22.82C134.063 23.26 134.155 23.652 134.339 23.996C134.531 24.332 134.787 24.596 135.107 24.788C135.435 24.972 135.803 25.064 136.211 25.064ZM149.137 20.648H146.809V26H145.657V20.648H143.329V19.64H149.137V20.648ZM155.782 22.856C155.782 22.944 155.774 23.06 155.758 23.204H150.598C150.67 23.764 150.914 24.216 151.33 24.56C151.754 24.896 152.278 25.064 152.902 25.064C153.662 25.064 154.274 24.808 154.738 24.296L155.374 25.04C155.086 25.376 154.726 25.632 154.294 25.808C153.87 25.984 153.394 26.072 152.866 26.072C152.194 26.072 151.598 25.936 151.078 25.664C150.558 25.384 150.154 24.996 149.866 24.5C149.586 24.004 149.446 23.444 149.446 22.82C149.446 22.204 149.582 21.648 149.854 21.152C150.134 20.656 150.514 20.272 150.994 20C151.482 19.72 152.03 19.58 152.638 19.58C153.246 19.58 153.786 19.72 154.258 20C154.738 20.272 155.11 20.656 155.374 21.152C155.646 21.648 155.782 22.216 155.782 22.856ZM152.638 20.552C152.086 20.552 151.622 20.72 151.246 21.056C150.878 21.392 150.662 21.832 150.598 22.376H154.678C154.614 21.84 154.394 21.404 154.018 21.068C153.65 20.724 153.19 20.552 152.638 20.552ZM162.924 19.64V26H161.772V20.648H159.036L158.964 22.064C158.924 22.92 158.848 23.636 158.736 24.212C158.624 24.78 158.44 25.236 158.184 25.58C157.928 25.924 157.572 26.096 157.116 26.096C156.908 26.096 156.672 26.06 156.408 25.988L156.48 25.016C156.584 25.04 156.68 25.052 156.768 25.052C157.088 25.052 157.328 24.912 157.488 24.632C157.648 24.352 157.752 24.02 157.8 23.636C157.848 23.252 157.892 22.704 157.932 21.992L158.04 19.64H162.924ZM170.899 22.856C170.899 22.944 170.891 23.06 170.875 23.204H165.715C165.787 23.764 166.031 24.216 166.447 24.56C166.871 24.896 167.395 25.064 168.019 25.064C168.779 25.064 169.391 24.808 169.855 24.296L170.491 25.04C170.203 25.376 169.843 25.632 169.411 25.808C168.987 25.984 168.511 26.072 167.983 26.072C167.311 26.072 166.715 25.936 166.195 25.664C165.675 25.384 165.271 24.996 164.983 24.5C164.703 24.004 164.563 23.444 164.563 22.82C164.563 22.204 164.699 21.648 164.971 21.152C165.251 20.656 165.631 20.272 166.111 20C166.599 19.72 167.147 19.58 167.755 19.58C168.363 19.58 168.903 19.72 169.375 20C169.855 20.272 170.227 20.656 170.491 21.152C170.763 21.648 170.899 22.216 170.899 22.856ZM167.755 20.552C167.203 20.552 166.739 20.72 166.363 21.056C165.995 21.392 165.779 21.832 165.715 22.376H169.795C169.731 21.84 169.511 21.404 169.135 21.068C168.767 20.724 168.307 20.552 167.755 20.552ZM180.714 22.808C180.714 23.792 180.386 24.568 179.73 25.136C179.074 25.704 178.15 26.02 176.958 26.084V28.328H175.83V26.084C174.638 26.02 173.714 25.708 173.058 25.148C172.41 24.58 172.086 23.8 172.086 22.808C172.086 21.824 172.41 21.056 173.058 20.504C173.706 19.952 174.63 19.644 175.83 19.58V17.096H176.958V19.58C178.15 19.644 179.074 19.956 179.73 20.516C180.386 21.068 180.714 21.832 180.714 22.808ZM173.226 22.808C173.226 23.488 173.442 24.02 173.874 24.404C174.314 24.788 174.966 25.008 175.83 25.064V20.6C174.958 20.656 174.306 20.872 173.874 21.248C173.442 21.624 173.226 22.144 173.226 22.808ZM176.958 25.076C178.702 24.94 179.574 24.184 179.574 22.808C179.574 22.136 179.354 21.616 178.914 21.248C178.474 20.872 177.822 20.656 176.958 20.6V25.076ZM185.067 26.072C184.435 26.072 183.867 25.932 183.363 25.652C182.859 25.372 182.463 24.988 182.175 24.5C181.895 24.004 181.755 23.444 181.755 22.82C181.755 22.196 181.895 21.64 182.175 21.152C182.463 20.656 182.859 20.272 183.363 20C183.867 19.72 184.435 19.58 185.067 19.58C185.699 19.58 186.263 19.72 186.759 20C187.263 20.272 187.655 20.656 187.935 21.152C188.223 21.64 188.367 22.196 188.367 22.82C188.367 23.444 188.223 24.004 187.935 24.5C187.655 24.988 187.263 25.372 186.759 25.652C186.263 25.932 185.699 26.072 185.067 26.072ZM185.067 25.064C185.475 25.064 185.839 24.972 186.159 24.788C186.487 24.596 186.743 24.332 186.927 23.996C187.111 23.652 187.203 23.26 187.203 22.82C187.203 22.38 187.111 21.992 186.927 21.656C186.743 21.312 186.487 21.048 186.159 20.864C185.839 20.68 185.475 20.588 185.067 20.588C184.659 20.588 184.291 20.68 183.963 20.864C183.643 21.048 183.387 21.312 183.195 21.656C183.011 21.992 182.919 22.38 182.919 22.82C182.919 23.26 183.011 23.652 183.195 23.996C183.387 24.332 183.643 24.596 183.963 24.788C184.291 24.972 184.659 25.064 185.067 25.064ZM190.03 19.64H191.182V22.34H194.806V19.64H195.958V26H194.806V23.336H191.182V26H190.03V19.64ZM203.874 19.64L200.79 26.636C200.518 27.284 200.198 27.74 199.83 28.004C199.47 28.268 199.034 28.4 198.522 28.4C198.21 28.4 197.906 28.348 197.61 28.244C197.322 28.148 197.082 28.004 196.89 27.812L197.382 26.948C197.71 27.26 198.09 27.416 198.522 27.416C198.802 27.416 199.034 27.34 199.218 27.188C199.41 27.044 199.582 26.792 199.734 26.432L199.938 25.988L197.13 19.64H198.33L200.55 24.728L202.746 19.64H203.874Z" fill="white"/>
<path d="M12 6.1875C12 9.60476 9.31371 12.375 6 12.375C2.68629 12.375 0 9.60476 0 6.1875C0 2.77024 2.68629 0 6 0C9.31371 0 12 2.77024 12 6.1875Z" fill="white" fill-opacity="0.4"/>
<path d="M9 6.1875C9 7.89613 7.65685 9.28125 6 9.28125C4.34315 9.28125 3 7.89613 3 6.1875C3 4.47887 4.34315 3.09375 6 3.09375C7.65685 3.09375 9 4.47887 9 6.1875Z" fill="white"/>
</g>
<defs>
<clipPath id="clip0_0_1">
<rect width="390" height="25862" fill="white" transform="translate(-74 -12747)"/>
</clipPath>
</defs>
</svg>
