<svg viewBox="0 0 17 20" fill="none" xmlns="http://www.w3.org/2000/svg">
<path d="M15.5805 10.27C15.0287 10.27 14.6609 10.63 14.6609 11.17C14.6609 14.5 11.9023 17.2 8.5 17.2C5.0977 17.2 2.33908 14.5 2.33908 11.17C2.33908 7.84 5.0977 5.23 8.40804 5.14L7.02873 6.58C6.66092 6.94 6.66092 7.48 7.02873 7.84C7.39655 8.2 7.94828 8.2 8.31609 7.84L10.9828 5.23C11.3506 4.87 11.3506 4.33 10.9828 3.97L8.31609 1.27C7.94828 0.91 7.39655 0.91 7.02873 1.27C6.66092 1.63 6.66092 2.17 7.02873 2.53L7.94827 3.43C3.81034 3.7 0.5 7.12 0.5 11.17C0.5 15.49 4.08621 19 8.5 19C12.9138 19 16.5 15.49 16.5 11.17C16.5 10.72 16.0402 10.27 15.5805 10.27Z" fill="white" stroke="white" stroke-width="0.3"/>
</svg>
