<svg width="35" height="35" viewBox="0 0 35 35" fill="none" xmlns="http://www.w3.org/2000/svg">
<path d="M17.5 35C27.165 35 35 27.165 35 17.5C35 7.83502 27.165 0 17.5 0C7.83502 0 0 7.83502 0 17.5C0 27.165 7.83502 35 17.5 35Z" fill="white"/>
<path d="M16.4214 21.9704C14.7251 21.7934 13.1958 21.3738 11.8873 20.3516C11.7242 20.2243 11.5572 20.101 11.408 19.9539C10.8353 19.403 10.7776 18.7726 11.231 18.1243C11.6188 17.5675 12.2691 17.4184 12.9472 17.7385C13.0774 17.8045 13.2024 17.8803 13.3211 17.9653C14.5337 18.7894 15.963 19.2363 17.4291 19.2497C18.8952 19.2632 20.3325 18.8426 21.56 18.0408C21.7946 17.8507 22.0651 17.71 22.3555 17.6272C22.6254 17.5474 22.9144 17.5607 23.1759 17.6649C23.4373 17.7691 23.6562 17.9583 23.7972 18.2019C24.1552 18.7866 24.1512 19.3553 23.7097 19.8087C23.033 20.4931 22.2153 21.0218 21.3134 21.3579C20.4354 21.6733 19.5216 21.8784 18.593 21.9684C18.7322 22.1215 18.7918 22.1951 18.8873 22.2826C20.1461 23.5493 21.4109 24.8101 22.6657 26.0789C22.8656 26.2606 23.0012 26.5023 23.0521 26.7676C23.103 27.033 23.0665 27.3076 22.9481 27.5505C22.8274 27.8166 22.6311 28.0414 22.3835 28.1966C22.136 28.3519 21.8482 28.4308 21.556 28.4235C21.2143 28.3898 20.898 28.2278 20.6711 27.9701C19.7205 27.0135 18.752 26.0749 17.8214 25.1005C17.5509 24.8181 17.4236 24.8718 17.181 25.1164C16.2245 26.1107 15.252 27.0712 14.2756 28.0337C14.0943 28.2347 13.8514 28.3697 13.585 28.4175C13.3187 28.4654 13.044 28.4234 12.804 28.2982C12.5441 28.1768 12.3247 27.9829 12.1723 27.7399C12.0199 27.4968 11.941 27.2149 11.9449 26.928C11.9737 26.5735 12.1391 26.244 12.4063 26.0093C13.6552 24.7644 14.9001 23.5188 16.141 22.2726C16.2245 22.1871 16.304 22.0976 16.4214 21.9704Z" fill="#2B68A8"/>
<path d="M17.4535 17.6351C16.3568 17.6287 15.2868 17.2968 14.3791 16.6814C13.4713 16.066 12.7668 15.1949 12.3549 14.1786C11.9429 13.1623 11.8421 12.0465 12.0651 10.9727C12.2882 9.899 12.8251 8.9157 13.6078 8.14755C14.3905 7.37939 15.3837 6.86099 16.4614 6.65809C17.5391 6.45519 18.6528 6.57692 19.6613 7.00786C20.6697 7.4388 21.5275 8.15952 22.1257 9.07862C22.724 9.99772 23.0358 11.0738 23.0216 12.1704C23.0017 13.6315 22.4054 15.0255 21.3625 16.049C20.3197 17.0725 18.9147 17.6426 17.4535 17.6351ZM20.2038 12.0928C20.2022 11.5568 20.0416 11.0333 19.7423 10.5886C19.443 10.1439 19.0185 9.79796 18.5225 9.59466C18.0265 9.39135 17.4814 9.33979 16.9561 9.44649C16.4308 9.55319 15.949 9.81336 15.5716 10.1941C15.1942 10.5748 14.9383 11.0589 14.8363 11.5851C14.7342 12.1113 14.7906 12.656 14.9983 13.1502C15.2059 13.6443 15.5556 14.0658 16.0029 14.3611C16.4502 14.6565 16.9751 14.8124 17.5111 14.8093C17.8665 14.8085 18.2183 14.7375 18.5462 14.6005C18.874 14.4634 19.1716 14.2629 19.4218 14.0105C19.672 13.7581 19.8699 13.4587 20.0041 13.1296C20.1382 12.8005 20.2061 12.4482 20.2038 12.0928Z" fill="#2B68A8"/>
</svg>
