<svg viewBox="0 0 38 38" fill="none" xmlns="http://www.w3.org/2000/svg">
<path d="M7.01733 0H30.9827C32.9143 0 34.6687 0.791667 35.9417 2.05833C37.2083 3.33133 38 5.08567 38 7.01733V30.9827C38 32.9143 37.2083 34.6687 35.9417 35.9417C34.6687 37.2083 32.9143 38 30.9827 38H7.01733C5.08567 38 3.33133 37.2083 2.05833 35.9417C0.791667 34.6687 0 32.9143 0 30.9827V7.01733C0 5.08567 0.791667 3.33133 2.05833 2.05833C3.33133 0.791667 5.08567 0 7.01733 0V0ZM10.8363 8.25233C10.8363 7.28967 11.6153 6.51067 12.578 6.51067H18.164C20.8873 6.51067 23.3573 7.619 25.1497 9.405L25.156 9.41133C26.942 11.2037 28.0503 13.6737 28.0503 16.397C28.0503 19.1267 26.942 21.5967 25.156 23.389C23.37 25.175 20.8937 26.2833 18.164 26.2833C18.1577 26.277 15.96 26.2707 14.3133 26.2707V29.7477C14.3133 30.7103 13.5343 31.4893 12.578 31.4893C11.6153 31.4893 10.8363 30.7103 10.8363 29.7477V24.548V8.25233ZM14.3133 9.98767V22.8127H18.164C19.9373 22.8063 21.5397 22.0907 22.6987 20.9317C23.8577 19.7727 24.5733 18.164 24.5733 16.397C24.5733 14.6237 23.8577 13.0213 22.6987 11.8623C21.5397 10.7033 19.9373 9.98767 18.164 9.98767H14.3133ZM30.9827 2.84367H7.01733C5.871 2.84367 4.826 3.31233 4.07233 4.07233C3.31233 4.826 2.84367 5.871 2.84367 7.01733V30.9827C2.84367 32.129 3.31233 33.174 4.07233 33.9277C4.826 34.6877 5.871 35.1563 7.01733 35.1563H30.9827C32.129 35.1563 33.174 34.6877 33.9277 33.9277C34.6877 33.174 35.1563 32.129 35.1563 30.9827V7.01733C35.1563 5.871 34.6877 4.826 33.9277 4.07233C33.174 3.31233 32.129 2.84367 30.9827 2.84367Z" fill="#409AF8"/>
</svg>
