<svg width="10" height="10" viewBox="0 0 10 10" fill="none" xmlns="http://www.w3.org/2000/svg">
<path d="M2.06545 4.32724C2.54289 4.32684 3.00542 4.15302 3.37426 3.83538C3.74309 3.51773 3.99541 3.07593 4.08823 2.58523C4.18106 2.09452 4.10864 1.58528 3.88331 1.14425C3.65799 0.703215 3.29369 0.357681 2.8525 0.166509C2.4113 -0.0246626 1.9205 -0.0496455 1.4637 0.0958168C1.00689 0.241279 0.612352 0.548188 0.347288 0.964257C0.082224 1.38033 -0.036966 1.87982 0.0100232 2.37764C0.0570125 2.87546 0.267274 3.34081 0.604988 3.69442C0.796662 3.89547 1.02435 4.05487 1.27498 4.16347C1.52561 4.27207 1.79424 4.32772 2.06545 4.32724ZM1.48885 1.55998C1.62225 1.42021 1.79778 1.33324 1.98552 1.31387C2.17326 1.2945 2.3616 1.34394 2.51845 1.45376C2.6753 1.56358 2.79096 1.72699 2.84572 1.91614C2.90048 2.10529 2.89095 2.30849 2.81875 2.4911C2.74656 2.67372 2.61616 2.82446 2.44979 2.91763C2.28341 3.01081 2.09135 3.04066 1.90633 3.00209C1.72131 2.96353 1.55477 2.85894 1.43509 2.70614C1.31542 2.55335 1.25001 2.3618 1.25001 2.16413C1.24971 2.05189 1.27067 1.94069 1.31167 1.83699C1.35267 1.73328 1.41289 1.63913 1.48885 1.55998ZM7.93457 4.76257C7.45671 4.76256 6.99363 4.93616 6.62424 5.25379C6.25484 5.57142 6.00199 6.01343 5.90876 6.5045C5.81553 6.99557 5.88769 7.50532 6.11294 7.9469C6.3382 8.38847 6.70261 8.73455 7.14409 8.92616C7.58558 9.11778 8.07681 9.14307 8.53409 8.99772C8.99137 8.85238 9.38641 8.54541 9.6519 8.12909C9.91738 7.71278 10.0369 7.2129 9.99005 6.71461C9.94321 6.21633 9.73293 5.75048 9.39503 5.39644C9.20369 5.19484 8.97609 5.03502 8.7254 4.92621C8.47471 4.81741 8.20591 4.76179 7.93457 4.76257ZM8.51115 7.53085C8.35803 7.69009 8.15093 7.77926 7.93519 7.77883C7.71946 7.77841 7.51268 7.68843 7.36013 7.52859C7.20758 7.36875 7.1217 7.15209 7.1213 6.92604C7.12089 6.7 7.20599 6.483 7.35797 6.32256C7.43358 6.24273 7.5235 6.17934 7.62255 6.13601C7.72161 6.09268 7.82786 6.07026 7.9352 6.07005C8.04254 6.06984 8.14886 6.09184 8.24807 6.13479C8.34728 6.17773 8.43742 6.24078 8.51332 6.32031C8.58922 6.39984 8.64939 6.49429 8.69037 6.59824C8.73135 6.70219 8.75234 6.8136 8.75214 6.92607C8.75194 7.03854 8.73054 7.14986 8.68918 7.25365C8.64783 7.35743 8.58732 7.45164 8.51113 7.53087L8.51115 7.53085ZM9.15506 0.191798C9.21309 0.252608 9.25913 0.3248 9.29054 0.404252C9.32195 0.483705 9.33811 0.568861 9.33811 0.65486C9.33811 0.740859 9.32195 0.826016 9.29054 0.905468C9.25913 0.984921 9.21309 1.05711 9.15506 1.11792L1.72885 8.89903C1.61149 9.02106 1.45275 9.08939 1.28741 9.08906C1.12207 9.08872 0.963587 9.01975 0.846673 8.89725C0.729758 8.77474 0.663937 8.60869 0.663621 8.43544C0.663305 8.2622 0.728521 8.09588 0.844988 7.97291L8.27119 0.191798C8.3884 0.0689915 8.54737 0 8.71312 0C8.87888 0 9.03785 0.0689915 9.15506 0.191798Z" fill="white"/>
</svg>
