<svg viewBox="0 0 29 30" fill="none" xmlns="http://www.w3.org/2000/svg">
<path d="M27.1259 15.3886C27.0064 15.1416 27.0064 14.8584 27.1259 14.6115L28.2337 12.3225C28.8504 11.0481 28.3618 9.52904 27.1211 8.86419L24.8929 7.67006C24.6525 7.54127 24.4877 7.31206 24.4407 7.04142L24.0049 4.53193C23.7622 3.13472 22.4826 2.19583 21.0923 2.39452L18.5947 2.75135C18.3252 2.78978 18.0586 2.70225 17.863 2.51117L16.0501 0.739789C15.0407 -0.246567 13.4593 -0.246626 12.4499 0.739789L10.637 2.51135C10.4413 2.70248 10.1748 2.78984 9.90526 2.75152L7.40772 2.39469C6.0169 2.19589 4.73776 3.1349 4.4951 4.53211L4.05932 7.04147C4.01227 7.31217 3.84747 7.54133 3.60713 7.67018L1.37892 8.8643C0.138299 9.5291 -0.350386 11.0482 0.266387 12.3227L1.37411 14.6116C1.49361 14.8586 1.49361 15.1418 1.37411 15.3887L0.266329 17.6776C-0.350444 18.952 0.138241 20.4711 1.37886 21.1359L3.60707 22.33C3.84747 22.4588 4.01227 22.688 4.05932 22.9587L4.4951 25.4682C4.71601 26.7401 5.79582 27.6321 7.03685 27.632C7.15908 27.632 7.28311 27.6233 7.40778 27.6055L9.90532 27.2487C10.1747 27.2101 10.4414 27.2978 10.637 27.4889L12.4499 29.2603C12.9547 29.7535 13.6023 30.0001 14.25 30C14.8976 29.9999 15.5455 29.7534 16.0501 29.2603L17.863 27.4889C18.0587 27.2978 18.3253 27.2105 18.5947 27.2487L21.0923 27.6055C22.4833 27.8043 23.7622 26.8653 24.0049 25.4681L24.4407 22.9587C24.4878 22.688 24.6526 22.4589 24.8929 22.33L27.1211 21.1359C28.3618 20.4711 28.8504 18.952 28.2337 17.6775L27.1259 15.3886ZM10.8238 7.21385C12.5556 7.21385 13.9645 8.63691 13.9645 10.386C13.9645 12.1351 12.5556 13.5582 10.8238 13.5582C9.09207 13.5582 7.68315 12.1351 7.68315 10.386C7.68315 8.63691 9.09207 7.21385 10.8238 7.21385ZM9.20275 21.3213C9.03551 21.4902 8.81628 21.5747 8.59712 21.5747C8.37795 21.5747 8.15867 21.4903 7.99148 21.3213C7.65699 20.9835 7.65699 20.4357 7.99148 20.0978L19.2972 8.67868C19.6316 8.34083 20.174 8.34083 20.5085 8.67868C20.843 9.01653 20.843 9.56431 20.5085 9.90216L9.20275 21.3213ZM17.6761 22.7863C15.9443 22.7863 14.5354 21.3632 14.5354 19.6141C14.5354 17.865 15.9443 16.4419 17.6761 16.4419C19.4078 16.4419 20.8167 17.865 20.8167 19.6141C20.8167 21.3632 19.4078 22.7863 17.6761 22.7863Z" fill="white"/>
<path d="M17.6761 18.1722C16.8889 18.1722 16.2485 18.819 16.2485 19.6141C16.2485 20.4091 16.8889 21.0559 17.6761 21.0559C18.4632 21.0559 19.1036 20.4091 19.1036 19.6141C19.1036 18.819 18.4632 18.1722 17.6761 18.1722Z" fill="white"/>
<path d="M10.8238 8.94411C10.0367 8.94411 9.39628 9.59092 9.39628 10.386C9.39628 11.181 10.0367 11.8279 10.8238 11.8279C11.611 11.8279 12.2514 11.1811 12.2514 10.386C12.2513 9.59097 11.611 8.94411 10.8238 8.94411Z" fill="white"/>
</svg>
