<svg width="20" height="17" viewBox="0 0 20 17" fill="none" xmlns="http://www.w3.org/2000/svg">
<path d="M4.13091 8.09194C5.08577 8.0912 6.01084 7.76614 6.74851 7.17215C7.48618 6.57816 7.99083 5.75199 8.17647 4.83437C8.36211 3.91676 8.21727 2.96447 7.76662 2.13974C7.31597 1.31501 6.58739 0.668863 5.705 0.311372C4.82261 -0.0461191 3.841 -0.092837 2.92739 0.179177C2.01379 0.451192 1.2247 1.02511 0.694576 1.80316C0.164448 2.58121 -0.0739321 3.51526 0.0200465 4.44618C0.114025 5.37711 0.534549 6.24731 1.20998 6.90856C1.59332 7.28452 2.0487 7.5826 2.54996 7.78568C3.05121 7.98876 3.58848 8.09284 4.13091 8.09194ZM2.97771 2.91716C3.24451 2.6558 3.59555 2.49316 3.97103 2.45694C4.34651 2.42072 4.7232 2.51316 5.0369 2.71853C5.35061 2.92389 5.58192 3.22946 5.69144 3.58318C5.80095 3.9369 5.78189 4.31687 5.6375 4.65836C5.49311 4.99986 5.23232 5.28173 4.89958 5.45597C4.56683 5.63021 4.18271 5.68603 3.81266 5.61391C3.44262 5.5418 3.10954 5.34622 2.87019 5.06049C2.63084 4.77476 2.50001 4.41656 2.50001 4.04693C2.49942 3.83703 2.54134 3.62909 2.62334 3.43516C2.70533 3.24124 2.82578 3.06517 2.97771 2.91716ZM15.8691 8.906C14.9134 8.90598 13.9873 9.23061 13.2485 9.82458C12.5097 10.4186 12.004 11.2451 11.8175 12.1634C11.6311 13.0817 11.7754 14.035 12.2259 14.8607C12.6764 15.6864 13.4052 16.3336 14.2882 16.6919C15.1712 17.0502 16.1536 17.0975 17.0682 16.8257C17.9827 16.554 18.7728 15.9799 19.3038 15.2014C19.8348 14.4229 20.0738 13.4881 19.9801 12.5563C19.8864 11.6245 19.4659 10.7534 18.7901 10.0913C18.4074 9.71435 17.9522 9.41548 17.4508 9.21202C16.9494 9.00855 16.4118 8.90454 15.8691 8.906ZM17.0223 14.0827C16.7161 14.3805 16.3019 14.5472 15.8704 14.5464C15.4389 14.5456 15.0254 14.3774 14.7203 14.0785C14.4152 13.7796 14.2434 13.3744 14.2426 12.9517C14.2418 12.529 14.412 12.1232 14.7159 11.8232C14.8672 11.6739 15.047 11.5554 15.2451 11.4743C15.4432 11.3933 15.6557 11.3514 15.8704 11.351C16.0851 11.3506 16.2977 11.3917 16.4961 11.4721C16.6946 11.5524 16.8748 11.6703 17.0266 11.819C17.1784 11.9677 17.2988 12.1443 17.3807 12.3387C17.4627 12.5331 17.5047 12.7414 17.5043 12.9517C17.5039 13.1621 17.4611 13.3702 17.3784 13.5643C17.2957 13.7584 17.1746 13.9346 17.0223 14.0827L17.0223 14.0827ZM18.3101 0.358662C18.4262 0.472376 18.5183 0.607376 18.5811 0.755952C18.6439 0.904528 18.6762 1.06377 18.6762 1.22459C18.6762 1.38541 18.6439 1.54465 18.5811 1.69323C18.5183 1.8418 18.4262 1.9768 18.3101 2.09052L3.45771 16.6412C3.22298 16.8694 2.90551 16.9972 2.57482 16.9965C2.24413 16.9959 1.92717 16.8669 1.69335 16.6379C1.45952 16.4088 1.32787 16.0982 1.32724 15.7743C1.32661 15.4503 1.45704 15.1393 1.68998 14.9093L16.5424 0.358662C16.7768 0.129014 17.0947 0 17.4262 0C17.7578 0 18.0757 0.129014 18.3101 0.358662Z" fill="white"/>
</svg>
