<svg width="198" height="18" viewBox="0 0 198 18" fill="none" xmlns="http://www.w3.org/2000/svg">
<path fill-rule="evenodd" clip-rule="evenodd" d="M39.077 0.494232C36.5705 1.31644 35.8458 2.21822 35.7527 5.34793C35.7061 7.05865 35.5998 12.1378 35.8857 13.5634C36.7433 17.6347 44.3427 17.7739 48.159 16.6467C50.6123 15.9173 51.091 14.8829 51.1375 11.8659C51.1841 9.63803 51.1375 7.64215 51.1841 5.96458C51.1841 2.64922 50.4328 0.613585 46.8093 0.209111C44.5288 -0.0627496 41.0982 -0.162211 39.0704 0.494232H39.077ZM48.1988 12.5621V5.0827C48.2587 2.98076 45.1205 3.25261 43.5449 3.25261C41.8162 3.25261 38.7977 3.07359 38.7977 5.0827V12.5621C38.7977 13.6098 40.1274 14.001 41.6367 14.1071C43.0208 14.1552 44.4065 14.1153 45.7854 13.9878C47.1949 13.8817 48.1124 13.4905 48.1723 12.5489L48.1988 12.5621Z" fill="#EC2327"/>
<path fill-rule="evenodd" clip-rule="evenodd" d="M20.154 0.067904C23.824 0.067904 27.9504 -0.182136 30.2182 0.277397C32.4861 0.736931 33.6737 2.15607 33.6737 5.00788C33.6737 9.7384 32.1707 11.0899 28.8361 11.4346C28.7401 11.442 28.6436 11.442 28.5476 11.4346C26.5749 11.6035 23.9717 11.4346 20.6773 11.4346V15.6717C20.6773 16.0911 20.5119 16.4934 20.2175 16.79C19.923 17.0865 19.5236 17.2531 19.1073 17.2531C18.6909 17.2531 18.2915 17.0865 17.9971 16.79C17.7026 16.4934 17.5372 16.0911 17.5372 15.6717V12.9686C17.4769 10.9818 17.5372 8.63007 17.5372 6.66356C17.5372 5.06195 17.5976 3.34546 17.5372 1.74385C17.5097 1.55922 17.5185 1.37093 17.5633 1.18976C17.6081 1.00859 17.688 0.838103 17.7983 0.688062C17.9086 0.538024 18.0472 0.411386 18.2062 0.315405C18.3652 0.219423 18.5415 0.155985 18.7249 0.128725C19.1958 0.060719 19.6723 0.0403439 20.1473 0.067904H20.154ZM28.6147 3.2576H20.684V8.31247H27.6619C29.6748 8.31247 30.708 8.17729 30.7952 5.86614C30.8825 3.55495 30.2048 3.30491 28.6147 3.2576Z" fill="#EC2327"/>
<path d="M15.4896 15.6639V6.05848C15.5029 2.69061 14.7208 0.623807 11.0952 0.210447C8.82189 -0.0538329 5.3753 -0.175808 3.34051 0.501831C0.848384 1.32855 0.119304 2.24337 0.026512 5.42827C0.026512 6.6548 -0.03314 9.58222 0.026512 11.71V15.6471C0.0273805 15.8553 0.0683576 16.0614 0.147104 16.2534C0.225849 16.4454 0.340822 16.6198 0.485457 16.7663C0.630092 16.913 0.801557 17.029 0.99006 17.1079C1.17856 17.1867 1.38042 17.2268 1.58409 17.2259C1.9949 17.226 2.38908 17.0601 2.6808 16.7644C2.97253 16.4686 3.13818 16.0671 3.14167 15.6471V5.15721C3.14167 3.11752 6.17066 3.30048 7.9072 3.30048C9.45152 3.30048 12.507 3.02943 12.4473 5.15721V15.6742C12.4483 15.8825 12.4892 16.0884 12.568 16.2805C12.6467 16.4725 12.7617 16.6468 12.9063 16.7934C13.0509 16.9401 13.2224 17.0561 13.4109 17.135C13.5994 17.2139 13.8013 17.254 14.005 17.2531C14.4145 17.2531 14.8073 17.0867 15.097 16.7906C15.3866 16.4946 15.4896 16.0827 15.4896 15.6639Z" fill="#EC2327"/>
<path fill-rule="evenodd" clip-rule="evenodd" d="M53.2044 15.6699C53.2061 15.2469 53.3722 14.8417 53.6665 14.5426C53.9608 14.2436 54.3594 14.0748 54.7757 14.073H55.8188L62.6191 0.863383C62.7661 0.579865 62.9926 0.347117 63.2701 0.194681C63.5474 0.0422445 63.8631 -0.0230082 64.1771 0.00720434C64.4881 -0.0215702 64.8006 0.0445105 65.0745 0.197009C65.3484 0.349508 65.5714 0.581505 65.715 0.863383L72.5153 14.073H73.184C73.6002 14.0748 73.9988 14.2436 74.2932 14.5426C74.5874 14.8417 74.7536 15.2469 74.7553 15.6699C74.7544 15.8786 74.7132 16.0852 74.6337 16.2778C74.5542 16.4704 74.4382 16.6452 74.2923 16.7922C74.1464 16.9392 73.9734 17.0556 73.7832 17.1347C73.5931 17.2137 73.3895 17.254 73.184 17.2531H54.7757C54.5702 17.254 54.3665 17.2137 54.1764 17.1347C53.9862 17.0556 53.8133 16.9392 53.6673 16.7922C53.5214 16.6452 53.4054 16.4704 53.326 16.2778C53.2465 16.0852 53.2052 15.8786 53.2044 15.6699ZM64.1771 4.72298L59.3561 14.073H68.9781L64.1771 4.72298Z" fill="#117DC1"/>
<path fill-rule="evenodd" clip-rule="evenodd" d="M96.0193 0.0601988C96.2454 0.0610837 96.4701 0.102835 96.6787 0.18307C96.8882 0.263304 97.0778 0.38045 97.2369 0.527819C97.3969 0.675187 97.5233 0.849895 97.6093 1.04196C97.6946 1.23402 97.7388 1.4397 97.7373 1.64721V6.30697L107.039 0.28981C107.414 0.049561 107.877 -0.0467794 108.33 0.0213553C108.781 0.0894903 109.186 0.316702 109.458 0.654487C109.589 0.825081 109.683 1.01779 109.733 1.22156C109.783 1.42532 109.789 1.63615 109.75 1.84194C109.711 2.04773 109.628 2.24443 109.505 2.42077C109.383 2.59712 109.224 2.74963 109.038 2.86956L100.186 8.62332L109.038 14.3772C109.413 14.6205 109.668 14.9902 109.747 15.4052C109.826 15.8203 109.722 16.2471 109.458 16.5922C109.187 16.9307 108.783 17.1595 108.332 17.2301C107.88 17.3007 107.416 17.2075 107.039 16.9704L97.7373 10.9465V15.6738C97.7373 15.8801 97.6931 16.0844 97.6063 16.2749C97.5202 16.4654 97.3931 16.6384 97.2339 16.784C97.074 16.9296 96.8844 17.0449 96.6765 17.1232C96.4678 17.2016 96.2447 17.2414 96.0193 17.2405C95.5631 17.2406 95.1252 17.0761 94.8008 16.7828C94.4764 16.4896 94.2913 16.0911 94.286 15.6738V1.64721C94.2898 1.22741 94.4733 0.825786 94.7977 0.528925C95.1222 0.232063 95.5608 0.0637267 96.0193 0.0601988Z" fill="#117DC1"/>
<path fill-rule="evenodd" clip-rule="evenodd" d="M121.212 3.17891V15.6772C121.209 16.0953 121.032 16.495 120.721 16.79C120.409 17.0849 119.988 17.2513 119.548 17.2531C119.33 17.254 119.113 17.2139 118.911 17.1351C118.709 17.0563 118.526 16.9404 118.371 16.7939C118.217 16.6475 118.094 16.4735 118.01 16.2818C117.926 16.0902 117.883 15.8847 117.883 15.6772V3.17891H113.475C113.032 3.17893 112.607 3.01262 112.293 2.7162C111.978 2.41978 111.8 2.01724 111.796 1.59625C111.8 1.174 111.977 0.770043 112.292 0.471453C112.606 0.172864 113.03 0.00354855 113.475 1.03252e-08H125.621C125.84 0.00089012 126.057 0.0428845 126.26 0.123585C126.463 0.204287 126.646 0.322115 126.801 0.47034C126.955 0.618566 127.078 0.794288 127.161 0.98747C127.245 1.18065 127.286 1.38752 127.286 1.59625C127.286 2.016 127.111 2.41855 126.798 2.71536C126.486 3.01217 126.063 3.17891 125.621 3.17891H121.212Z" fill="#117DC1"/>
<path fill-rule="evenodd" clip-rule="evenodd" d="M185.866 6.92835H192.208C194.448 6.92835 195.298 7.00292 195.298 5.1183C195.298 3.76246 194.785 3.18623 192.208 3.18623H185.866V6.92835ZM185.866 14.0804H193.864C195.019 13.8364 195.298 13.2669 195.298 12.2703C195.298 10.3858 194.448 10.4671 192.208 10.4671H185.866V14.094V14.0804ZM194.013 17.2531C190.696 17.2531 187.353 17.2531 184.035 17.2531C183.634 17.2549 183.248 17.0904 182.962 16.7957C182.676 16.5009 182.514 16.0998 182.51 15.6803V1.59311C182.512 1.17231 182.672 0.769143 182.956 0.470955C183.241 0.172765 183.626 0.00356246 184.029 1.03252e-08C186.846 1.03252e-08 189.793 1.03252e-08 192.565 1.03252e-08C195.337 1.03252e-08 197.992 1.11857 197.992 4.48784C198.036 5.58779 197.894 6.68724 197.57 7.73509C197.502 7.91692 197.416 8.0917 197.317 8.25711C197.24 8.40826 197.205 8.57959 197.22 8.7504C197.234 8.92128 197.295 9.08421 197.395 9.21976C197.478 9.39364 197.552 9.57247 197.615 9.75528C197.902 10.7642 198.029 11.8152 197.992 12.8669C197.97 13.9831 197.549 15.0503 196.811 15.8584C196.074 16.6664 195.073 17.1568 194.006 17.2328L194.013 17.2531Z" fill="#117DC1"/>
<path fill-rule="evenodd" clip-rule="evenodd" d="M80.1577 0.494232C77.6515 1.31644 76.9265 2.21822 76.8336 5.34793C76.7871 7.05865 76.6805 12.1378 76.9669 13.5634C77.8244 17.6347 85.4306 17.7739 89.2467 16.6467C91.6935 15.9173 92.1717 14.8829 92.2182 11.8659C92.2654 9.63803 92.2182 7.64215 92.2654 5.96458C92.2654 2.64922 91.5138 0.613585 87.8904 0.209111C85.6096 -0.0627496 82.1788 -0.162211 80.1516 0.494232H80.1577ZM89.2802 12.5621V5.0827C89.3396 2.98076 86.2013 3.25261 84.6257 3.25261C82.897 3.25261 79.879 3.07359 79.879 5.0827V12.5621C79.879 13.6098 81.2086 14.001 82.718 14.1071C84.1017 14.1549 85.4877 14.1151 86.8661 13.9878C88.2757 13.8817 89.1934 13.4905 89.2535 12.5489L89.2802 12.5621Z" fill="#117DC1"/>
<path fill-rule="evenodd" clip-rule="evenodd" d="M132.691 0.494232C130.193 1.31644 129.453 2.21822 129.36 5.34793C129.314 7.05865 129.213 12.1378 129.513 13.5634C130.353 17.6347 137.987 17.7739 141.797 16.6467C144.248 15.9173 144.735 14.8829 144.795 11.8659C144.795 9.63803 144.795 7.64215 144.795 5.96458C144.828 2.64922 144.042 0.613585 140.419 0.209111C138.14 -0.0627496 134.709 -0.162211 132.665 0.494232H132.691ZM141.818 12.5621V5.0827C141.877 2.98076 138.726 3.25261 137.154 3.25261C135.429 3.25261 132.398 3.07359 132.398 5.0827V12.5621C132.398 13.6098 133.73 14.001 135.262 14.1071C136.642 14.155 138.024 14.1151 139.399 13.9878C140.818 13.8817 141.731 13.4905 141.797 12.5489L141.818 12.5621Z" fill="#117DC1"/>
<path fill-rule="evenodd" clip-rule="evenodd" d="M168.378 0.494232C165.864 1.31644 165.145 2.21822 165.053 5.34793C165.013 7.05865 164.906 12.1378 165.193 13.5634C166.05 17.6347 173.653 17.7739 177.47 16.6467C179.925 15.9173 180.404 14.8829 180.45 11.8659C180.49 9.63803 180.45 7.64215 180.49 5.96458C180.49 2.64922 179.738 0.613585 176.12 0.209111C173.832 -0.0627496 170.407 -0.162211 168.378 0.494232ZM177.53 12.5621V5.0827C177.59 2.98076 174.444 3.25261 172.874 3.25261C171.145 3.25261 168.118 3.07359 168.118 5.0827V12.5621C168.118 13.6098 169.449 14.001 170.965 14.1071C172.348 14.1552 173.732 14.1154 175.109 13.9878C176.526 13.8817 177.444 13.4905 177.504 12.5489L177.53 12.5621Z" fill="#117DC1"/>
<path fill-rule="evenodd" clip-rule="evenodd" d="M149.667 0.05087C153.346 0.05087 157.242 -0.165518 159.507 0.29429C161.772 0.754095 162.98 2.17409 162.98 5.02761C162.98 9.7609 161.478 11.1133 158.147 11.4649C158.051 11.4719 157.954 11.4719 157.858 11.4649C155.848 11.634 153.267 11.4987 149.996 11.4987V15.6708C149.996 16.0905 149.831 16.4929 149.537 16.7897C149.243 17.0864 148.844 17.2531 148.428 17.2531C148.012 17.2531 147.613 17.0864 147.319 16.7897C147.025 16.4929 146.859 16.0905 146.859 15.6708V12.9661C146.786 10.9781 146.82 8.6249 146.859 6.65046C146.859 5.0479 146.907 3.33714 146.859 1.73457C146.804 1.36069 146.897 0.979773 147.12 0.675491C147.342 0.371206 147.676 0.168436 148.046 0.111719C148.512 0.0473199 148.983 0.0269368 149.453 0.0508527L149.667 0.05087ZM157.872 3.26952H149.99V8.32739H156.947C158.958 8.32739 160.003 8.19215 160.097 5.88637C160.191 3.58057 159.501 3.31686 157.865 3.26952H157.872Z" fill="#117DC1"/>
</svg>
