<svg viewBox="0 0 19 24" fill="none" xmlns="http://www.w3.org/2000/svg">
<path d="M13.0611 1.50007C12.5138 0.954829 11.788 0.655274 11.0146 0.655274H3.55322C1.95674 0.655274 0.65873 1.94842 0.65873 3.53894V20.4611C0.65873 22.0516 1.95674 23.3447 3.55322 23.3447H15.4468C17.0433 23.3447 18.3413 22.0516 18.3413 20.4611V7.95452C18.3413 7.18401 18.0405 6.4609 17.4933 5.91566L13.0611 1.50007ZM11.3945 1.85499C11.7125 1.92697 12.0101 2.08419 12.2425 2.31569L16.6746 6.73127C16.907 6.96277 17.0647 7.25921 17.137 7.57607H13.1312C12.1736 7.57607 11.3945 6.7999 11.3945 5.84587V1.85499ZM17.1835 20.4611C17.1835 21.4151 16.4044 22.1913 15.4468 22.1913H3.55322C2.59561 22.1913 1.81653 21.4151 1.81653 20.4611V3.53894C1.81653 2.58491 2.59561 1.80874 3.55322 1.80874H10.2367V5.84587C10.2367 7.43639 11.5347 8.72954 13.1312 8.72954H17.1835V20.4611ZM14.1312 12.9566C14.4512 12.9566 14.7101 13.2145 14.7101 13.5333C14.7101 13.8522 14.4512 14.1101 14.1312 14.1101H4.86881C4.5488 14.1101 4.28992 13.8522 4.28992 13.5333C4.28992 13.2145 4.5488 12.9566 4.86881 12.9566H14.1312ZM14.7101 16.9937C14.7101 17.3125 14.4512 17.5705 14.1312 17.5705H4.86881C4.5488 17.5705 4.28992 17.3125 4.28992 16.9937C4.28992 16.6749 4.5488 16.417 4.86881 16.417H14.1312C14.4512 16.417 14.7101 16.6749 14.7101 16.9937Z" fill="white"/>
<path fill-rule="evenodd" clip-rule="evenodd" d="M0.5 3.53894C0.5 1.86536 1.86635 0.5 3.55322 0.5H11.0146C11.8311 0.5 12.5976 0.816632 13.1744 1.39128L17.6066 5.80687C18.1831 6.38141 18.5 7.1437 18.5 7.95452V20.4611C18.5 22.1346 17.1336 23.5 15.4468 23.5H3.55322C1.86635 23.5 0.5 22.1346 0.5 20.4611V3.53894ZM3.55322 0.810549C2.04712 0.810549 0.81746 2.03149 0.81746 3.53894V20.4611C0.81746 21.9685 2.04712 23.1895 3.55322 23.1895H15.4468C16.9529 23.1895 18.1825 21.9685 18.1825 20.4611V7.95452C18.1825 7.22432 17.8978 6.54038 17.38 6.02443L12.9479 1.60886C12.4301 1.09303 11.745 0.810549 11.0146 0.810549H3.55322ZM3.55322 1.96401C2.68599 1.96401 1.97526 2.66798 1.97526 3.53894V20.4611C1.97526 21.332 2.68599 22.036 3.55322 22.036H15.4468C16.314 22.036 17.0247 21.332 17.0247 20.4611V8.88481H13.1312C11.4443 8.88481 10.078 7.51945 10.078 5.84587V1.96401H3.55322ZM1.6578 3.53894C1.6578 2.50184 2.50522 1.65347 3.55322 1.65347H10.3954V5.84587C10.3954 7.35332 11.6251 8.57426 13.1312 8.57426H17.3422V20.4611C17.3422 21.4982 16.4948 22.3465 15.4468 22.3465H3.55322C2.50522 22.3465 1.6578 21.4982 1.6578 20.4611V3.53894ZM11.2358 1.6597L11.4303 1.70372C11.7762 1.78201 12.1011 1.95325 12.3557 2.2069L16.7879 6.62248C17.0424 6.8761 17.2136 7.19909 17.292 7.54222L17.3351 7.73134H13.1312C12.0832 7.73134 11.2358 6.88297 11.2358 5.84587V1.6597ZM11.5532 2.06301V5.84587C11.5532 6.71683 12.264 7.4208 13.1312 7.4208H16.9269C16.8488 7.20304 16.7251 7.00319 16.5614 6.84006L12.1292 2.42448C11.9669 2.26277 11.7687 2.14053 11.5532 2.06301ZM4.86881 13.1119C4.63918 13.1119 4.44865 13.2976 4.44865 13.5333C4.44865 13.7691 4.63918 13.9548 4.86881 13.9548H14.1312C14.3608 13.9548 14.5514 13.7691 14.5514 13.5333C14.5514 13.2976 14.3608 13.1119 14.1312 13.1119H4.86881ZM4.13119 13.5333C4.13119 13.1314 4.45841 12.8013 4.86881 12.8013H14.1312C14.5416 12.8013 14.8688 13.1314 14.8688 13.5333C14.8688 13.9352 14.5416 14.2653 14.1312 14.2653H4.86881C4.45841 14.2653 4.13119 13.9352 4.13119 13.5333ZM4.86881 16.5723C4.63918 16.5723 4.44865 16.758 4.44865 16.9937C4.44865 17.2295 4.63918 17.4152 4.86881 17.4152H14.1312C14.3608 17.4152 14.5514 17.2295 14.5514 16.9937C14.5514 16.758 14.3608 16.5723 14.1312 16.5723H4.86881ZM4.13119 16.9937C4.13119 16.5918 4.45841 16.2617 4.86881 16.2617H14.1312C14.5416 16.2617 14.8688 16.5918 14.8688 16.9937C14.8688 17.3956 14.5416 17.7257 14.1312 17.7257H4.86881C4.45841 17.7257 4.13119 17.3956 4.13119 16.9937Z" fill="white"/>
</svg>
