<svg width="21" height="19" viewBox="0 0 21 19" fill="none" xmlns="http://www.w3.org/2000/svg">
<path d="M4.86238 18.9303C5.01041 18.9768 5.17295 19 5.35871 19C5.63155 19 5.9189 18.9042 6.20045 18.8113L10.5252 16.498L14.8819 18.7156C15.1577 18.8578 15.4624 18.9274 15.7556 18.91C16.0255 18.8955 16.2897 18.8055 16.5074 18.6314C16.7483 18.4398 16.9398 18.1989 17.053 17.9261C17.1575 17.6764 17.1982 17.392 17.1546 17.0843L16.339 12.2429L19.9556 8.8092C20.1471 8.56829 20.2894 8.28384 20.3561 7.98778C20.4171 7.71494 20.4142 7.43339 20.3271 7.17217C20.24 6.91674 20.0746 6.67583 19.883 6.48717C19.6682 6.26948 19.4244 6.11855 19.2357 6.0692L14.2985 5.35808L12.0781 0.920104C11.9388 0.638558 11.7298 0.403452 11.4744 0.24091C11.2305 0.0870761 10.9432 0 10.6268 0C10.3191 0 10.0289 0.0899786 9.78218 0.246716C9.52675 0.406355 9.31487 0.64146 9.17555 0.920104L6.93769 5.35808L1.99467 6.0692C1.69571 6.11274 1.43158 6.24335 1.2226 6.42331C0.993297 6.62359 0.822048 6.88481 0.729167 7.17217C0.639188 7.43339 0.639188 7.72365 0.717556 8.00519C0.798827 8.29254 0.96137 8.57119 1.19357 8.80629L4.71435 12.2429L3.80005 17.183C3.75651 17.4849 3.79715 17.7693 3.90164 18.0218C4.01484 18.2947 4.2035 18.5356 4.43861 18.7243C4.57793 18.8171 4.71435 18.8839 4.86238 18.9303ZM10.888 14.8726C10.7748 14.8436 10.65 14.8262 10.5281 14.8262C10.412 14.8262 10.2901 14.8262 10.1827 14.8436C10.0782 14.8639 9.97084 14.9016 9.87216 14.9771C8.70243 15.8333 6.80417 16.6344 5.48352 17.331C5.73604 15.9088 6.22367 13.9206 6.33687 12.5651C6.3804 12.3503 6.35718 12.1036 6.27882 11.8685C6.19754 11.6305 6.05822 11.4012 5.87536 11.2154L2.4852 7.82814L7.23665 7.08219C7.50078 7.03575 7.72428 6.92255 7.91294 6.76291C8.10741 6.60037 8.27286 6.39138 8.41508 6.15628L10.5281 1.8257C11.0477 2.88222 12.3916 5.25649 12.6702 6.1824C12.7457 6.43492 12.8879 6.62939 13.0678 6.77162C13.2739 6.93126 13.541 7.03284 13.8341 7.08219L18.5943 7.72075C17.5232 8.79178 16.3042 10.1502 15.1954 11.1196C15.0067 11.2967 14.8674 11.5057 14.7891 11.7379C14.7136 11.9584 14.6933 12.2023 14.7397 12.4722L15.4857 17.2265L11.2625 15.009C11.1609 14.9597 11.0303 14.9074 10.888 14.8726Z" fill="#272727"/>
</svg>
