<svg width="30" height="20" viewBox="0 0 30 20" fill="none" xmlns="http://www.w3.org/2000/svg">
<path d="M30 0.000488281H0C0 0.000488281 2.19047e-06 1.03216 2.19047e-06 2.30488V20.0005C2.19047e-06 20.0005 1.0091 20.0005 2.25 20.0005H27.75C28.9908 20.0005 30 20.0005 30 20.0005V2.30488C30 1.03216 30 0.000488281 30 0.000488281Z" fill="#F5F5F5"/>
<path d="M17.8716 5.66491C15.4949 4.03979 12.2847 4.70422 10.7013 7.13763C9.90703 8.35223 10.2299 10.0027 11.4182 10.8152C12.6056 11.6278 14.2096 11.2978 15.0018 10.0789C15.7941 8.8601 17.3991 8.5342 18.5865 9.3425C19.7758 10.1551 20.0957 11.8055 19.3023 13.0201C20.8868 10.5826 20.2463 7.29009 17.8716 5.66491Z" fill="#FF4B55"/>
<path d="M10.7013 7.13763C9.90703 8.35223 10.2299 10.0027 11.4182 10.8152C12.6056 11.6278 14.2096 11.2978 15.0018 10.0789C15.7941 8.8601 17.3991 8.5342 18.5865 9.3425C19.7758 10.1551 20.0957 11.8055 19.3023 13.0201C17.7199 15.4619 14.5107 16.118 12.134 14.4929C9.75943 12.868 9.11684 9.57537 10.7013 7.13763Z" fill="#41479B"/>
<path d="M20.5031 3.66119L21.4427 5.10962C21.5216 5.23132 21.4897 5.39562 21.3712 5.47693L21.133 5.64057C21.0141 5.72218 20.8532 5.68937 20.7739 5.56726L19.8332 4.11918C19.754 3.99736 19.7861 3.83276 19.9048 3.75145L20.1442 3.58751C20.2632 3.50608 20.4239 3.53913 20.5031 3.66119Z" fill="#464655"/>
<path d="M21.9527 5.89442L22.8953 7.34195C22.9749 7.46419 22.9424 7.62957 22.8229 7.71058L22.5836 7.87278C22.4648 7.95331 22.305 7.9202 22.226 7.79887L21.2839 6.35283C21.2045 6.23108 21.2364 6.06635 21.3552 5.98492L21.594 5.82122C21.7127 5.73979 21.8733 5.77254 21.9527 5.89442Z" fill="#464655"/>
<path d="M21.5091 2.9726L23.9014 6.65488C23.9807 6.77675 23.9485 6.94141 23.8297 7.02266L23.5893 7.18697C23.4705 7.26822 23.3099 7.23528 23.2307 7.11341L20.8375 3.43138C20.7582 3.30944 20.7905 3.14466 20.9094 3.06341L21.1505 2.89881C21.2694 2.81786 21.4299 2.85073 21.5091 2.9726Z" fill="#464655"/>
<path d="M22.5124 2.2851L23.454 3.73637C23.5333 3.8586 23.5007 4.02363 23.3813 4.10458L23.1418 4.26683C23.0229 4.34736 22.863 4.31425 22.7841 4.19268L21.8418 2.74334C21.7625 2.62146 21.7946 2.45674 21.9135 2.37543L22.1537 2.21125C22.2725 2.13 22.4331 2.16299 22.5124 2.2851Z" fill="#464655"/>
<path d="M23.9629 4.52308L24.903 5.97134C24.9821 6.0931 24.9501 6.25752 24.8316 6.33883L24.5928 6.50253C24.4739 6.58402 24.313 6.55115 24.2338 6.42903L23.2937 4.98078C23.2146 4.85902 23.2466 4.6946 23.3651 4.61329L23.6039 4.44959C23.7229 4.36804 23.8836 4.40085 23.9629 4.52308Z" fill="#464655"/>
<path d="M7.77662 12.3627L10.1687 16.041C10.2479 16.1628 10.2159 16.3275 10.0971 16.4088L9.85752 16.5728C9.73869 16.6542 9.57809 16.6213 9.49875 16.4994L7.10672 12.8211C7.02744 12.6993 7.05949 12.5346 7.17832 12.4533L7.41791 12.2893C7.53668 12.2079 7.69735 12.2408 7.77662 12.3627Z" fill="#464655"/>
<path d="M6.77238 13.0507L7.71152 14.4954C7.79069 14.6172 7.75875 14.7816 7.64022 14.863L7.40197 15.0266C7.28321 15.1081 7.12242 15.0754 7.04303 14.9534L6.10278 13.509C6.02344 13.3872 6.05543 13.2225 6.17426 13.1411L6.41367 12.9772C6.53244 12.8959 6.69311 12.9287 6.77238 13.0507Z" fill="#464655"/>
<path d="M8.22369 15.2847L9.16389 16.7331C9.24299 16.8549 9.21094 17.0194 9.09229 17.1006L8.85334 17.2645C8.73445 17.346 8.57373 17.3131 8.4944 17.1911L7.55361 15.7429C7.47445 15.6211 7.5065 15.4565 7.62522 15.3752L7.86475 15.2112C7.98369 15.1296 8.14442 15.1626 8.22369 15.2847Z" fill="#464655"/>
<path d="M5.76809 13.7385L8.1586 17.417C8.23776 17.5387 8.2057 17.7033 8.08717 17.7846L7.84828 17.9484C7.72945 18.0299 7.56873 17.9971 7.4894 17.8751L5.09748 14.1971C5.01821 14.0752 5.05037 13.9105 5.1692 13.8292L5.40955 13.6649C5.52826 13.5837 5.68887 13.6166 5.76809 13.7385Z" fill="#464655"/>
<path d="M7.10707 7.34219L9.49875 3.66089C9.57803 3.53889 9.73869 3.50596 9.85758 3.58733L10.0971 3.75133C10.2158 3.83264 10.2478 3.9973 10.1687 4.11912L7.77604 7.79838C7.69694 7.91996 7.53692 7.95301 7.41815 7.87236L7.17961 7.7104C7.0602 7.62939 7.02774 7.46431 7.10707 7.34219Z" fill="#464655"/>
<path d="M6.10236 6.65512L8.49445 2.97308C8.57373 2.85109 8.73451 2.81816 8.8534 2.89965L9.09229 3.06347C9.21088 3.14478 9.24287 3.30926 9.16377 3.43102L6.77233 7.11323C6.69305 7.23522 6.53238 7.26822 6.4135 7.18679L6.17397 7.02278C6.05526 6.94153 6.0232 6.77693 6.10236 6.65512Z" fill="#464655"/>
<path d="M5.09707 5.97098L7.4894 2.28528C7.56867 2.16323 7.72951 2.13024 7.8484 2.21173L8.08729 2.37555C8.20582 2.45686 8.23787 2.62116 8.15889 2.74298L5.76803 6.42921C5.68887 6.55121 5.52815 6.58432 5.40926 6.50301L5.16903 6.33871C5.05014 6.25746 5.01803 6.09286 5.09707 5.97098Z" fill="#464655"/>
<path d="M19.8336 16.0409L20.7738 14.5965C20.8532 14.4746 21.014 14.4418 21.1328 14.5234L21.371 14.687C21.4895 14.7683 21.5214 14.9328 21.4423 15.0545L20.5031 16.4992C20.4238 16.6212 20.2632 16.6541 20.1444 16.5727L19.9049 16.4088C19.7862 16.3275 19.7542 16.1628 19.8336 16.0409Z" fill="#464655"/>
<path d="M21.2838 13.8146L22.2255 12.363C22.3047 12.241 22.4654 12.2079 22.5843 12.2893L22.8243 12.4533C22.9432 12.5346 22.9753 12.6995 22.896 12.8213L21.9522 14.2706C21.873 14.3921 21.713 14.4251 21.5943 14.3444L21.3563 14.1826C21.237 14.1015 21.2046 13.9366 21.2838 13.8146Z" fill="#464655"/>
<path d="M20.8375 16.7326L21.7783 15.2844C21.8575 15.1625 22.0181 15.1295 22.137 15.2108L22.3775 15.3753C22.4962 15.4566 22.5284 15.6211 22.4493 15.743L21.509 17.1914C21.4298 17.3133 21.2694 17.3463 21.1504 17.2652L20.9093 17.1005C20.7905 17.0194 20.7582 16.8546 20.8375 16.7326Z" fill="#464655"/>
<path d="M22.2892 14.495L23.2306 13.0501C23.3099 12.9284 23.4704 12.8956 23.5891 12.9768L23.8295 13.1411C23.9484 13.2224 23.9805 13.3873 23.901 13.5092L22.9597 14.9541C22.8804 15.0758 22.7199 15.1086 22.6012 15.0274L22.3608 14.8631C22.2418 14.7817 22.2098 14.6169 22.2892 14.495Z" fill="#464655"/>
<path d="M21.8421 17.4167L22.7839 15.971C22.863 15.8497 23.0228 15.8167 23.1415 15.8971L23.381 16.0594C23.5005 16.1404 23.533 16.3056 23.4536 16.4278L22.5124 17.8754C22.4331 17.9973 22.2725 18.0302 22.1537 17.949L21.9136 17.7848C21.7946 17.7034 21.7626 17.5386 21.8421 17.4167Z" fill="#464655"/>
<path d="M23.2942 15.1864L24.2337 13.739C24.313 13.617 24.4739 13.584 24.5927 13.6655L24.8313 13.8291C24.95 13.9105 24.9819 14.0751 24.9027 14.1968L23.9623 15.6423C23.8833 15.764 23.7231 15.7969 23.6043 15.7162L23.3664 15.5545C23.2473 15.4734 23.2149 15.3085 23.2942 15.1864Z" fill="#464655"/>
</svg>
