<svg viewBox="0 0 24 22" fill="none" xmlns="http://www.w3.org/2000/svg">
<path d="M2.40775 3.03395V6.42786L2.93759 5.52133C3.80188 4.04256 5.00529 2.7789 6.46567 1.82685C8.29892 0.631728 10.4347 0 12.6432 0C14.1538 0 15.619 0.290998 16.9992 0.864864C18.3318 1.41891 19.5282 2.21163 20.5557 3.22167C21.5832 4.2317 22.3897 5.40774 22.9534 6.7178C23.5372 8.07466 23.8333 9.51501 23.8333 11C23.8333 12.485 23.5372 13.9254 22.9534 15.2822C22.3897 16.5923 21.5832 17.7683 20.5557 18.7783C19.5281 19.7883 18.3318 20.5811 16.9991 21.1351C15.6189 21.709 14.1538 22 12.6432 22C11.3532 22 10.0887 21.7858 8.88417 21.3636C7.71996 20.9555 6.63794 20.3629 5.66785 19.6018C4.7073 18.8483 3.88412 17.9515 3.2209 16.9362C2.54535 15.9019 2.05499 14.7734 1.76334 13.5818C1.60764 12.9458 2.00601 12.3066 2.6522 12.1538C3.2983 12.001 3.94856 12.3918 4.10422 13.0277C4.55737 14.879 5.64585 16.5558 7.1695 17.7511C7.9306 18.3482 8.77957 18.8134 9.69259 19.1334C10.6374 19.4646 11.6303 19.6324 12.6432 19.6324C14.9886 19.6324 17.1951 18.734 18.8534 17.1038C20.5118 15.4737 21.4256 13.3051 21.4256 10.9999C21.4256 8.69483 20.5118 6.52613 18.8534 4.89604C17.1951 3.26593 14.9886 2.36751 12.6432 2.36751C10.9102 2.36751 9.23376 2.86283 7.79609 3.80006C6.55795 4.60725 5.55468 5.69955 4.86822 6.9815L4.64971 7.38954H6.76353C7.42804 7.38954 7.9674 7.91914 7.9674 8.57333C7.9674 9.2275 7.42803 9.75713 6.76353 9.75713H1.20388C0.539372 9.75713 0 9.2275 0 8.57333V3.03395C0 2.37977 0.539418 1.85016 1.20388 1.85016C1.86838 1.85016 2.40775 2.37976 2.40775 3.03395Z" fill="#409AF8"/>
</svg>
