<svg width="18" height="18" viewBox="0 0 18 18" fill="none" xmlns="http://www.w3.org/2000/svg">
<path fill-rule="evenodd" clip-rule="evenodd" d="M8.24974 7.50026V0.749479C8.24974 0.336485 7.91247 0 7.50026 0H0.749479C0.337266 0 0 0.336485 0 0.749479V7.50026C0 7.91169 0.337266 8.24974 0.749479 8.24974H7.50026C7.91247 8.24974 8.24974 7.91169 8.24974 7.50026ZM9.75026 0.749479V7.50026C9.75026 7.91169 10.0875 8.24974 10.4997 8.24974H17.2505C17.6627 8.24974 18 7.91169 18 7.50026V0.749479C18 0.336485 17.6627 0 17.2505 0H10.4997C10.0875 0 9.75026 0.336485 9.75026 0.749479ZM16.5003 6.75H11.25V1.49974H16.5003V6.75ZM10.4997 9.75026C10.0875 9.75026 9.75026 10.0867 9.75026 10.4997V17.2505C9.75026 17.662 10.0875 18 10.4997 18H17.2505C17.6627 18 18 17.662 18 17.2505V10.4997C18 10.0867 17.6627 9.75026 17.2505 9.75026H10.4997ZM11.25 16.5003V11.25H16.5003V16.5003H11.25ZM8.24974 10.4997C8.24974 10.0867 7.91247 9.75026 7.50026 9.75026H0.749479C0.337266 9.75026 0 10.0867 0 10.4997V17.2505C0 17.662 0.337266 18 0.749479 18H7.50026C7.91247 18 8.24974 17.662 8.24974 17.2505V10.4997ZM6.75 11.25V16.5003H1.49974V11.25H6.75ZM6.75 6.75H1.49974V1.49974H6.75V6.75Z" fill="#272727"/>
</svg>
