<svg width="30" height="31" viewBox="0 0 30 31" fill="none" xmlns="http://www.w3.org/2000/svg">
<path fill-rule="evenodd" clip-rule="evenodd" d="M30 15.9858C30 24.2744 23.2886 30.9858 15 30.9858C6.71143 30.9858 0 24.2744 0 15.9858C0 7.69727 6.71143 0.98584 15 0.98584C23.2886 0.98584 30 7.69727 30 15.9858Z" fill="#178DF1"/>
<path fill-rule="evenodd" clip-rule="evenodd" d="M10.4158 16.6972L18.3272 12.1543L19.8187 11.3058C20.0415 11.1772 20.2558 11.4515 20.0672 11.6143L12.4644 17.8286L12.1044 18.12C12.0272 18.1886 11.9758 18.2743 11.9587 18.3772L11.8815 19.0372L11.6587 20.8972C11.6587 20.9143 11.6587 20.94 11.6415 20.9572C11.6244 20.9743 11.6072 20.9829 11.5815 20.9829C11.5558 20.9915 11.5387 20.9829 11.5215 20.9658C11.5044 20.9486 11.4958 20.9315 11.4872 20.9058L10.8701 19.0543L10.2272 17.1515C10.2015 17.0658 10.2101 16.9715 10.2444 16.8858C10.2787 16.8086 10.3387 16.74 10.4158 16.6972ZM22.2187 8.74289L21.9101 8.85432L5.06725 14.9143C4.94725 14.9572 4.84439 15.0343 4.77582 15.1286C4.70725 15.2315 4.66439 15.36 4.67296 15.48C4.68153 15.6086 4.72439 15.7286 4.8101 15.8229C4.88725 15.9172 4.99868 15.9858 5.11868 16.0115L9.48153 17.2029L10.2872 19.5858L11.1015 21.9772C11.153 22.0886 11.2215 22.2 11.3244 22.2772C11.4187 22.3629 11.5301 22.4143 11.6587 22.44C11.7787 22.4743 11.9072 22.4658 12.0272 22.4315C12.1472 22.3972 12.2587 22.3372 12.353 22.2515L14.6072 20.1258L19.0215 23.1258C19.5701 23.4943 20.333 23.22 20.4701 22.6115L23.4015 9.66861C23.5472 9.03432 22.8701 8.50289 22.2187 8.74289Z" fill="white"/>
</svg>
