<svg xmlns="http://www.w3.org/2000/svg" width="35" height="35" viewBox="0 0 35 35" fill="none">
<path fill-rule="evenodd" clip-rule="evenodd" d="M35 17.5C35 27.17 27.17 35 17.5 35C7.83 35 0 27.17 0 17.5C0 7.83 7.83 0 17.5 0C27.17 0 35 7.83 35 17.5Z" fill="white"/>
<path fill-rule="evenodd" clip-rule="evenodd" d="M12.1505 18.3291L21.3805 13.0291L23.1205 12.0391C23.3805 11.8891 23.6305 12.2091 23.4105 12.3991L14.5405 19.6491L14.1205 19.9891C14.0305 20.0691 13.9705 20.1691 13.9505 20.2891L13.8605 21.0591L13.6005 23.2291C13.6005 23.2491 13.6005 23.2791 13.5805 23.2991C13.5605 23.3191 13.5405 23.3291 13.5105 23.3291C13.4805 23.3391 13.4605 23.3291 13.4405 23.3091C13.4205 23.2891 13.4105 23.2691 13.4005 23.2391L12.6805 21.0791L11.9305 18.8591C11.9005 18.7591 11.9105 18.6491 11.9505 18.5491C11.9905 18.4591 12.0605 18.3791 12.1505 18.3291ZM25.9205 9.04908L25.5605 9.17908L5.91049 16.2491C5.77049 16.2991 5.65049 16.3891 5.57049 16.4991C5.49049 16.6191 5.44049 16.7691 5.45049 16.9091C5.46049 17.0591 5.51049 17.1991 5.61049 17.3091C5.70049 17.4191 5.83049 17.4991 5.97049 17.5291L11.0605 18.9191L12.0005 21.6991L12.9505 24.4891C13.0105 24.6191 13.0905 24.7491 13.2105 24.8391C13.3205 24.9391 13.4505 24.9991 13.6005 25.0291C13.7405 25.0691 13.8905 25.0591 14.0305 25.0191C14.1705 24.9791 14.3005 24.9091 14.4105 24.8091L17.0405 22.3291L22.1905 25.8291C22.8305 26.2591 23.7205 25.9391 23.8805 25.2291L27.3005 10.1291C27.4705 9.38908 26.6805 8.76908 25.9205 9.04908Z" fill="#2B68A8"/>
</svg>