<svg width="157" height="50" viewBox="0 0 157 50" fill="none" xmlns="http://www.w3.org/2000/svg">
<path d="M55.5827 23.3884L56.3137 21.0617L53.8952 21.1372C53.6909 21.1372 52.2057 21.0953 50.765 20.0566C50.8723 20.0671 50.9797 20.0817 51.0893 20.0817C52.5724 20.0817 54.0069 19.1938 54.582 17.9246L55.6228 15.6315C54.3187 15.6481 53.1264 15.4848 53.1264 15.4848C53.1158 15.4827 52.1763 15.3632 51.0893 14.2597C50.3097 13.468 49.345 13.0492 48.3001 13.0492C47.8431 13.0492 47.4343 13.1308 47.0825 13.2419C47.1373 13.0555 47.1899 12.867 47.2196 12.6722C47.5522 10.5256 46.162 8.88791 46.162 8.88998L44.344 6.65123L43.217 9.28167C43.2127 9.29007 42.9283 9.90571 42.4185 10.2073C42.2648 9.43455 41.8877 8.56535 41.0809 7.73404C39.5598 6.16753 37.7082 5.93505 36.7391 5.93505C36.2904 5.93505 35.9703 5.98326 35.8922 5.99579L33.6973 6.42508C33.8236 5.93711 34.0933 5.089 34.5862 4.32461L35.7975 2.44809L32.7492 2.79365L31.7781 0.743448L29.899 1.70684L28.1611 0L26.4273 1.70684L24.5419 0.743448L23.5728 2.79365L20.5268 2.44809L21.74 4.32461C22.2331 5.089 22.5027 5.93505 22.6271 6.42302L20.5329 6.01259L20.4614 5.99992C20.356 5.98326 20.038 5.93505 19.5872 5.93505C18.6181 5.93505 16.7665 6.1696 15.2496 7.73404C14.4407 8.56329 14.0636 9.43455 13.9078 10.2073C13.4023 9.90998 13.1199 9.3026 13.1199 9.3026L11.9908 6.65756L10.1434 8.91092C9.91784 9.20206 8.80354 10.7413 9.10684 12.6764C9.1385 12.8691 9.18902 13.0576 9.24382 13.244C8.89413 13.1329 8.4854 13.0512 8.02833 13.0512C6.98342 13.0512 6.01864 13.4701 5.23709 14.2618C4.15417 15.3612 3.21885 15.4848 3.22738 15.4848C3.22738 15.4848 2.23933 15.6607 0.709962 15.6334L1.74428 17.9267C2.31945 19.1978 3.75604 20.0837 5.23709 20.0837C5.34874 20.0837 5.45611 20.0691 5.5657 20.0586C4.12898 21.0974 2.64381 21.1393 2.4647 21.1414L0 21.0617L0.745754 23.3864C1.12076 24.5842 2.37411 26.5695 4.77576 26.7831C4.51446 27.8722 3.93515 29.091 2.6628 29.6168L0.827943 30.3685L1.82852 32.1005C2.39311 33.0346 3.71818 34.1277 5.60562 34.1277C6.01437 34.1256 6.40824 34.0858 6.78752 34.0062C6.88444 34.4334 7.00655 34.8606 7.14987 35.2837C7.71225 36.9466 7.22778 38.1068 7.22145 38.1193L6.31559 40.0062L8.33796 40.5361C8.36328 40.5445 8.97412 40.7099 9.73888 40.7099C10.0865 40.7099 10.4171 40.6743 10.729 40.6009C10.9648 40.5466 11.1904 40.4733 11.4072 40.3853C11.6685 40.8523 11.9866 41.2775 12.3574 41.6585C13.653 42.9801 15.4878 43.6502 17.8134 43.6502H17.8219L19.4819 43.6293L16.0523 45.045L18.6561 46.2953C19.602 46.754 20.7247 47.2962 21.8666 47.7109L21.5421 48.5948L22.4395 49.001C22.5195 49.0366 24.2448 49.8052 27.1142 49.9685C27.1142 49.9685 27.8072 50 28.1884 50C28.5697 50 29.2543 49.9664 29.2543 49.9664C32.1047 49.799 33.8172 49.0386 33.8974 49.001L34.7968 48.5926L34.4682 47.7067C35.6438 47.2795 36.8065 46.7161 37.7124 46.2765L40.2677 45.0429L36.8486 43.625L38.515 43.6459C40.8428 43.6459 42.6798 42.9759 43.9731 41.6523C44.3418 41.2732 44.66 40.848 44.9233 40.3811C45.1403 40.4691 45.3677 40.5423 45.6037 40.5969C45.9133 40.6701 46.2441 40.7056 46.5917 40.7056C47.3437 40.7056 47.961 40.5402 47.9778 40.5361L50.0086 40.002L49.1238 38.1507C49.1027 38.1026 48.6183 36.9445 49.1807 35.2795C49.3239 34.8545 49.444 34.4273 49.5409 34.0021C49.9223 34.0817 50.3204 34.1235 50.7312 34.1235C53.1347 34.1235 54.2871 32.4418 54.5104 32.0775L55.5005 30.3643L53.6656 29.6147C52.3912 29.089 51.814 27.868 51.5549 26.781C53.9226 26.5801 55.195 24.5947 55.5827 23.3884ZM22.787 7.22513L22.7619 7.23133L22.7829 7.20421L22.787 7.22513Z" fill="white"/>
<path d="M28.1653 7.125C26.223 7.12706 24.7674 7.75951 24.4492 8.50296L28.1653 9.96051L31.8813 8.50296C31.5653 7.75951 30.1097 7.12706 28.1653 7.125Z" fill="white"/>
<path d="M28.198 45.7086H28.1938H28.1621H28.1263H28.1242C26.9466 45.7171 25.3266 45.4761 24.5451 45.25L23.6055 47.7777C24.2249 47.9976 26.3231 48.4165 28.1621 48.4165C29.997 48.4165 32.0973 47.9956 32.7145 47.7777L31.777 45.25C30.9934 45.4783 29.3755 45.7171 28.198 45.7086Z" fill="white"/>
<path d="M35.3129 43.1992C34.6135 43.593 33.0525 44.1835 32.1445 44.4579L32.9071 46.5458C34.3122 46.1645 35.4708 45.7186 36.4294 45.2411L34.8473 44.7174L35.3129 43.1992Z" fill="white"/>
<path d="M21.011 43.1992L21.4787 44.7174L19.8945 45.2411C20.8509 45.7186 22.0158 46.1645 23.4146 46.5458L24.1772 44.4579C23.2734 44.1835 21.7103 43.5909 21.011 43.1992Z" fill="white"/>
<path d="M28.155 4.70374C29.6191 4.70374 31.0558 5.05137 32.1596 5.66288C32.2608 5.32572 32.4019 4.91735 32.5936 4.49013L32.1765 4.5404L31.7384 4.58641L31.5529 4.19057L30.9946 3.01783L29.9771 3.5456L29.5812 3.74669L29.2651 3.43666L28.1593 2.34766L27.0553 3.43666L26.7393 3.74669L26.3433 3.5456L25.3195 3.01783L24.7676 4.19057L24.578 4.58641L24.1398 4.5404L23.7227 4.49013C23.9145 4.91943 24.0535 5.32572 24.1566 5.66288C25.2626 5.05137 26.6951 4.70374 28.155 4.70374Z" fill="white"/>
<path d="M50.5204 18.258C50.7101 18.323 50.9038 18.3523 51.0956 18.3523C51.9234 18.3523 52.724 17.8203 52.9999 17.211C52.9999 17.211 51.4811 17.1188 49.8484 15.4707C49.3282 14.9365 48.7783 14.7773 48.3064 14.7773C47.5733 14.7773 47.0234 15.1627 47.0234 15.1627C48.9953 16.2057 49.3976 17.881 50.5204 18.258Z" fill="white"/>
<path d="M5.23435 18.3523C5.42599 18.3523 5.61982 18.323 5.80527 18.258C6.93222 17.881 7.33669 16.2057 9.30854 15.1627C9.30854 15.1627 8.75648 14.7773 8.02766 14.7773C7.55366 14.7773 7.00381 14.9365 6.48135 15.4707C4.85093 17.1188 3.33203 17.211 3.33203 17.211C3.60378 17.8203 4.4064 18.3523 5.23435 18.3523Z" fill="white"/>
<path d="M51.0471 25.0672C51.0809 25.0693 51.1103 25.0693 51.1462 25.0693C53.2127 25.0693 53.9143 22.8682 53.9143 22.8682H53.8742C53.4951 22.8682 50.4215 22.7802 48.2495 20.0347C46.8192 18.2295 45.6478 16.642 43.3326 16.018L43.1052 15.9782L43.0546 15.7478C42.9914 15.3959 43.2337 15.0671 43.7836 14.7112C46.9772 12.6316 44.8094 9.98021 44.8094 9.98021C44.8094 9.98021 43.8973 12.1018 41.8561 12.1018C41.8075 12.1018 41.7548 12.0997 41.7043 12.0997C41.4727 12.087 41.2493 12.0786 41.0238 12.0305L40.6468 11.9573C40.6468 11.9573 41.2283 10.3844 39.8252 8.93941C38.7676 7.84834 37.4806 7.66406 36.7369 7.66406C36.3619 7.66406 36.1238 7.71212 36.1238 7.71212C36.8296 8.62952 37.3394 10.1499 36.5242 11.088C35.8206 11.8943 34.1016 11.9342 34.1016 13.1362C34.1016 13.6451 34.5798 14.2399 35.4392 14.7739C38.0241 16.3927 40.5899 18.5394 41.6558 21.4169C42.9893 25.0065 41.4874 27.3876 39.3429 28.753C39.3429 28.753 40.0148 29.3687 40.9903 29.4462C41.1882 29.4651 41.3821 29.4735 41.5633 29.4735C43.6214 29.4735 44.6852 28.5142 44.6852 28.5142C44.6852 28.5142 44.5103 29.84 43.438 31.0714C42.4501 32.2085 41.1524 32.8766 39.1742 32.9059C39.1742 32.9059 39.111 33.819 39.9875 34.6085C40.5477 35.1069 41.8433 35.2702 41.8433 35.2702C41.8433 35.2702 39.4186 35.7582 39.1511 39.3185C39.0058 41.2473 38.5107 41.9173 38.5107 41.9173H38.555C44.1817 41.9173 44.0363 37.1195 44.0363 37.1195C44.0363 37.1195 44.4281 38.5393 45.9976 38.9101C46.1871 38.9603 46.3894 38.9792 46.5832 38.9792C47.0889 38.9792 47.5269 38.8619 47.5269 38.8619C47.5269 38.8619 46.7054 37.1383 47.5206 34.7279C48.1969 32.7278 48.0873 31.2452 48.0873 31.2452C48.0873 31.2452 48.8457 32.3845 50.7249 32.3949H50.7437C52.309 32.3949 52.9914 31.2158 52.9914 31.2158C49.2397 29.6682 49.6104 24.6714 49.6104 24.6714C49.6104 24.6714 50.0971 25.0315 51.0471 25.0672ZM49.9179 30.286C48.3927 29.5384 47.4279 27.553 47.1941 26.8368C46.9412 30.7739 45.0075 33.5069 42.747 36.1372C41.5737 37.5006 41.1651 38.8264 41.1651 38.8264C41.1651 38.8264 41.3904 37.3247 42.4057 36.1017C44.5145 33.5823 46.518 30.4472 46.6675 26.8221C46.7707 24.2923 46.1155 22.2399 45.0939 20.5499C45.6647 22.3112 45.5847 24.4682 43.6445 26.4809C43.6445 26.4809 47.5059 21.8796 42.1067 17.1635C39.9453 15.3688 37.5817 14.2609 36.3642 13.4755C40.7627 14.9017 42.9094 13.331 42.9094 13.331C41.5041 14.5415 39.6862 14.5205 38.5591 14.3467C38.8646 14.4954 39.1828 14.6503 39.5261 14.8326C43.2337 16.8347 46.5664 20.1289 47.1351 24.6923V24.6566C47.9988 29.1362 49.9179 30.286 49.9179 30.286Z" fill="white"/>
<path d="M14.4849 35.2702C14.4849 35.2702 15.7805 35.109 16.3409 34.6085C17.215 33.819 17.1541 32.9059 17.1541 32.9059C15.1739 32.8787 13.8783 32.2085 12.884 31.0735C11.8201 29.842 11.6431 28.5164 11.6431 28.5164C11.6431 28.5164 12.7069 29.4755 14.763 29.4755C14.9484 29.4755 15.1401 29.4671 15.3381 29.4482C16.3135 29.3708 16.9876 28.7551 16.9876 28.7551C14.843 27.3897 13.339 25.0065 14.6703 21.4169C15.7384 18.5415 18.3021 16.3927 20.887 14.7739C21.7465 14.2399 22.2246 13.6473 22.2246 13.1362C22.2246 11.9342 20.5077 11.8943 19.804 11.088C18.989 10.1499 19.5008 8.62732 20.2044 7.71212C20.2044 7.71212 19.9705 7.66406 19.5934 7.66406C18.8519 7.66406 17.5648 7.84834 16.5073 8.93941C15.1 10.3844 15.6837 11.9573 15.6837 11.9573L15.3065 12.0305C15.0812 12.0786 14.8557 12.087 14.6261 12.0997C14.5735 12.0997 14.5271 12.1018 14.4766 12.1018C12.4311 12.1018 11.5231 9.98227 11.5231 9.98227C11.5231 9.98227 9.35536 12.6337 12.5468 14.7131C13.0967 15.0692 13.3369 15.3981 13.2737 15.7498L13.223 15.9802L12.9913 16.02C10.6804 16.6441 9.50708 18.2316 8.07669 20.0367C5.90894 22.7781 2.8396 22.8682 2.45634 22.8682H2.41406C2.41406 22.8682 3.11564 25.0693 5.18218 25.0693C5.21592 25.0693 5.24538 25.0693 5.28117 25.0672C6.23123 25.0336 6.71995 24.6714 6.71995 24.6714C6.71995 24.6714 7.08657 29.6662 3.33893 31.2158C3.33893 31.2158 4.0215 32.3949 5.58666 32.3949H5.60565C7.48677 32.3845 8.24313 31.2452 8.24313 31.2452C8.24313 31.2452 8.13354 32.7278 8.80771 34.7279C9.62285 37.1383 8.80551 38.8619 8.80551 38.8619C8.80551 38.8619 9.24372 38.9792 9.74718 38.9792C9.94307 38.9792 10.1433 38.9603 10.3308 38.9101C11.8979 38.5393 12.2919 37.1195 12.2919 37.1195C12.2919 37.1195 12.1487 41.9173 17.7755 41.9173H17.8154C17.8154 41.9173 17.3226 41.2473 17.1793 39.3185C16.9097 35.7582 14.4849 35.2702 14.4849 35.2702ZM13.5813 36.1372C11.3209 33.5069 9.38909 30.7739 9.13413 26.8368C8.90037 27.551 7.93971 29.5384 6.41461 30.286C6.41461 30.286 8.33151 29.1362 9.19319 24.6566V24.6923C9.76411 20.1311 13.0946 16.8347 16.8042 14.8326C17.1435 14.6484 17.4657 14.4934 17.7691 14.3467C16.6421 14.5205 14.8241 14.5415 13.419 13.331C13.419 13.331 15.5656 14.9017 19.9621 13.4755C18.7446 14.2609 16.383 15.3688 14.2216 17.1635C8.82024 21.8796 12.6838 26.4809 12.6838 26.4809C10.7415 24.4662 10.6637 22.3112 11.2345 20.5499C10.2107 22.242 9.5576 24.2923 9.66292 26.8221C9.81036 30.4472 11.8137 33.5823 13.9182 36.1017C14.9358 37.3226 15.1654 38.8264 15.1654 38.8264C15.1654 38.8264 14.7524 37.5006 13.5813 36.1372Z" fill="white"/>
<path d="M23.9938 17.73C24.0864 17.8286 24.177 17.9352 24.2635 18.0421C24.2845 18.0672 24.3034 18.0903 24.3244 18.1197C24.4046 18.2264 24.4867 18.3395 24.5647 18.4546C24.5815 18.4777 24.5985 18.5049 24.6173 18.5322C24.7122 18.6746 24.8007 18.8211 24.8891 18.9719C25.7001 20.3646 27 21.1961 28.1522 21.1982C29.3066 21.1961 30.6022 20.3646 31.4175 18.9719C31.5081 18.817 31.5987 18.6662 31.6933 18.5259C31.7081 18.5049 31.723 18.4862 31.7355 18.4651C31.8156 18.3459 31.8999 18.2285 31.9884 18.1154C32.0073 18.0903 32.0241 18.0694 32.041 18.0485C32.1316 17.9374 32.2243 17.8286 32.3191 17.7279C32.3359 17.7112 32.3485 17.6966 32.3633 17.6841C32.7761 17.263 33.2691 16.9426 33.9137 16.7646L33.6272 16.5992H33.6104L32.4685 15.9395L31.2953 15.2715L28.1606 16.9677L28.1522 16.9615L28.1458 16.9677L25.0091 15.2715L23.8379 15.9374L22.694 16.5971H22.6813L22.3906 16.7625C23.0373 16.9405 23.5282 17.2568 23.9432 17.6777C23.9621 17.6945 23.9748 17.7134 23.9938 17.73ZM26.884 17.594H28.2111H29.5362V18.4987C29.2246 18.1197 28.6178 18.1971 28.6178 18.1971V19.5018C28.6178 19.5018 28.6409 20.1426 28.8663 20.4213H28.2111H27.5539C27.7835 20.1448 27.8046 19.5018 27.8046 19.5018V18.1971C27.8046 18.1971 27.2 18.1197 26.884 18.4987V17.594Z" fill="white"/>
<path d="M27.8877 15.8381V10.5418L24.4961 9.39844L25.3913 14.5314L27.8877 15.8381ZM27.1588 11.8423V12.6926L26.9945 12.6172C26.9861 12.6109 26.746 12.5565 26.3246 12.2256C25.6295 11.6895 25.6169 11.1953 25.6169 11.1953L27.1588 11.8423Z" fill="white"/>
<path d="M30.9359 14.5314L31.827 9.39844L28.4375 10.5418V15.8381L30.9359 14.5314ZM29.1665 11.8423L30.7083 11.1972C30.7083 11.1972 30.6958 11.6916 29.9985 12.2278C29.5793 12.5586 29.337 12.613 29.3286 12.6193L29.1643 12.6946V11.8423H29.1665Z" fill="white"/>
<path d="M23.0965 28.1172C23.4273 28.2367 23.8276 28.2619 24.0319 28.2619C24.0404 28.2367 24.0508 28.2052 24.0615 28.1675C24.0803 28.1068 24.0973 28.0482 24.11 27.9811C24.1668 27.6879 24.1879 27.3549 24.192 27.1413C24.0529 27.0555 23.8571 26.9026 23.7476 26.6744C23.6212 26.4105 23.4421 26.2891 23.1787 26.2891C22.8375 26.2891 22.471 26.4922 22.315 26.5884C22.1909 27.3194 22.7321 27.9832 23.0965 28.1172Z" fill="white"/>
<path d="M30.5932 25.3086C29.9633 25.9893 28.7309 27.1747 28.6698 27.2355L28.5961 27.3108L24.701 27.2501C24.6988 27.6333 24.6356 27.9601 24.5746 28.1987C24.5641 28.2385 24.5536 28.2804 24.543 28.3223L29.1775 29.1495C29.6599 28.8144 30.9871 27.8511 31.5011 27.4741C31.1261 26.9296 31.0903 26.2845 31.1745 25.8302C30.9302 25.6731 30.7427 25.4971 30.5932 25.3086Z" fill="white"/>
<path d="M31.124 20.6509C30.2265 21.5367 29.365 21.8634 28.5961 21.9388C28.457 21.9535 28.3159 21.9619 28.1727 21.9619H28.162H28.1536C28.0104 21.9619 27.8672 21.9535 27.7281 21.9388C27.5933 21.9262 27.4522 21.9053 27.3111 21.8739C27.2604 22.0728 27.1972 22.4895 27.3784 22.8833C27.5406 23.2414 27.8714 23.5073 28.3538 23.6834L28.516 23.7461L28.5181 23.9199C28.5181 23.9722 28.556 25.099 29.7926 25.411C29.9948 25.2037 30.1781 25.0173 30.313 24.8624C30.0601 24.2718 30.1928 23.6686 30.5594 23.3733C30.5426 23.4361 30.3825 24.9147 31.5749 25.4635L31.7708 25.5556L31.7117 25.7629C31.6927 25.8257 31.2946 27.2561 32.7376 27.788L32.9925 27.8843L32.8787 28.1315C32.8535 28.1859 32.2869 29.4844 33.6204 30.2215H36.5126V27.9388C35.4847 27.8131 35.0486 26.9922 34.9369 26.4101C34.4588 26.3284 34.088 26.1231 33.8351 25.7881C33.2284 24.9943 33.7509 24.2676 33.7572 24.2278C33.7551 24.2341 33.7572 25.0089 34.2375 25.4864C34.4756 25.7168 34.7579 25.8948 35.1855 25.9346L35.3961 25.9535L35.4152 26.1671C35.4192 26.2131 35.5352 27.2603 36.5147 27.4257L36.5126 22.7639C36.5126 22.0414 36.7255 21.3147 36.9804 20.6445H31.124V20.6509Z" fill="white"/>
<path d="M23.3474 22.7859L23.2695 25.7554L23.6086 25.8057L24.4386 22.9574L24.0173 22.082L23.3474 22.7859Z" fill="white"/>
<path d="M32.4935 36.409C32.5189 36.409 32.5484 36.4132 32.5758 36.4195C33.0919 36.566 33.2225 38.4173 34.1283 38.5829C34.2168 38.6016 34.2989 38.6059 34.3706 38.6059C34.6318 38.6059 34.7877 38.4948 34.9562 38.2981C34.9562 38.2981 34.5012 37.586 34.1599 37.1063C33.707 36.4782 33.3553 35.7179 32.5126 35.7179C32.4935 35.7179 32.4683 35.7179 32.4473 35.7199C32.1692 35.7347 31.9985 35.8687 31.9985 35.8687C31.6572 35.6552 31.3392 35.5818 31.0505 35.5818C30.5219 35.5818 30.1111 35.8226 29.9066 35.8226H29.8983L28.0149 35.6383C27.72 35.6112 27.4883 35.3159 27.4041 35.2006C27.3831 35.1692 27.3724 35.1504 27.3724 35.1504C27.3724 35.1001 27.3724 35.0478 27.3683 35.0017C27.3051 33.4708 26.1127 32.8154 25.6893 32.8048C25.6893 32.8048 25.7398 32.5137 25.624 32.4027L25.209 32.9032L23.846 32.2227L24.8171 33.3515L23.9934 34.2708C23.8902 34.3755 23.9028 34.5179 23.945 34.5766L24.301 34.8887L24.7519 34.6164C24.775 34.5995 24.8151 34.5955 24.8656 34.5955C24.9899 34.5955 25.1774 34.6268 25.3459 34.6268C25.5291 34.6268 25.6893 34.587 25.7082 34.4153C25.6514 34.9829 25.1226 35.9692 25.4702 36.7441L25.7273 37.3284L24.063 37.0896L23.2835 38.3985C23.0434 38.8341 23.0055 39.3054 23.2373 39.5609L23.5279 39.9231C23.5279 39.9231 23.9366 39.4917 24.0292 39.209L23.8965 39.0645C23.7849 38.9431 23.7912 38.8341 23.8587 38.7021L24.3474 37.8959L26.3128 38.3566L26.4161 38.1808C26.5487 37.9608 26.7405 37.8938 26.9511 37.8938C27.0375 37.8938 27.126 37.9043 27.2186 37.9189C27.5832 37.9902 28.1836 38.0865 28.7839 38.0865C29.4432 38.0865 30.0963 37.9692 30.4438 37.5817C31.1559 38.631 32.5989 38.7986 32.4852 39.3305L32.106 41.1274C32.3567 41.1169 32.5989 41.1002 32.8285 41.0687L33.1888 39.1985C33.2289 38.9954 33.2668 38.721 33.2668 38.721C33.1276 38.5807 32.7907 38.2834 32.6011 37.9232C32.3461 37.4372 32.4852 37.1839 32.2472 36.5514C32.2555 36.5556 32.3271 36.409 32.4935 36.409ZM25.1416 33.7829C25.0446 33.7808 24.9752 33.6991 24.9793 33.6027C24.9878 33.5106 25.0658 33.4372 25.1604 33.4457C25.2574 33.4498 25.3269 33.5336 25.3228 33.6257C25.3142 33.718 25.2343 33.7892 25.1416 33.7829Z" fill="white"/>
<path d="M22.4533 38.1029C22.4533 38.1029 23.1041 37.8368 23.1631 37.6463L23.0767 37.4306C23.0156 37.2903 23.0241 37.1374 23.142 37.0536L23.8456 36.5699L25.0212 36.7939C25.0212 36.7939 24.8083 36.53 24.8295 36.1762L23.7088 35.9395L22.6512 36.5803C22.1983 36.9175 22.1645 37.4683 22.3141 37.7951L22.4533 38.1029Z" fill="white"/>
<path d="M30.7695 41.1481C30.9802 41.1397 31.2118 41.1354 31.4668 41.1354C31.4668 41.1354 32.0715 39.3784 32.105 39.3219C31.766 39.1732 31.0623 38.8025 30.7906 38.6328C30.9697 38.899 31.4057 39.2047 31.3194 39.4392L30.7695 41.1481Z" fill="white"/>
<path d="M36.5203 30.7266H19.8086V36.9757C19.8086 39.5307 21.6689 41.1306 24.4137 41.1306C26.7078 41.1306 27.3122 41.2186 28.1655 42.0606C28.7533 41.4782 29.24 41.2605 30.2384 41.1789L30.2615 41.0826L30.7882 39.4638C30.7587 39.4281 29.8972 38.4542 29.8972 38.4542C29.5559 38.5673 29.2695 38.5861 28.7871 38.5861C28.2919 38.5861 27.7337 38.5297 27.1291 38.4167C27.068 38.4019 27.0111 38.3977 26.9542 38.3977C26.8805 38.3977 26.8742 38.404 26.8553 38.4396L26.7499 38.6114L26.5582 38.9255L26.198 38.8439L24.5948 38.469L24.3757 38.8291L24.4094 38.8669L24.6054 39.0804L24.519 39.359C24.401 39.7233 24.0176 40.1485 23.9018 40.2657L23.5014 40.6929L23.1371 40.2344L22.8633 39.893C22.5745 39.5726 22.5073 39.0804 22.6694 38.5652C22.6651 38.5695 22.6588 38.5716 22.6526 38.5716L22.1997 38.7579L21.9952 38.3181L21.852 38.006C21.6057 37.4574 21.696 36.6554 22.3598 36.1716L23.6512 35.447L24.8793 35.6878C24.9088 35.5705 24.9529 35.1517 24.9887 35.0448C24.9656 35.0427 24.9425 35.0366 24.9192 35.0366L24.2115 35.2982L23.5288 34.8292C23.5288 34.8292 23.2613 34.5736 23.5035 34.3181L24.165 33.3233L22.4903 31.2333L25.0645 32.2846L25.2353 32.073L25.5828 31.6606L25.9768 32.0332C26.0884 32.1401 26.1516 32.2721 26.1831 32.4041C26.893 32.6783 28.1634 33.4888 28.275 34.8061L27.8769 34.9653V34.9758C27.9675 35.0825 28.0433 35.1265 28.0664 35.1307L29.9035 35.3107C29.9498 35.3025 30.0088 35.2816 30.0741 35.2627C30.3016 35.1851 30.645 35.0742 31.0515 35.0742C31.3823 35.0742 31.7024 35.1496 32.01 35.292C32.1238 35.2501 32.2629 35.2186 32.423 35.2081L32.5113 35.206C33.4952 35.206 33.9839 35.937 34.3759 36.5192C34.4411 36.6197 34.5063 36.7161 34.5738 36.8103C34.9171 37.292 35.3658 37.9978 35.3848 38.027L35.587 38.3411L35.3384 38.628C35.1468 38.848 34.8603 39.1055 34.3673 39.1055C34.2662 39.1055 34.1546 39.0951 34.0346 39.0721C33.9293 39.0532 33.8344 39.0218 33.7418 38.9841C33.727 39.0804 33.708 39.1956 33.689 39.2941L33.3667 40.9652C35.2943 40.4941 36.5182 39.047 36.5182 36.9778L36.5203 30.7266Z" fill="#FFDD2D"/>
<path d="M19.8071 30.2276H32.8027C32.1538 29.5617 32.1624 28.7177 32.3288 28.169C32.1392 28.0789 31.9833 27.9699 31.8443 27.8527C31.3366 28.2254 29.7861 29.348 29.3817 29.6286L29.2953 29.6873L24.1952 28.77H24.092C23.9698 28.77 23.7908 28.7659 23.5948 28.7427C23.54 28.9711 23.3421 29.1282 23.1145 29.1282C23.0892 29.1282 23.0597 29.1261 23.0323 29.1197C22.8996 29.0967 22.7839 29.0296 22.7059 28.9188C22.6258 28.8098 22.5943 28.6799 22.6174 28.546L22.6363 28.437C22.1097 28.0685 21.6252 27.2453 21.84 26.3784L21.861 26.2863L21.9349 26.2339C21.9454 26.2255 22.0338 26.1669 22.1645 26.0915L21.7937 26.0349C21.6547 26.0098 21.562 25.882 21.5831 25.746C21.6062 25.6077 21.7368 25.5093 21.8737 25.5365L22.7564 25.6747L22.8365 22.5836L24.151 21.2014L24.9705 22.9167L24.1046 25.8904L24.8842 26.0119C25.021 26.0328 25.1158 26.1607 25.0948 26.3009C25.0737 26.4244 24.9684 26.5103 24.8441 26.5103C24.8314 26.5103 24.8167 26.5103 24.804 26.5083L24.1699 26.4057C24.1784 26.4244 24.1909 26.4349 24.1994 26.456C24.2668 26.5941 24.4164 26.6946 24.5048 26.7365L28.3937 26.7972C28.5579 26.638 28.9667 26.2401 29.3859 25.8192C28.4296 25.4591 28.0819 24.638 28.0229 24.0936C27.4879 23.8673 27.1192 23.5282 26.9149 23.0862C26.6662 22.5397 26.7547 21.993 26.82 21.7271C26.3018 21.5386 25.7563 21.1952 25.2001 20.6465H19.3438C19.5945 21.3167 19.8071 22.0434 19.8071 22.7659V30.2276Z" fill="#FFDD2D"/>
<path d="M25.1702 33.4421C25.0752 33.4336 24.995 33.507 24.9887 33.5994C24.9823 33.6958 25.0541 33.7777 25.1512 33.7799C25.244 33.7882 25.3264 33.7168 25.3348 33.6224C25.3348 33.5301 25.2674 33.4441 25.1702 33.4421Z" fill="black"/>
<path d="M36.4955 44.7733L35.5327 44.4068L35.7981 43.4184L36.0909 42.3398C36.0909 42.3398 34.3846 43.2591 31.981 43.9503C31.2984 44.145 30.7823 44.233 30.7823 44.233V44.966C30.7823 44.966 29.4973 45.188 28.1975 45.188H28.1827H28.1638H28.1385H28.1237C26.8241 45.188 25.539 44.966 25.539 44.966V44.233C25.539 44.233 25.0206 44.145 24.3403 43.9503C21.9366 43.2591 20.2324 42.3398 20.2324 42.3398L20.5209 43.4184L20.7927 44.4068L19.8279 44.7733L18.7578 45.1712C19.9859 45.7597 21.6859 46.6183 23.2428 47.0414L22.8762 48.0383C22.8762 48.0383 24.8501 48.9326 28.1385 48.9408V48.943H28.1491H28.1638H28.1765H28.1848V48.9408C31.4775 48.9326 33.4492 48.0383 33.4492 48.0383L33.0805 47.0414C34.6373 46.6183 36.3417 45.7597 37.5634 45.1712L36.4955 44.7733ZM19.8995 45.2383L21.4837 44.7146L21.016 43.1963C21.7133 43.5901 23.2786 44.1807 24.1843 44.4551L23.4197 46.543C22.0208 46.1596 20.8559 45.7136 19.8995 45.2383ZM28.1638 48.4172C26.3247 48.4172 24.2244 47.9964 23.6073 47.7785L24.5467 45.2508C25.3261 45.4769 26.9483 45.7179 28.1258 45.7094H28.128H28.1638H28.1954H28.1996C29.3773 45.7179 30.995 45.4769 31.7788 45.2508L32.7161 47.7785C32.0989 47.9985 30.0008 48.4172 28.1638 48.4172ZM32.9036 46.543L32.1411 44.4551C33.049 44.1807 34.6099 43.5901 35.3094 43.1963L34.8438 44.7146L36.4259 45.2383C35.4673 45.7136 34.3087 46.1596 32.9036 46.543Z" fill="black"/>
<path d="M28.172 5.31665C30.1312 5.31665 31.6983 5.96162 32.5642 6.65067C32.5642 6.65067 32.8212 5.11143 33.6997 3.75221L32.1218 3.9303L31.2961 2.1857L29.7098 2.9983L28.172 1.48633L26.6383 2.9983L25.05 2.1857L24.2263 3.9303L22.6484 3.75221C23.5268 5.11143 23.7839 6.65067 23.7839 6.65067C24.6518 5.96162 26.2149 5.31665 28.172 5.31665ZM24.1546 4.5418L24.5928 4.5878L24.7824 4.19211L25.3343 3.01923L26.3581 3.54493L26.7542 3.74602L27.0702 3.43599L28.1741 2.34698L29.2801 3.43599L29.5961 3.74602L29.9921 3.54493L31.0097 3.01923L31.5679 4.19211L31.7532 4.5878L32.1914 4.5418L32.6085 4.49153C32.4168 4.92082 32.2756 5.32712 32.1744 5.66427C31.0706 5.05277 29.6339 4.70514 28.1699 4.70514C26.7122 4.70514 25.2775 5.05277 24.1694 5.66427C24.0663 5.32712 23.9272 4.91876 23.7354 4.49153L24.1546 4.5418Z" fill="black"/>
<path d="M51.1483 25.7399C53.6826 25.7399 54.5295 23.1766 54.5652 23.0676L54.8475 22.165L53.8974 22.1943H53.8933C53.5583 22.1943 50.7628 22.1211 48.7805 19.6164L48.593 19.3839C47.2975 17.7462 46.0693 16.1901 43.8742 15.4801C43.9374 15.4237 44.028 15.3524 44.1523 15.2728C45.3173 14.5106 45.9956 13.5849 46.1662 12.5107C46.4148 10.8939 45.3784 9.60583 45.332 9.55349L44.6263 8.6865L44.1861 9.71477C44.1566 9.77964 43.4149 11.4258 41.8561 11.4258H41.7402C41.6328 11.4194 41.5316 11.4152 41.4306 11.4069C41.4854 10.6718 41.3505 9.53463 40.3141 8.46876C39.069 7.18488 37.5396 6.99219 36.7393 6.99219C36.3115 6.99219 36.0273 7.04467 35.9976 7.04879L34.9318 7.25828L35.589 8.11893C36.1051 8.78277 36.5728 10.008 36.0187 10.6488C35.8418 10.852 35.4774 11.0174 35.1276 11.1828C34.4093 11.5117 33.4297 11.9682 33.4297 13.1326C33.4297 13.8865 34.0175 14.6739 35.0834 15.3441C38.2392 17.3169 40.1855 19.3754 41.0261 21.6476C42.3259 25.1431 40.63 27.1368 38.9827 28.186L38.2433 28.6592L38.89 29.2498C38.9763 29.3252 39.7685 30.0185 40.9376 30.119C41.1589 30.1336 41.3715 30.1463 41.5696 30.1463C42.3195 30.1463 42.9579 30.0289 43.476 29.8719C43.3328 30.1211 43.1579 30.3744 42.9368 30.6299C41.9952 31.7148 40.8365 32.209 39.1702 32.2342L38.5508 32.2446L38.5024 32.8623C38.496 32.9861 38.4498 34.1315 39.5409 35.1053C39.7074 35.2562 39.9096 35.3797 40.1202 35.4823C39.3809 36.1441 38.6288 37.2959 38.4835 39.2708C38.3613 40.919 37.9652 41.5284 37.961 41.5347L37.2764 42.5735L38.513 42.5901C40.5564 42.5901 42.1216 42.0289 43.2064 40.919C43.8468 40.2613 44.2134 39.52 44.4304 38.8624C44.7864 39.164 45.2457 39.4279 45.8439 39.5682C46.0714 39.6204 46.3201 39.6498 46.5876 39.6498C47.1648 39.6498 47.6472 39.5284 47.702 39.5158L48.492 39.3065L48.1422 38.5735C48.1169 38.5148 47.4576 37.0445 48.1674 34.9462C48.4729 34.0394 48.6288 33.2268 48.7046 32.5943C49.2018 32.8519 49.8676 33.0654 50.7291 33.0677C52.684 33.0677 53.5456 31.6164 53.5857 31.5555L53.9712 30.8897L53.2571 30.5965C50.9272 29.6351 50.4111 27.0531 50.3078 25.654C50.5184 25.6938 50.7586 25.7316 51.0303 25.7399H51.1483ZM52.9958 31.2142C52.9958 31.2142 52.3132 32.3933 50.748 32.3933H50.7291C48.8501 32.3827 48.0916 31.2435 48.0916 31.2435C48.0916 31.2435 48.2012 32.7263 47.5229 34.7264C46.7076 37.1367 47.5293 38.8603 47.5293 38.8603C47.5293 38.8603 47.091 38.9775 46.5855 38.9775C46.3917 38.9775 46.1894 38.9587 45.9999 38.9084C44.4304 38.5377 44.0386 37.1179 44.0386 37.1179C44.0386 37.1179 44.1839 41.9158 38.5571 41.9158H38.513C38.513 41.9158 39.008 41.2457 39.1554 39.3169C39.4229 35.7567 41.8478 35.2687 41.8478 35.2687C41.8478 35.2687 40.5542 35.1074 39.9938 34.6069C39.1174 33.8173 39.1786 32.9043 39.1786 32.9043C41.1589 32.8771 42.4545 32.2069 43.4424 31.0697C44.5126 29.8383 44.6895 28.5126 44.6895 28.5126C44.6895 28.5126 43.6256 29.4718 41.5676 29.4718C41.3864 29.4718 41.1926 29.4634 40.9945 29.4446C40.0212 29.3671 39.3471 28.7514 39.3471 28.7514C41.4895 27.386 42.9937 25.0027 41.6602 21.4132C40.5922 18.5378 38.0263 16.3891 35.4436 14.7703C34.5841 14.2362 34.1059 13.6436 34.1059 13.1326C34.1059 11.9306 35.8249 11.8927 36.5307 11.0845C37.3437 10.1461 36.8339 8.6237 36.1283 7.70851C36.1283 7.70851 36.3663 7.6603 36.7413 7.6603C37.4849 7.6603 38.7721 7.84665 39.8295 8.93566C41.2347 10.3807 40.6511 11.9535 40.6511 11.9535L41.0282 12.0268C41.2537 12.075 41.477 12.0834 41.7087 12.0939C41.7593 12.0939 41.8098 12.096 41.8603 12.096C43.9016 12.096 44.8138 9.97439 44.8138 9.97439C44.8138 9.97439 46.9836 12.6278 43.79 14.7053C43.2401 15.0613 42.9978 15.3902 43.0611 15.742L43.1117 15.9724L43.3391 16.0122C45.6543 16.6362 46.8256 18.2237 48.2559 20.0289C50.4278 22.7744 53.5015 22.8624 53.8806 22.8624H53.9207C53.9207 22.8624 53.2191 25.0635 51.1525 25.0635C51.1188 25.0635 51.0893 25.0635 51.0535 25.0614C50.1035 25.0279 49.6168 24.6656 49.6168 24.6656C49.6168 24.6656 49.2441 29.6645 52.9958 31.2142Z" fill="black"/>
<path d="M46.7077 15.7581C47.6535 16.2585 48.2034 16.9287 48.6858 17.5236C49.1597 18.1037 49.6106 18.6627 50.314 18.8952C50.5648 18.9811 50.8302 19.0209 51.0999 19.0209C52.1573 19.0209 53.2192 18.3779 53.6214 17.4879L54.0259 16.5957L53.0464 16.5372C53 16.535 51.7403 16.4218 50.3374 14.9957C49.7601 14.4115 49.0628 14.1035 48.3107 14.1035C47.3923 14.1035 46.7118 14.5601 46.636 14.6062L45.7344 15.2366L46.7077 15.7581ZM48.3129 14.778C48.7847 14.778 49.3345 14.9371 49.855 15.4711C51.4874 17.1193 53.0064 17.2114 53.0064 17.2114C52.7304 17.8188 51.9299 18.3528 51.1019 18.3528C50.9104 18.3528 50.7186 18.3235 50.5269 18.2586C49.4041 17.8816 49.0017 16.2062 47.0278 15.1633C47.0278 15.1633 47.5799 14.778 48.3129 14.778Z" fill="black"/>
<path d="M47.1382 24.6558V24.6894C46.5695 20.1281 43.2368 16.8339 39.5292 14.8296C39.1859 14.6474 38.8699 14.4925 38.5623 14.3437C39.6914 14.5175 41.5094 14.5384 42.9124 13.3281C42.9124 13.3281 40.7658 14.8988 36.3672 13.4726C37.5849 14.2579 39.9506 15.3658 42.1098 17.1605C47.5091 21.8767 43.6455 26.4778 43.6455 26.4778C45.5858 24.4652 45.6657 22.3082 45.0949 20.547C46.1166 22.237 46.7696 24.2893 46.6684 26.8192C46.519 30.4443 44.5156 33.5793 42.4068 36.0988C41.3935 37.3218 41.1661 38.8234 41.1661 38.8234C41.1661 38.8234 41.5747 37.4976 42.7481 36.1343C45.0085 33.504 46.9402 30.7709 47.193 26.8339C47.4269 27.548 48.3896 29.5354 49.9169 30.2829C49.921 30.2852 48.0019 29.1354 47.1382 24.6558Z" fill="black"/>
<path d="M18.3693 41.5346C18.3672 41.5284 17.9754 40.919 17.8491 39.2708C17.7016 37.2959 16.9515 36.1441 16.2101 35.4823C16.425 35.3818 16.6229 35.2583 16.7894 35.1053C17.8786 34.1315 17.8321 32.9859 17.8258 32.8623L17.7837 32.2445L17.1601 32.234C15.4981 32.2069 14.3372 31.7126 13.3956 30.6299C13.1765 30.3744 12.9996 30.1211 12.8564 29.8718C13.3745 30.0289 14.0086 30.1461 14.7607 30.1461C14.963 30.1461 15.1715 30.1336 15.3927 30.119C16.5618 30.0185 17.354 29.3273 17.4424 29.2498L18.0891 28.6592L17.3497 28.186C15.696 27.1346 14.0065 25.141 15.3042 21.6476C16.1447 19.3754 18.0891 17.3169 21.249 15.3441C22.315 14.6739 22.8984 13.8865 22.8984 13.1326C22.8984 11.9682 21.921 11.5095 21.2027 11.1828C20.8529 11.0174 20.4886 10.852 20.3117 10.6488C19.7555 10.0101 20.2252 8.78277 20.7392 8.11893L21.4007 7.25814L20.3306 7.04879C20.299 7.04452 20.0188 6.99219 19.5891 6.99219C18.7885 6.99219 17.2634 7.18486 16.0162 8.46861C14.9777 9.53669 14.8409 10.6739 14.8934 11.4069C14.7923 11.4152 14.6912 11.4194 14.5859 11.4258H14.4721C12.909 11.4258 12.1697 9.77963 12.1402 9.71477L11.6998 8.6865L10.9878 9.55349C10.9478 9.60582 9.90716 10.8959 10.1599 12.5107C10.3284 13.5849 11.0067 14.5106 12.1716 15.2728C12.2981 15.3524 12.3866 15.4237 12.4498 15.4801C10.2568 16.1901 9.03076 17.7483 7.73515 19.386L7.54765 19.6185C5.56754 22.1232 2.76569 22.1964 2.43075 22.1964L1.47656 22.167L1.76718 23.0697C1.80091 23.1787 2.64565 25.742 5.18193 25.742L5.30418 25.7377C5.57168 25.7293 5.81191 25.6938 6.02681 25.6519C5.92135 27.0488 5.40523 29.631 3.07325 30.5943L2.36123 30.8875L2.74684 31.5536C2.7847 31.6143 3.64843 33.0654 5.60747 33.0654C6.46281 33.0635 7.12845 32.8498 7.62777 32.5922C7.70362 33.2247 7.85947 34.0373 8.16495 34.9441C8.87492 37.0425 8.21341 38.5126 8.18808 38.5713L7.8384 39.3042L8.63055 39.5137C8.68315 39.5263 9.16981 39.6477 9.74485 39.6477C10.0145 39.6477 10.2632 39.6184 10.4865 39.5661C11.0869 39.4258 11.5502 39.1618 11.902 38.8603C12.1169 39.5178 12.4856 40.2592 13.124 40.9169C14.2108 42.0268 15.7739 42.5881 17.8174 42.5881L19.0561 42.5713L18.3693 41.5346ZM17.771 41.9178C12.1443 41.9178 12.2876 37.12 12.2876 37.12C12.2876 37.12 11.8958 38.5398 10.3264 38.9104C10.1389 38.9608 9.93869 38.9796 9.74279 38.9796C9.23726 38.9796 8.80113 38.8624 8.80113 38.8624C8.80113 38.8624 9.61848 37.1388 8.80319 34.7284C8.12917 32.7284 8.23875 31.2456 8.23875 31.2456C8.23875 31.2456 7.48239 32.3848 5.60128 32.3953H5.58228C4.01711 32.3953 3.33455 31.2163 3.33455 31.2163C7.08426 29.6686 6.71558 24.6717 6.71558 24.6717C6.71558 24.6717 6.22905 25.032 5.27679 25.0675C5.24306 25.0698 5.21153 25.0698 5.17781 25.0698C3.10904 25.0698 2.40969 22.8687 2.40969 22.8687H2.45181C2.83316 22.8687 5.9025 22.7808 8.07437 20.0351C9.50475 18.23 10.6781 16.6446 12.989 16.0184L13.2207 15.9786L13.2714 15.7483C13.3346 15.3964 13.0944 15.0676 12.5446 14.7116C9.35098 12.6319 11.5208 9.98072 11.5208 9.98072C11.5208 9.98072 12.4287 12.1 14.4742 12.1C14.5247 12.1 14.5712 12.0979 14.6238 12.0979C14.8533 12.0854 15.081 12.077 15.3042 12.0289L15.6813 11.9556C15.6813 11.9556 15.0977 10.3828 16.505 8.93785C17.5625 7.84665 18.8496 7.66236 19.5911 7.66236C19.9682 7.66236 20.2021 7.71057 20.2021 7.71057C19.4985 8.62783 18.9887 10.1482 19.8017 11.0865C20.5054 11.8927 22.2223 11.9325 22.2223 13.1346C22.2223 13.6436 21.7441 14.2383 20.8847 14.7723C18.2997 16.3912 15.734 18.5399 14.668 21.4152C13.3367 25.0047 14.8387 27.386 16.9853 28.7534C16.9853 28.7534 16.3112 29.3692 15.3359 29.4467C15.1378 29.4654 14.9461 29.4739 14.7607 29.4739C12.7047 29.4739 11.6408 28.5147 11.6408 28.5147C11.6408 28.5147 11.8177 29.8403 12.8817 31.0718C13.8759 32.209 15.1715 32.8792 17.1518 32.9064C17.1518 32.9064 17.215 33.8194 16.3386 34.609C15.7762 35.1074 14.4826 35.2708 14.4826 35.2708C14.4826 35.2708 16.9095 35.7588 17.1749 39.319C17.3202 41.2477 17.8111 41.9178 17.8111 41.9178H17.771Z" fill="black"/>
<path d="M5.23439 19.0207C5.50615 19.0207 5.77157 18.9809 6.02214 18.8951C6.73003 18.6626 7.1787 18.1034 7.65269 17.5233C8.13729 16.9286 8.68288 16.2585 9.62866 15.758L10.602 15.2386L9.69819 14.6082C9.62233 14.5599 8.94403 14.1055 8.0277 14.1055C7.27356 14.1055 6.57419 14.4113 5.99901 14.9977C4.59602 16.4218 3.33841 16.5369 3.29201 16.539L2.3125 16.5956L2.71491 17.4898C3.11924 18.3757 4.17888 19.0207 5.23439 19.0207ZM6.48141 15.4709C7.00386 14.9369 7.55371 14.7778 8.0277 14.7778C8.75652 14.7778 9.30844 15.1631 9.30844 15.1631C7.33674 16.2082 6.93227 17.8814 5.80518 18.2584C5.61987 18.3234 5.42603 18.3528 5.23439 18.3528C4.40644 18.3528 3.6059 17.8207 3.33208 17.2112C3.33208 17.2092 4.84878 17.117 6.48141 15.4709Z" fill="black"/>
<path d="M9.66067 26.8231C9.55536 24.2933 10.2085 22.2409 11.2322 20.5509C10.6613 22.3121 10.7393 24.4692 12.6816 26.4818C12.6816 26.4818 8.818 21.8808 14.2193 17.1644C16.3808 15.3697 18.7444 14.2618 19.9599 13.4765C15.5634 14.9027 13.4167 13.332 13.4167 13.332C14.8197 14.5426 16.6378 14.5215 17.767 14.3456C17.4615 14.4943 17.1412 14.6493 16.802 14.8315C13.0903 16.8357 9.75966 20.1299 9.18874 24.6912V24.6556C8.32721 29.1351 6.41016 30.2848 6.41016 30.2848C7.9354 29.5372 8.89606 27.5519 9.12982 26.8356C9.38479 30.7728 11.3164 33.5059 13.5768 36.1361C14.7502 37.4995 15.1632 38.8252 15.1632 38.8252C15.1632 38.8252 14.9336 37.3236 13.9161 36.1006C11.8115 33.5855 9.80812 30.4482 9.66067 26.8231Z" fill="black"/>
<path d="M26.8867 17.5938V18.4984C27.2007 18.1194 27.8074 18.1968 27.8074 18.1968V19.5015C27.8074 19.5015 27.7862 20.1423 27.5566 20.4209H28.2139H28.869C28.6437 20.1446 28.6204 19.5015 28.6204 19.5015V18.1968C28.6204 18.1968 29.2271 18.1194 29.5389 18.4984V17.5938H28.2139H26.8867Z" fill="black"/>
<path d="M26.3288 12.2256C26.748 12.5565 26.9903 12.611 26.9987 12.6172L27.1631 12.6927V11.8403L25.6211 11.1953C25.6211 11.1974 25.6358 11.6895 26.3288 12.2256Z" fill="black"/>
<path d="M30 12.2256C30.6973 11.6895 30.7099 11.1953 30.7099 11.1953L29.168 11.8403V12.6927L29.3301 12.6172C29.3407 12.611 29.5808 12.5565 30 12.2256Z" fill="black"/>
<path d="M32.7811 8.75925C32.7811 7.4671 30.5923 6.30469 28.176 6.30469H28.1739H28.1677H28.1613C25.745 6.30469 23.5563 7.4671 23.5563 8.75925L23.6048 9.07754L24.5695 14.5833L23.6006 15.1424L21.0936 16.598H21.1022C21.1022 16.598 20.5376 16.8848 20.2763 17.0628C19.3221 17.7225 19.1199 18.6838 19.6738 19.0817C19.8108 18.2985 20.4343 17.4774 21.6014 17.4774C22.4419 17.4774 23.0823 17.909 23.6006 18.556C23.7333 18.7194 23.8597 18.8932 23.9777 19.0817C24.1229 19.3184 24.2683 19.5257 24.4137 19.7267H17.957C18.431 20.6754 18.8818 21.6807 18.8818 22.7717V36.979C18.8818 40.4178 21.5424 42.0597 24.42 42.0597C26.6446 42.0597 26.9438 41.9592 28.172 43.1738C29.3937 41.9571 29.6929 42.0597 31.9196 42.0597C34.7992 42.0597 37.4557 40.4178 37.4557 36.979V22.7717C37.4557 21.6807 37.9066 20.6754 38.3826 19.7267H31.9237C32.067 19.5279 32.2124 19.3184 32.3576 19.0817C32.4778 18.8932 32.602 18.7194 32.7327 18.556C33.2551 17.9068 33.8933 17.4774 34.7339 17.4774C35.9009 17.4774 36.5225 18.2964 36.6615 19.0817C37.2156 18.6838 37.0154 17.7225 36.0547 17.0628C35.7978 16.8848 35.2331 16.598 35.2331 16.598H35.2416L32.7348 15.1424L31.7699 14.5833L32.7348 9.07754L32.7811 8.75925ZM24.5063 9.40009L27.898 10.5435V15.8397L25.4018 14.531L24.5063 9.40009ZM25.2079 20.6503C25.7641 21.2011 26.3097 21.5425 26.8278 21.7309C26.7604 21.9968 26.6721 22.5456 26.9227 23.0922C27.127 23.5319 27.4978 23.8712 28.0307 24.0974C28.0897 24.6419 28.4352 25.4608 29.3937 25.8231C28.9745 26.2441 28.5658 26.6397 28.3994 26.801L24.5126 26.7403C24.4242 26.6964 24.2746 26.5979 24.2074 26.4576C24.1988 26.4388 24.1862 26.4284 24.18 26.4074L24.8139 26.51C24.8288 26.5121 24.8413 26.5121 24.854 26.5121C24.9762 26.5121 25.0836 26.4284 25.1047 26.3027C25.1257 26.1624 25.031 26.0346 24.894 26.0137L24.1146 25.8921L24.9804 22.9205L24.1609 21.2051L22.8465 22.5874L22.7663 25.6786L21.8837 25.5403C21.7467 25.5132 21.6161 25.6137 21.593 25.7497C21.5719 25.8859 21.6646 26.0137 21.8036 26.0387L22.1743 26.0954C22.0417 26.1707 21.9554 26.2293 21.9448 26.2378L21.8688 26.29L21.8478 26.3822C21.633 27.2492 22.1196 28.0722 22.6443 28.4408L22.6252 28.5497C22.6042 28.6838 22.6336 28.8136 22.7137 28.9225C22.7895 29.0336 22.9075 29.1006 23.038 29.1237C23.0655 29.1278 23.0949 29.1298 23.1203 29.1298C23.3477 29.1298 23.5459 28.9729 23.6027 28.7445C23.7986 28.7676 23.9777 28.7717 24.0998 28.7717H24.2031L29.3032 29.6869L29.3895 29.6304C29.796 29.3478 31.3444 28.2252 31.8521 27.8545C31.9911 27.9739 32.147 28.0828 32.3366 28.1728C32.1723 28.7215 32.1618 29.5655 32.8127 30.2314H19.815V22.7739C19.815 22.0514 19.6023 21.3246 19.3516 20.6544H25.2079V20.6503ZM31.5108 27.4733C30.9947 27.8503 29.6676 28.8136 29.1873 29.1487L24.5527 28.3215C24.5634 28.2796 24.5738 28.2398 24.5844 28.198C24.6454 27.9592 24.7065 27.6324 24.7108 27.2492L28.6058 27.3121L28.6796 27.2367C28.7386 27.178 29.9731 25.9928 30.6029 25.31C30.7524 25.4964 30.9399 25.6744 31.1843 25.8314C31.1 26.2837 31.1358 26.9288 31.5108 27.4733ZM23.7522 26.6755C23.8618 26.9037 24.0597 27.0565 24.1967 27.1424C24.1925 27.3561 24.1714 27.6891 24.1146 27.9821C24.1019 28.0472 24.0851 28.108 24.0661 28.1687C24.0556 28.2063 24.045 28.2376 24.0366 28.2629C23.8323 28.2629 23.4299 28.2376 23.1013 28.1184C22.7369 27.9844 22.1934 27.3204 22.3197 26.5896C22.4778 26.4932 22.8422 26.29 23.1835 26.29C23.4468 26.288 23.6258 26.4115 23.7522 26.6755ZM23.2698 25.7561L23.3477 22.7885L24.0176 22.0828L24.439 22.9582L23.609 25.8064L23.2698 25.7561ZM31.4687 41.1403C31.2159 41.1403 30.982 41.1445 30.7714 41.1529L31.3234 39.4461C31.4098 39.2095 30.9736 38.9058 30.7945 38.6398C31.0663 38.8094 31.7699 39.1802 32.1092 39.3288C32.0734 39.3833 31.4687 41.1403 31.4687 41.1403ZM33.2003 39.2011L32.8401 41.0691C32.6105 41.1005 32.3662 41.1173 32.1154 41.1278L32.4946 39.3309C32.6083 38.7969 31.1654 38.6315 30.4534 37.5822C30.1057 37.9717 29.4506 38.0869 28.7934 38.0869C28.193 38.0869 27.5926 37.9907 27.2281 37.9194C27.1354 37.9047 27.0469 37.8942 26.9606 37.8942C26.7499 37.8942 26.5581 37.9592 26.4255 38.1811L26.3201 38.3571L24.3548 37.8964L23.866 38.7006C23.7965 38.8304 23.7922 38.9414 23.9039 39.0629L24.0366 39.2073C23.946 39.4921 23.5374 39.9214 23.5374 39.9214L23.2446 39.5592C23.0127 39.3016 23.0508 38.8324 23.293 38.3969L24.0724 37.088L25.7367 37.3268L25.4776 36.7404C25.13 35.9655 25.6587 34.9791 25.7156 34.4115C25.6966 34.5833 25.5386 34.621 25.3532 34.621C25.1848 34.621 24.9972 34.5896 24.8729 34.5896C24.8245 34.5896 24.7823 34.5938 24.7592 34.6106L24.3084 34.8827L23.9524 34.5708C23.9102 34.51 23.8955 34.3696 24.0008 34.2649L24.8245 33.3478L23.8514 32.2189L25.2142 32.8995L25.6292 32.3989C25.7431 32.5099 25.6945 32.8011 25.6945 32.8011C26.1201 32.8116 27.3123 33.467 27.3756 34.9959C27.3798 35.0419 27.3798 35.0942 27.3798 35.1445C27.3798 35.1445 27.3904 35.1634 27.4114 35.1947C27.4957 35.3099 27.7274 35.6053 28.0222 35.6324L29.9056 35.8167H29.9139C30.1205 35.8167 30.5313 35.576 31.0578 35.576C31.3444 35.576 31.6646 35.6493 32.0059 35.8629C32.0059 35.8629 32.1764 35.7289 32.4546 35.7141C32.4756 35.7121 32.4989 35.7121 32.5199 35.7121C33.3647 35.7121 33.7143 36.4702 34.1673 37.1005C34.5086 37.58 34.9636 38.2921 34.9636 38.2921C34.795 38.4911 34.6391 38.6 34.3779 38.6C34.3064 38.6 34.2241 38.5937 34.1356 38.5769C33.2298 38.4115 33.0993 36.5603 32.5831 36.4137C32.5558 36.4053 32.5263 36.4032 32.5009 36.4032C32.3345 36.4032 32.2609 36.5497 32.2609 36.5497C32.4966 37.1802 32.3598 37.4356 32.6126 37.9215C32.8021 38.2816 33.1392 38.5791 33.2782 38.7193C33.2782 38.7236 33.2404 38.9959 33.2003 39.2011ZM23.0866 37.4335L23.1729 37.6492C23.116 37.8378 22.4631 38.1058 22.4631 38.1058L22.3218 37.8C22.1723 37.4734 22.2038 36.9225 22.6589 36.5854L23.7164 35.9445L24.8372 36.1812C24.8161 36.5352 25.0288 36.799 25.0288 36.799L23.8533 36.5749L23.1498 37.0586C23.0318 37.1404 23.0234 37.2932 23.0866 37.4335ZM33.3773 40.9665L33.6997 39.2954C33.7164 39.1968 33.7375 39.0817 33.7522 38.9855C33.8428 39.0231 33.9398 39.0544 34.045 39.0733C34.1651 39.0963 34.2767 39.1068 34.3779 39.1068C34.871 39.1068 35.1574 38.8492 35.3491 38.6294L35.5976 38.3423L35.3954 38.0283C35.3765 37.9968 34.9299 37.2932 34.5844 36.8115C34.5169 36.7173 34.4515 36.623 34.3864 36.5204C33.9945 35.9383 33.5037 35.2073 32.5199 35.2073L32.4314 35.2094C32.2692 35.2199 32.1302 35.2514 32.0186 35.2933C31.7088 35.1488 31.3907 35.0754 31.0599 35.0754C30.6534 35.0754 30.31 35.1864 30.0825 35.2639C30.0172 35.2828 29.9583 35.3037 29.912 35.3121L28.0728 35.132C28.0497 35.1278 27.9738 35.0838 27.8832 34.9748V34.9666L28.2814 34.8073C28.1697 33.4902 26.8974 32.6796 26.1875 32.4053C26.1559 32.2733 26.0927 32.1414 25.9811 32.0346L25.585 31.6618L25.2373 32.0765L25.0668 32.288L22.4925 31.2366L24.1673 33.3268L23.5058 34.3215C23.2635 34.5769 23.5311 34.8324 23.5311 34.8324L24.2135 35.2994L24.9214 35.0378C24.9466 35.0378 24.9678 35.044 24.9909 35.0461C24.9573 35.153 24.913 35.5717 24.8834 35.6891L23.6553 35.4482L22.364 36.1728C21.7004 36.6566 21.6098 37.4587 21.8563 38.0073L21.9995 38.3194L22.2038 38.7591L22.6547 38.5728C22.661 38.5708 22.6674 38.5687 22.6714 38.5644C22.5093 39.0796 22.5747 39.5696 22.8653 39.8922L23.1392 40.2356L23.5037 40.6942L23.9039 40.267C24.0219 40.1497 24.4032 39.7246 24.5212 39.3602L24.6075 39.0817L24.4116 38.8681L24.38 38.8304L24.5992 38.4701L26.2022 38.8451L26.5624 38.9267L26.7541 38.6127L26.8595 38.4409C26.8784 38.4054 26.8847 38.399 26.9585 38.399C27.0154 38.399 27.0722 38.4054 27.1333 38.4179C27.7379 38.531 28.2961 38.5874 28.7912 38.5874C29.2715 38.5874 29.5579 38.5687 29.9013 38.4555C29.9013 38.4555 30.763 39.4272 30.7924 39.465L30.2659 41.0816L30.2426 41.1802C29.2441 41.2597 28.7576 41.4774 28.1698 42.0618C27.3166 41.2199 26.7119 41.1319 24.418 41.1319C21.673 41.1319 19.8129 39.5319 19.8129 36.9769V30.7298H36.5225L36.5267 36.9769C36.5287 39.0503 35.3048 40.4954 33.3773 40.9665ZM36.9901 20.6503C36.7353 21.3205 36.5225 22.0471 36.5225 22.7696L36.5246 27.4314C35.5449 27.2681 35.4292 26.2189 35.4249 26.1729L35.4059 25.9592L35.1953 25.9404C34.7697 25.9006 34.4875 25.7205 34.2494 25.49C33.7691 25.0127 33.7669 24.2376 33.7691 24.2315C33.7629 24.2713 33.2404 24.998 33.8471 25.7916C34.1019 26.1267 34.4706 26.3319 34.9488 26.4136C35.0605 26.9958 35.4965 27.8168 36.5246 27.9423V30.2252H33.6343C32.3008 29.488 32.8653 28.1896 32.8927 28.135L33.0065 27.888L32.7516 27.7917C31.3086 27.2596 31.7047 25.8273 31.7257 25.7666L31.7846 25.5571L31.5888 25.4649C30.3963 24.9163 30.5587 23.4357 30.5735 23.3749C30.2068 23.6703 30.0741 24.2734 30.3269 24.8639C30.19 25.0189 30.0068 25.2074 29.8066 25.4126C28.5721 25.1006 28.5343 23.9717 28.5343 23.9194L28.532 23.7456L28.3699 23.6828C27.8875 23.5047 27.5567 23.2387 27.3945 22.8807C27.2113 22.4848 27.2765 22.0701 27.3272 21.8713C27.4683 21.9026 27.6094 21.9257 27.7442 21.9361C27.8832 21.9509 28.0265 21.9592 28.1698 21.9592H28.1782H28.1887C28.332 21.9592 28.4732 21.9509 28.6122 21.9361C29.381 21.8608 30.2427 21.532 31.1401 20.6483H36.9901V20.6503ZM32.4862 15.9383L33.6279 16.598H33.6448L33.9313 16.7634C33.2867 16.9415 32.7938 17.2618 32.3809 17.6828C32.3662 17.6954 32.3515 17.712 32.3366 17.7268C32.2418 17.8273 32.147 17.9361 32.0586 18.0471C32.0417 18.0681 32.0248 18.0911 32.0059 18.1142C31.9174 18.2272 31.8353 18.3424 31.7552 18.4639C31.7426 18.4848 31.7278 18.5058 31.7131 18.5246C31.6182 18.6649 31.5278 18.8158 31.4372 18.9708C30.624 20.3634 29.3263 21.1947 28.172 21.1969C27.0196 21.1947 25.7219 20.3634 24.9087 18.9708C24.8202 18.8199 24.7318 18.6734 24.637 18.531C24.618 18.5037 24.6012 18.4764 24.5844 18.4534C24.5043 18.3383 24.4242 18.2253 24.3421 18.1184C24.3211 18.089 24.302 18.066 24.281 18.041C24.1925 17.934 24.1019 17.8273 24.0113 17.7288C23.9924 17.7141 23.9797 17.6954 23.9608 17.6786C23.5459 17.2576 23.0549 16.9392 22.4082 16.7634L22.6989 16.598H22.7115L23.8533 15.9383L25.0267 15.2701L28.1613 16.9665L28.1677 16.9601L28.176 16.9665L31.3107 15.2701L32.4862 15.9383ZM30.9399 14.5331L28.4415 15.8418V10.5435L31.8311 9.40009L30.9399 14.5331ZM28.1698 9.96133L24.4537 8.50157C24.7697 7.75811 26.2275 7.12568 28.1698 7.12361C30.1142 7.12568 31.5719 7.75811 31.8858 8.50157L28.1698 9.96133Z" fill="black"/>
<path d="M74.1792 32.1245V23.7389H79.1268V20.6874H65.6289V23.7389H70.5765V32.1245H74.1792ZM84.1714 20.6874H80.5687V32.1245H84.1714V20.6874ZM86.8076 20.6874V32.1245H90.1222V25.8053L96.2947 32.1245H99.369V20.6874H96.0544V26.9586L90.0261 20.6874H86.8076ZM106.45 27.7996L110.605 32.1245H115.24L109.452 26.1656L115.024 20.6874H110.653L106.45 24.9883H105.489V20.6874H102.006V32.1245H105.489V27.7996H106.45ZM122.406 20.375C117.722 20.375 114.912 23.018 114.912 26.4299C114.912 29.8419 117.722 32.4849 122.406 32.4849C127.067 32.4849 129.876 29.8419 129.876 26.4299C129.876 23.018 127.067 20.375 122.406 20.375ZM122.406 29.6977C120.077 29.6977 118.587 28.3041 118.587 26.4299C118.587 24.5558 120.077 23.1861 122.406 23.1861C124.712 23.1861 126.225 24.5558 126.225 26.4299C126.225 28.3041 124.712 29.6977 122.406 29.6977ZM143.083 20.6874H131.53V32.1245H135.012V28.1359H142.579V25.613H135.012V23.5947H143.083V20.6874ZM156.194 20.6874H144.64V32.1245H148.123V28.1359H155.69V25.613H148.123V23.5947H156.194V20.6874Z" fill="white"/>
</svg>
