<svg width="188" height="40" viewBox="0 0 188 40" fill="none" xmlns="http://www.w3.org/2000/svg">
<path d="M63.8906 11.909C64.7323 11.909 65.3797 12.5446 65.3797 13.3709V14.8328C65.3797 15.659 64.7323 16.2946 63.8906 16.2946H56.8338V32.7241C56.8338 33.5186 56.154 34.1536 55.3448 34.1536H52.3667C51.5574 34.1536 50.8776 33.5186 50.8776 32.7241V16.2946H43.8208C42.9791 16.2946 42.3318 15.659 42.3318 14.8328V13.3709C42.3318 12.5446 42.9791 11.909 43.8208 11.909H63.8906Z" fill="#231F20"/>
<path d="M82.5369 25.6364C82.5369 31.4838 79.1055 34.4711 72.9874 34.4711C66.8695 34.4711 63.4387 31.4838 63.4387 25.6364C63.4387 19.7895 66.8695 16.834 72.9874 16.834C79.1055 16.834 82.5369 19.7895 82.5369 25.6364ZM77.0662 25.6364C77.0662 21.8864 75.739 20.3615 72.9874 20.3615C70.2359 20.3615 68.9087 21.8869 68.9087 25.6364C68.9087 29.3863 70.2359 30.9435 72.9874 30.9435C75.739 30.9435 77.0662 29.3863 77.0662 25.6364Z" fill="#231F20"/>
<path d="M103.967 25.6364C103.967 31.4838 100.535 34.4711 95.4856 34.4711C93.5434 34.4711 92.2486 34.0892 90.9214 33.6766V38.443C90.9214 38.9837 90.5011 39.3963 89.9502 39.3963H86.4219C85.8715 39.3963 85.4507 38.9837 85.4507 38.443V18.1052C85.4507 17.5649 85.8715 17.1518 86.4219 17.1518H89.4652C90.0155 17.1518 90.4363 17.5649 90.4363 18.1052V18.5818C91.8924 17.5649 93.6729 16.834 95.9712 16.834C100.567 16.834 103.967 19.8212 103.967 25.6364ZM90.9214 21.9822V30.0855C92.2486 30.4986 93.5433 30.7211 94.3526 30.7211C97.2655 30.7211 98.3337 29.1644 98.3337 25.6364C98.3337 22.1406 97.266 20.5834 94.6763 20.5834C93.511 20.584 92.0543 21.2831 90.9214 21.9822Z" fill="#231F20"/>
<path d="M117.529 11.9089C126.755 11.9089 130.64 15.4364 130.64 23.0311C130.64 30.6264 126.755 34.1534 117.529 34.1534H108.693C107.884 34.1534 107.204 33.5184 107.204 32.7239V13.4025C107.204 12.5762 107.851 11.9089 108.693 11.9089H117.529ZM113.159 16.2944V29.7684H117.368C123.161 29.7684 124.683 27.7981 124.683 23.0311C124.683 18.2648 123.162 16.2944 117.368 16.2944H113.159Z" fill="#231F20"/>
<path d="M138.149 27.2894C138.376 29.8318 139.541 30.9435 142.195 30.9435C143.555 30.9435 144.753 30.5622 145.303 29.8953C145.723 29.3869 146.307 29.0685 147.115 29.0685H149.479C150.029 29.0685 150.45 29.4817 150.45 30.0219C150.45 33.327 146.986 34.4711 141.807 34.4711C136.045 34.4711 132.581 31.4202 132.581 25.6681C132.581 19.9484 136.077 16.834 141.807 16.834C147.569 16.834 151.032 19.853 151.032 25.4457V26.336C151.032 26.8763 150.611 27.2894 150.061 27.2894H138.149ZM138.118 24.0161H145.465C145.368 21.6327 144.203 20.3615 141.808 20.3615C139.477 20.3615 138.247 21.6327 138.118 24.0161Z" fill="#231F20"/>
<path d="M166.667 24.3022C166.667 21.6645 165.438 20.5839 163.657 20.5839C162.072 20.5839 160.582 21.6645 159.417 22.8085V33.1999C159.417 33.7407 158.996 34.1533 158.446 34.1533H154.918C154.367 34.1533 153.947 33.7407 153.947 33.1999V18.1052C153.947 17.5649 154.367 17.1518 154.918 17.1518H158.446C158.996 17.1518 159.417 17.5649 159.417 18.1052V19.0903C160.907 17.8509 162.525 16.834 164.953 16.834C169.161 16.834 172.138 19.0268 172.138 24.3022V33.1999C172.138 33.7407 171.717 34.1533 171.168 34.1533H167.639C167.088 34.1533 166.667 33.7407 166.667 33.1999V24.3022Z" fill="#231F20"/>
<path d="M182.821 34.4717C178.289 34.4717 176.023 32.2471 176.023 27.4802V12.8627C176.023 12.3224 176.443 11.9093 176.994 11.9093H180.522C181.072 11.9093 181.493 12.3224 181.493 12.8627V18.0422H185.896C186.446 18.0422 186.867 18.4553 186.867 18.9956V20.8383C186.867 21.3785 186.446 21.7917 185.896 21.7917H181.493V27.4796C181.493 29.6406 182.627 30.7847 184.277 30.7847C185.119 30.7847 185.734 30.594 186.446 30.594H187.029C187.579 30.594 188 31.0072 188 31.5474V33.2C188 33.6766 187.579 34.058 187.029 34.1533C186.058 34.3445 184.277 34.4717 182.821 34.4717Z" fill="#231F20"/>
<path d="M10.2235 9.48688C12.581 9.48688 14.9005 10.0448 16.5988 11.1609C18.2955 10.0448 20.6095 9.48688 22.9738 9.48688C27.9141 9.48688 31.9183 11.856 31.9183 16.812C31.9183 21.7687 24.7879 38.0092 19.9184 38.0092C18.7143 38.0092 17.5699 34.7944 16.5985 30.7752C15.6236 34.7944 14.4796 38.0092 13.2734 38.0092C8.40847 38.0092 1.27814 21.7687 1.27814 16.812C1.27857 11.856 5.2828 9.48688 10.2235 9.48688Z" fill="white"/>
<path d="M19.9185 39.2911C18.9766 39.2911 18.1832 37.0397 17.4432 34.7512C17.1582 33.8699 16.0345 33.8696 15.7492 34.7508C15.0083 37.0395 14.2148 39.2911 13.2735 39.2911C9.85334 39.2911 6.51337 34.159 4.31399 29.8542C1.81422 24.9611 0 19.4759 0 16.8114C0.000426072 11.5827 4.01318 8.20377 10.2236 8.20377C12.4062 8.20377 14.4584 8.63607 16.1395 9.43718C16.4303 9.57578 16.7667 9.57578 17.0575 9.43718C18.7379 8.6364 20.7901 8.20377 22.9738 8.20377C29.1838 8.20377 33.1966 11.5823 33.1966 16.8114C33.1966 19.4759 31.382 24.9611 28.8822 29.8542C26.682 34.159 23.3411 39.2911 19.9185 39.2911ZM10.2236 10.7687C8.42516 10.7687 2.55686 11.2048 2.55644 16.8114C2.55644 19.0801 4.29012 24.1839 6.58921 28.6837C9.01665 33.4351 11.2436 35.9418 12.6392 36.5678C12.9239 36.6954 13.2066 36.5541 13.3064 36.2522C13.6948 35.077 14.464 31.8507 15.4172 27.9205L15.7543 26.4002C15.9781 25.3905 17.3659 25.3531 17.6412 26.3493L18.0753 27.9205C19.0219 31.8368 19.5905 35.0583 19.9087 36.2424C19.9914 36.5502 20.2696 36.6953 20.5546 36.5674C21.9522 35.9405 24.18 33.4342 26.6074 28.6837C28.9065 24.1843 30.6406 19.0801 30.6406 16.8114C30.6406 11.2048 24.7727 10.7687 22.9743 10.7687C20.7826 10.7687 18.7144 11.3027 17.3003 12.2329L17.125 12.3482C16.8049 12.5588 16.3947 12.559 16.0744 12.3486L15.8989 12.2333C14.4826 11.3027 12.414 10.7687 10.2236 10.7687Z" fill="#3398D4"/>
<path d="M8.7515 13.8216C9.22619 13.0476 8.64905 12.0126 7.80634 12.3095C6.3975 12.806 4.83621 13.7227 4.46023 15.3862C4.13387 16.8292 4.63664 19.249 5.28545 21.4673C5.59618 22.5297 7.00673 22.2532 7.03457 21.1443C7.07669 19.4665 7.18609 17.801 7.43037 16.8183C7.70245 15.7243 8.22689 14.6771 8.7515 13.8216Z" fill="#D6E1E7"/>
<path d="M21.2329 5.71867C21.3587 6.19515 21.8031 6.50802 22.2832 6.47849C23.5192 6.40244 25.8819 6.3575 27.6197 6.93552C29.3277 7.50405 30.8007 8.70575 31.5414 9.38698C31.8549 9.67528 32.3084 9.76058 32.6888 9.57568L34.4472 8.72056C35.2857 8.31281 35.1467 7.04653 34.2409 6.84051L32.3436 6.40898C31.9597 6.32166 31.6646 6.00593 31.5954 5.60855L30.7628 0.82506C30.6302 0.0627569 29.7401 -0.262123 29.1684 0.24306L25.3488 3.61824C25.059 3.87432 24.6501 3.93265 24.3032 3.76737L22.0993 2.71711C21.3484 2.35925 20.5325 3.06536 20.7491 3.88571L21.2329 5.71867Z" fill="#FEA82A"/>
</svg>
