<svg width="50" height="50" viewBox="0 0 50 50" fill="none" xmlns="http://www.w3.org/2000/svg">
<rect width="50" height="50" rx="25" fill="#409AF8"/>
<path d="M24.9961 16C30.3458 16 35.1972 19.0094 38.777 23.8975C39.0691 24.298 39.0691 24.8574 38.777 25.2579C35.1972 30.1519 30.3458 33.1613 24.9961 33.1613C19.6464 33.1613 14.795 30.1519 11.2152 25.2638C10.9231 24.8633 10.9231 24.3039 11.2152 23.9034C14.795 19.0094 19.6464 16 24.9961 16ZM24.6123 30.623C28.1635 30.8527 31.0961 27.8433 30.8727 24.1861C30.6895 21.1708 28.3124 18.7267 25.3799 18.5383C21.8287 18.3086 18.8961 21.318 19.1194 24.9752C19.3085 27.9846 21.6855 30.4287 24.6123 30.623ZM24.7899 27.8315C26.703 27.9552 28.2838 26.3356 28.1578 24.3686C28.0604 22.7432 26.7774 21.4299 25.1966 21.3239C23.2835 21.2002 21.7027 22.8198 21.8287 24.7868C21.9318 26.4181 23.2148 27.7314 24.7899 27.8315Z" fill="white"/>
</svg>
