<svg xmlns="http://www.w3.org/2000/svg" width="35" height="35" viewBox="0 0 35 35" fill="none">
  <path d="M17.5 35C27.165 35 35 27.165 35 17.5C35 7.83502 27.165 0 17.5 0C7.83502 0 0 7.83502 0 17.5C0 27.165 7.83502 35 17.5 35Z" fill="white"/>
  <path d="M26.3991 8.65352C25.7953 8.08477 23.3628 6.28227 17.9378 6.25602C17.9378 6.25602 11.5503 5.86227 8.43533 8.78477C6.70283 10.561 6.09033 13.1598 6.02908 16.3798C5.96783 19.5998 5.88033 25.6373 11.5678 27.2735V29.776C11.5678 29.776 11.5328 30.7823 12.1803 30.9923C12.9678 31.246 13.4316 30.476 14.1841 29.6448C14.5953 29.1898 15.1641 28.5248 15.5928 28.0085C19.4778 28.341 22.4703 27.5798 22.8116 27.466C23.5903 27.2035 28.0353 26.626 28.7528 20.5885C29.5053 14.3673 28.3941 10.4298 26.3991 8.65352ZM19.9153 16.616C19.8453 16.616 19.7841 16.5898 19.7316 16.546C19.6878 16.4935 19.6528 16.4323 19.6528 16.3623C19.6353 16.1085 19.6003 15.8898 19.5303 15.706C19.4691 15.5223 19.3816 15.3735 19.2678 15.251C19.1541 15.1373 19.0141 15.041 18.8478 14.971C18.6728 14.9098 18.4628 14.866 18.2353 14.8573C18.1653 14.8485 18.0953 14.8135 18.0516 14.761C18.0078 14.7085 17.9816 14.6385 17.9816 14.5685C17.9903 14.4898 18.0253 14.4285 18.0691 14.3848C18.1216 14.3323 18.1916 14.306 18.2616 14.306C18.5591 14.3235 18.8216 14.3848 19.0578 14.4723C19.2853 14.5685 19.4866 14.7085 19.6528 14.8748C19.8191 15.0498 19.9416 15.2598 20.0291 15.5048C20.1166 15.7498 20.1691 16.021 20.1866 16.336C20.1866 16.406 20.1603 16.476 20.1166 16.5285C20.0728 16.581 20.0028 16.616 19.9328 16.616H19.9153ZM22.9253 20.8948C22.9253 20.886 22.1991 20.2648 21.8491 20.0023C21.5078 19.7485 20.9741 19.4073 20.6766 19.241C20.1428 18.9348 19.6003 19.1273 19.3728 19.4248L18.9003 20.0285C18.6641 20.3348 18.2878 20.2823 18.1916 20.2648C17.5003 20.0898 16.7653 19.6523 16.0128 18.926C15.2428 18.191 14.7878 17.421 14.6216 16.616L14.6041 16.5635C14.5603 16.2398 14.6216 16.0823 14.7528 15.8635L14.7791 15.8373C15.0941 15.5485 15.6803 15.1898 15.7591 14.8485C15.9953 14.2535 14.9891 13.0198 14.8491 12.801C14.8491 12.801 14.1141 11.8298 13.8603 11.646C13.5803 11.4185 13.1428 11.2785 12.7053 11.5498L12.6878 11.5673C11.4278 12.416 10.9728 12.906 11.0953 13.6323L11.1653 13.9298C11.7953 15.9335 13.0291 18.0773 14.8666 19.9848C16.6778 21.866 18.6378 22.9948 20.5716 23.7735C21.0791 23.9398 21.5953 23.7998 22.1291 23.336H22.1378C22.5491 22.951 22.8728 22.5398 23.1178 22.1023V22.0935C23.3541 21.6298 23.2753 21.1923 22.9253 20.8948ZM22.8116 17.6923C22.7416 17.6923 22.6716 17.666 22.6278 17.6135C22.5753 17.5698 22.5491 17.4998 22.5491 17.421C22.5403 16.9923 22.5053 16.5723 22.4441 16.1873C22.3741 15.7935 22.2866 15.4348 22.1553 15.0935C22.0328 14.7523 21.8753 14.4373 21.6916 14.1485C21.5078 13.8598 21.2891 13.5885 21.0441 13.3348C20.7903 13.0898 20.5278 12.8798 20.2478 12.6873C19.9766 12.5035 19.6791 12.346 19.3728 12.2235C19.0666 12.101 18.7428 12.0048 18.4016 11.9435C18.0603 11.8735 17.7016 11.8385 17.3341 11.8385C17.2553 11.8385 17.1941 11.8035 17.1416 11.7598C17.0978 11.7073 17.0716 11.6373 17.0716 11.5673C17.0716 11.4885 17.0978 11.4273 17.1503 11.3748C17.1941 11.331 17.2641 11.296 17.3341 11.296C18.1478 11.3048 18.8916 11.4448 19.5741 11.7248C20.2566 11.996 20.8691 12.4073 21.4203 12.9498C21.6916 13.2298 21.9366 13.5273 22.1378 13.851C22.3478 14.1748 22.5228 14.5335 22.6628 14.901C22.7941 15.2685 22.8991 15.671 22.9691 16.091C23.0391 16.511 23.0828 16.9573 23.0828 17.421C23.0828 17.4998 23.0566 17.561 23.0041 17.6135C22.9603 17.666 22.8903 17.6923 22.8203 17.6923H22.8116ZM21.3503 17.106H21.3416C21.2716 17.106 21.2016 17.071 21.1578 17.0273C21.1053 16.9748 21.0791 16.9048 21.0791 16.8348C21.0878 16.3448 21.0266 15.8985 20.8866 15.496C20.7466 15.0935 20.5366 14.726 20.2478 14.4023C20.0991 14.2448 19.9416 14.096 19.7666 13.9735C19.6003 13.851 19.4078 13.7373 19.2066 13.6498C19.0141 13.5623 18.7953 13.4923 18.5591 13.431C18.3228 13.3785 18.0691 13.3435 17.8066 13.3173C17.7366 13.3173 17.6666 13.2823 17.6228 13.221C17.5791 13.1773 17.5528 13.1073 17.5616 13.0373V13.0285C17.5616 12.9585 17.5966 12.8885 17.6491 12.8448C17.7016 12.801 17.7628 12.7748 17.8416 12.7748H17.8503C18.4366 12.8185 18.9703 12.9498 19.4341 13.1598C19.9066 13.3698 20.3091 13.6673 20.6416 14.0435C20.9741 14.411 21.2278 14.8398 21.3941 15.3123C21.5516 15.776 21.6303 16.2923 21.6216 16.8435C21.6128 16.9135 21.5866 16.9835 21.5341 17.0273C21.4903 17.0798 21.4203 17.106 21.3503 17.106ZM27.0641 20.1423C26.4603 25.1823 22.8553 25.4973 22.1903 25.716C21.9103 25.8123 19.2853 26.4773 15.9778 26.2585L12.3991 30.2223V25.6548L12.3728 25.646C7.56033 24.281 7.72658 19.1535 7.77908 16.4585C7.83158 13.7723 8.32158 11.5673 9.79158 10.0798C12.4253 7.63852 17.8591 8.00602 17.8591 8.00602C22.4353 8.02352 24.6403 9.44102 25.1478 9.91352C26.8366 11.3923 27.6941 14.9448 27.0641 20.1423Z" fill="#2B68A8"/>
</svg>