<svg width="35" height="35" viewBox="0 0 35 35" fill="none" xmlns="http://www.w3.org/2000/svg">
<circle cx="17.5" cy="17.5" r="17.5" fill="#919bf3"/>
<path d="M16.9325 22.9253H18.1297C18.1297 22.9253 18.4916 22.8859 18.6796 22.6957C18.8466 22.5185 18.8396 22.1905 18.8396 22.1905C18.8396 22.1905 18.8188 20.6553 19.5705 20.4257C20.3013 20.2026 21.2479 21.915 22.2571 22.571C23.0089 23.0696 23.5866 22.9581 23.5866 22.9581L26.2732 22.9253C26.2732 22.9253 27.6722 22.84 27.011 21.7903C26.9553 21.705 26.6212 21.0096 25.0134 19.5859C23.329 18.0967 23.5587 18.3329 25.5842 15.7546C26.8161 14.1866 27.3103 13.2287 27.1572 12.8154C27.011 12.4283 26.0992 12.5333 26.0992 12.5333L23.0785 12.5464C23.0785 12.5464 22.8557 12.5202 22.6887 12.612C22.5286 12.7039 22.4242 12.9204 22.4242 12.9204C22.4242 12.9204 21.9439 14.1407 21.3105 15.1707C19.9672 17.3488 19.4243 17.4669 19.2085 17.3291C18.6935 17.0142 18.8257 16.0629 18.8257 15.3872C18.8257 13.2747 19.1598 12.3955 18.1715 12.1659C17.8443 12.0872 17.6007 12.0413 16.7585 12.0347C15.6866 12.0216 14.7679 12.0347 14.2528 12.2774C13.9118 12.4349 13.6473 12.7957 13.8074 12.8154C14.0092 12.8417 14.4616 12.9335 14.6983 13.2419C15.0115 13.6486 14.9976 14.5474 14.9976 14.5474C14.9976 14.5474 15.1785 17.0339 14.58 17.3422C14.1763 17.5587 13.6194 17.1257 12.4153 15.1444C11.8028 14.1341 11.3365 13.0122 11.3365 13.0122C11.3365 13.0122 11.2529 12.8023 11.0929 12.6908C10.898 12.553 10.6265 12.5136 10.6265 12.5136L7.75888 12.5333C7.75888 12.5333 7.32735 12.5399 7.16726 12.7236C7.02805 12.881 7.15334 13.209 7.15334 13.209C7.15334 13.209 9.40151 18.2279 11.949 20.7603C14.2807 23.0762 16.9325 22.9253 16.9325 22.9253V22.9253Z" fill="white"/>
</svg>
