<svg width="30" height="31" viewBox="0 0 30 31" fill="none" xmlns="http://www.w3.org/2000/svg">
<rect y="0.98584" width="30" height="30" rx="15" fill="#3C3D75"/>
<path fill-rule="evenodd" clip-rule="evenodd" d="M15.1667 6.98584C13.3537 6.98584 11.5814 7.52346 10.0739 8.5307C8.56649 9.53795 7.39158 10.9696 6.69778 12.6446C6.00397 14.3196 5.82244 16.1627 6.17614 17.9408C6.52984 19.719 7.40288 21.3523 8.68486 22.6343C9.96684 23.9163 11.6002 24.7893 13.3783 25.143C15.1565 25.4967 16.9996 25.3152 18.6746 24.6214C20.3496 23.9276 21.7812 22.7527 22.7885 21.2452C23.7957 19.7378 24.3333 17.9655 24.3333 16.1525C24.3333 14.9487 24.0962 13.7567 23.6356 12.6446C23.1749 11.5324 22.4997 10.5219 21.6485 9.67069C20.7973 8.81949 19.7868 8.14428 18.6746 7.68361C17.5625 7.22294 16.3705 6.98584 15.1667 6.98584ZM18.4025 19.3883C18.3388 19.4523 18.2631 19.5031 18.1797 19.5377C18.0963 19.5723 18.007 19.5902 17.9167 19.5902C17.8264 19.5902 17.737 19.5723 17.6536 19.5377C17.5703 19.5031 17.4945 19.4523 17.4308 19.3883L14.6808 16.6383C14.6169 16.5747 14.5661 16.4989 14.5315 16.4156C14.4969 16.3322 14.4791 16.2428 14.4792 16.1525V11.5692C14.4792 11.3868 14.5516 11.212 14.6805 11.083C14.8095 10.9541 14.9843 10.8817 15.1667 10.8817C15.349 10.8817 15.5239 10.9541 15.6528 11.083C15.7817 11.212 15.8542 11.3868 15.8542 11.5692V15.8674L18.4025 18.4167C18.4664 18.4804 18.517 18.5562 18.5516 18.6395C18.5862 18.7229 18.6039 18.8123 18.6039 18.9025C18.6039 18.9928 18.5862 19.0821 18.5516 19.1655C18.517 19.2488 18.4664 19.3246 18.4025 19.3883Z" fill="white"/>
</svg>
