<svg width="87" height="30" viewBox="0 0 87 30" fill="none" xmlns="http://www.w3.org/2000/svg">
<rect width="87" height="30" rx="15" fill="#25D266"/>
<path d="M15 30C23.2843 30 30 23.2843 30 15C30 6.71573 23.2843 0 15 0C6.71573 0 0 6.71573 0 15C0 23.2843 6.71573 30 15 30Z" fill="#25D266"/>
<path d="M21.374 8.56676C20.554 7.76676 19.6073 7.14676 18.5807 6.72009C17.5273 6.28676 16.3807 6.06009 15.194 6.06009C12.7607 6.06009 10.554 7.04676 8.95401 8.64676C7.35401 10.2468 6.36734 12.4534 6.36734 14.8868C6.36734 15.6668 6.46734 16.4401 6.66068 17.1801C6.86068 17.9201 7.15401 18.6334 7.54068 19.3001L7.66734 19.5134L6.93401 23.1401L10.774 22.5468L10.9673 22.6534C11.614 23.0001 12.3007 23.2734 13.0207 23.4534C13.7273 23.6334 14.454 23.7268 15.194 23.7268C17.6273 23.7268 19.8407 22.7334 21.434 21.1401C23.034 19.5401 24.0273 17.3334 24.0273 14.8934C24.0273 13.7068 23.8007 12.5601 23.3607 11.5068C22.9273 10.4534 22.2807 9.48009 21.4473 8.64009L21.374 8.56676ZM13.474 12.5534C13.414 12.4334 12.9073 11.2068 12.7007 10.7068C12.5007 10.2134 12.294 10.2868 12.1407 10.2734C11.994 10.2668 11.8273 10.2668 11.6607 10.2668C11.494 10.2668 11.2207 10.3334 10.994 10.5801C10.7673 10.8268 10.1207 11.4334 10.1207 12.6601C10.1207 13.8934 11.014 15.0801 11.1407 15.2468C11.2607 15.4134 12.9007 17.9334 15.4073 19.0134C16.0007 19.2734 16.4607 19.4268 16.8273 19.5401C17.4273 19.7268 17.9673 19.7068 18.4073 19.6401C18.874 19.5668 19.874 19.0334 20.0873 18.4534C20.294 17.8668 20.294 17.3668 20.234 17.2668C20.1673 17.1601 20.0073 17.1001 19.754 16.9668C19.5007 16.8468 18.274 16.2468 18.0473 16.1601C17.8207 16.0801 17.6473 16.0401 17.4807 16.2801C17.3207 16.5334 16.8407 17.1001 16.7007 17.2668C16.554 17.4334 16.4007 17.4534 16.154 17.3268C15.9007 17.2001 15.094 16.9401 14.1407 16.0868C13.4007 15.4201 12.9007 14.6068 12.754 14.3601C12.614 14.1068 12.754 13.9868 12.8607 13.8534C13.134 13.5068 13.414 13.1601 13.4873 12.9934C13.574 12.8268 13.534 12.6801 13.474 12.5534ZM19.0873 5.49343C20.3073 6.00009 21.4273 6.74676 22.3873 7.70009L22.5873 7.90676C23.4473 8.82009 24.1273 9.86676 24.594 11.0001C25.094 12.2268 25.3607 13.5468 25.3607 14.8934C25.3607 17.7001 24.2207 20.2401 22.3807 22.0801C20.5407 23.9201 18.0007 25.0601 15.194 25.0601C14.3473 25.0601 13.5073 24.9534 12.694 24.7468C11.9473 24.5601 11.2273 24.2801 10.534 23.9268L5.25401 24.7401L6.26068 19.7401C5.88068 19.0401 5.58068 18.2934 5.37401 17.5268C5.14734 16.6668 5.02734 15.7801 5.02734 14.8868C5.02734 12.0868 6.17401 9.54676 8.01401 7.70676C9.84734 5.86676 12.394 4.72009 15.194 4.72009C16.5473 4.72009 17.8673 4.98676 19.0873 5.49343Z" fill="white"/>
<path d="M39.258 13.1H40.133L38.6 18H37.725L36.605 14.346L35.485 18H34.61L33.084 13.1H33.952L35.065 17.062L36.255 13.1H36.962L38.152 17.062L39.258 13.1ZM44.3347 13.1H45.1328V18H44.3347V15.914H41.7517V18H40.9537V13.1H41.7517V15.179H44.3347V13.1ZM46.754 18H45.907L47.979 13.1H48.854L50.919 18H50.079L49.645 16.943H47.188L46.754 18ZM48.322 14.15L47.461 16.243H49.365L48.504 14.15C48.4666 14.0473 48.4363 13.9563 48.413 13.877C48.3896 13.9563 48.3593 14.0473 48.322 14.15ZM50.6284 13.1H54.6674V13.835H53.0504V18H52.2524V13.835H50.6284V13.1ZM55.2446 14.346C55.2446 13.9167 55.408 13.5877 55.7346 13.359C56.066 13.1257 56.4766 13.009 56.9666 13.009C57.5593 13.009 58.0703 13.1327 58.4996 13.38V14.143C58.0843 13.863 57.5943 13.7277 57.0296 13.737C56.381 13.737 56.0566 13.9353 56.0566 14.332C56.0566 14.5233 56.1523 14.6843 56.3436 14.815C56.535 14.941 56.7683 15.046 57.0436 15.13C57.319 15.214 57.5943 15.3097 57.8696 15.417C58.145 15.5243 58.3783 15.6877 58.5696 15.907C58.761 16.1217 58.8566 16.39 58.8566 16.712C58.8566 17.1927 58.6816 17.545 58.3316 17.769C57.9863 17.9883 57.543 18.0957 57.0016 18.091C56.3483 18.091 55.7696 17.9487 55.2656 17.664V16.88C55.765 17.202 56.325 17.363 56.9456 17.363C57.6783 17.363 58.0446 17.16 58.0446 16.754C58.0446 16.5767 57.9746 16.425 57.8346 16.299C57.6993 16.173 57.5266 16.0773 57.3166 16.012C57.1113 15.9467 56.8873 15.8697 56.6446 15.781C56.402 15.6877 56.1756 15.592 55.9656 15.494C55.7603 15.3913 55.5876 15.242 55.4476 15.046C55.3123 14.85 55.2446 14.6167 55.2446 14.346ZM61.6763 18H60.8293L62.9013 13.1H63.7763L65.8413 18H65.0013L64.5673 16.943H62.1103L61.6763 18ZM63.2443 14.15L62.3833 16.243H64.2873L63.4263 14.15C63.3889 14.0473 63.3586 13.9563 63.3353 13.877C63.3119 13.9563 63.2816 14.0473 63.2443 14.15ZM66.615 13.1H68.365C69.7604 13.1 70.458 13.6367 70.458 14.71C70.458 15.7833 69.7604 16.32 68.365 16.32H67.413V18H66.615V13.1ZM69.31 15.403C69.534 15.2723 69.646 15.0413 69.646 14.71C69.646 14.3787 69.534 14.15 69.31 14.024C69.0907 13.8933 68.7897 13.828 68.407 13.828H67.413V15.592H68.407C68.7897 15.592 69.0907 15.529 69.31 15.403ZM71.3966 13.1H73.1466C74.542 13.1 75.2396 13.6367 75.2396 14.71C75.2396 15.7833 74.542 16.32 73.1466 16.32H72.1946V18H71.3966V13.1ZM74.0916 15.403C74.3156 15.2723 74.4276 15.0413 74.4276 14.71C74.4276 14.3787 74.3156 14.15 74.0916 14.024C73.8723 13.8933 73.5713 13.828 73.1886 13.828H72.1946V15.592H73.1886C73.5713 15.592 73.8723 15.529 74.0916 15.403Z" fill="white"/>
</svg>
