<svg xmlns="http://www.w3.org/2000/svg" width="35" height="35" viewBox="0 0 35 35" fill="#2B68A8">
  <circle cx="17.5" cy="17.5" r="17.5" fill="#2B68A8"/>
  <path d="M24.5905 10.2467C23.6495 9.32901 22.5632 8.61777 21.385 8.12831C20.1763 7.63121 18.8604 7.37119 17.4987 7.37119C14.7063 7.37119 12.1741 8.50305 10.338 10.3385C8.50198 12.174 7.36974 14.7054 7.36974 17.4968C7.36974 18.3916 7.48449 19.2788 7.70635 20.1277C7.93586 20.9766 8.27247 21.7949 8.71618 22.5596L8.86154 22.8044L8.02001 26.9648L12.4266 26.2841L12.6484 26.4065C13.3905 26.8042 14.1785 27.1177 15.0047 27.3242C15.8156 27.5307 16.6495 27.6378 17.4987 27.6378C20.291 27.6378 22.8309 26.4982 24.6594 24.6704C26.4954 22.835 27.6353 20.3036 27.6353 17.5045C27.6353 16.1432 27.3752 14.8278 26.8703 13.6194C26.373 12.4111 25.6309 11.2945 24.6747 10.3309L24.5905 10.2467ZM15.5249 14.8201C15.4561 14.6824 14.8747 13.2753 14.6375 12.7017C14.408 12.1357 14.1708 12.2199 13.9949 12.2046C13.8266 12.1969 13.6353 12.1969 13.4441 12.1969C13.2528 12.1969 12.9391 12.2734 12.679 12.5564C12.4189 12.8393 11.6768 13.5353 11.6768 14.9425C11.6768 16.3573 12.702 17.7186 12.8473 17.9098C12.985 18.101 14.867 20.9919 17.7435 22.2308C18.4244 22.5291 18.9523 22.705 19.373 22.835C20.0615 23.0491 20.6812 23.0262 21.1861 22.9497C21.7216 22.8656 22.8692 22.2537 23.114 21.5884C23.3512 20.9154 23.3512 20.3418 23.2823 20.2271C23.2058 20.1047 23.0222 20.0359 22.7315 19.8829C22.4408 19.7453 21.0331 19.057 20.773 18.9576C20.5129 18.8658 20.314 18.8199 20.1227 19.0952C19.9391 19.3858 19.3883 20.0359 19.2277 20.2271C19.0594 20.4183 18.8834 20.4412 18.6003 20.2959C18.3096 20.1506 17.3839 19.8523 16.29 18.8734C15.4408 18.1086 14.867 17.1756 14.6987 16.8927C14.538 16.602 14.6987 16.4644 14.8211 16.3114C15.1348 15.9137 15.4561 15.5161 15.5402 15.3249C15.6397 15.1337 15.5938 14.9654 15.5249 14.8201ZM21.9665 6.72113C23.3665 7.30236 24.6517 8.1589 25.7533 9.25254L25.9829 9.48962C26.9697 10.5374 27.7501 11.7381 28.2856 13.0382C28.8594 14.4454 29.1654 15.9596 29.1654 17.5045C29.1654 20.7242 27.8572 23.638 25.7457 25.7488C23.6342 27.8595 20.7195 29.1673 17.4987 29.1673C16.5271 29.1673 15.5632 29.045 14.6298 28.8079C13.773 28.5937 12.9468 28.2725 12.1512 27.8672L6.09214 28.8002L7.24733 23.0644C6.81127 22.2614 6.467 21.4048 6.22985 20.5253C5.96974 19.5388 5.83203 18.5216 5.83203 17.4968C5.83203 14.2848 7.14788 11.371 9.25935 9.26018C11.3632 7.1494 14.2856 5.83398 17.4987 5.83398C19.0517 5.83398 20.5665 6.13989 21.9665 6.72113Z" fill="#2B68A8"/>
  <path d="M17.5 35C27.165 35 35 27.165 35 17.5C35 7.83502 27.165 0 17.5 0C7.83502 0 0 7.83502 0 17.5C0 27.165 7.83502 35 17.5 35Z" fill="white"/>
  <path d="M24.5905 10.2467C23.6495 9.32901 22.5632 8.61777 21.385 8.12831C20.1763 7.63121 18.8604 7.37119 17.4987 7.37119C14.7063 7.37119 12.1741 8.50305 10.338 10.3385C8.50198 12.174 7.36974 14.7054 7.36974 17.4968C7.36974 18.3916 7.48449 19.2788 7.70635 20.1277C7.93586 20.9766 8.27247 21.7949 8.71618 22.5596L8.86154 22.8044L8.02001 26.9648L12.4266 26.2841L12.6484 26.4065C13.3905 26.8042 14.1785 27.1177 15.0047 27.3242C15.8156 27.5307 16.6495 27.6378 17.4987 27.6378C20.291 27.6378 22.8309 26.4982 24.6594 24.6704C26.4954 22.835 27.6353 20.3036 27.6353 17.5045C27.6353 16.1432 27.3752 14.8278 26.8703 13.6194C26.373 12.4111 25.6309 11.2945 24.6747 10.3309L24.5905 10.2467ZM15.5249 14.8201C15.4561 14.6824 14.8747 13.2753 14.6375 12.7017C14.408 12.1357 14.1708 12.2199 13.9949 12.2046C13.8266 12.1969 13.6353 12.1969 13.4441 12.1969C13.2528 12.1969 12.9391 12.2734 12.679 12.5564C12.4189 12.8393 11.6768 13.5353 11.6768 14.9425C11.6768 16.3573 12.702 17.7186 12.8473 17.9098C12.985 18.101 14.867 20.9919 17.7435 22.2308C18.4244 22.5291 18.9523 22.705 19.373 22.835C20.0615 23.0491 20.6812 23.0262 21.1861 22.9497C21.7216 22.8656 22.8692 22.2537 23.114 21.5884C23.3512 20.9154 23.3512 20.3418 23.2823 20.2271C23.2058 20.1047 23.0222 20.0359 22.7315 19.8829C22.4408 19.7453 21.0331 19.057 20.773 18.9576C20.5129 18.8658 20.314 18.8199 20.1227 19.0952C19.9391 19.3858 19.3883 20.0359 19.2277 20.2271C19.0594 20.4183 18.8834 20.4412 18.6003 20.2959C18.3096 20.1506 17.3839 19.8523 16.29 18.8734C15.4408 18.1087 14.867 17.1756 14.6987 16.8927C14.538 16.602 14.6987 16.4644 14.8211 16.3114C15.1348 15.9137 15.4561 15.5161 15.5402 15.3249C15.6397 15.1337 15.5938 14.9654 15.5249 14.8201ZM21.9665 6.72113C23.3665 7.30236 24.6517 8.15891 25.7533 9.25253L25.9829 9.48962C26.9697 10.5374 27.7501 11.7381 28.2856 13.0382C28.8594 14.4454 29.1654 15.9596 29.1654 17.5045C29.1654 20.7242 27.8572 23.638 25.7457 25.7488C23.6342 27.8595 20.7195 29.1673 17.4987 29.1673C16.5271 29.1673 15.5632 29.045 14.6298 28.8079C13.773 28.5937 12.9468 28.2725 12.1512 27.8672L6.09214 28.8002L7.24733 23.0644C6.81127 22.2614 6.467 21.4048 6.22985 20.5253C5.96974 19.5388 5.83203 18.5216 5.83203 17.4968C5.83203 14.2848 7.14788 11.371 9.25935 9.26018C11.3632 7.1494 14.2856 5.83398 17.4987 5.83398C19.0517 5.83398 20.5665 6.13989 21.9665 6.72113Z" fill="#2B68A8"/>
</svg>