<svg width="30" height="31" viewBox="0 0 30 31" fill="none" xmlns="http://www.w3.org/2000/svg">
<path d="M15 30.9858C23.2843 30.9858 30 24.2701 30 15.9858C30 7.70157 23.2843 0.98584 15 0.98584C6.71573 0.98584 0 7.70157 0 15.9858C0 24.2701 6.71573 30.9858 15 30.9858Z" fill="#25D266"/>
<path d="M21.374 9.55321C20.554 8.75321 19.6073 8.13321 18.5807 7.70654C17.5273 7.27321 16.3807 7.04654 15.194 7.04654C12.7607 7.04654 10.554 8.03321 8.95401 9.63321C7.35401 11.2332 6.36734 13.4399 6.36734 15.8732C6.36734 16.6532 6.46734 17.4265 6.66068 18.1665C6.86068 18.9065 7.15401 19.6199 7.54068 20.2865L7.66734 20.4999L6.93401 24.1265L10.774 23.5332L10.9673 23.6399C11.614 23.9865 12.3007 24.2599 13.0207 24.4399C13.7273 24.6199 14.454 24.7132 15.194 24.7132C17.6273 24.7132 19.8407 23.7199 21.434 22.1265C23.034 20.5265 24.0273 18.3199 24.0273 15.8799C24.0273 14.6932 23.8007 13.5465 23.3607 12.4932C22.9273 11.4399 22.2807 10.4665 21.4473 9.62654L21.374 9.55321V9.55321ZM13.474 13.5399C13.414 13.4199 12.9073 12.1932 12.7007 11.6932C12.5007 11.1999 12.294 11.2732 12.1407 11.2599C11.994 11.2532 11.8273 11.2532 11.6607 11.2532C11.494 11.2532 11.2207 11.3199 10.994 11.5665C10.7673 11.8132 10.1207 12.4199 10.1207 13.6465C10.1207 14.8799 11.014 16.0665 11.1407 16.2332C11.2607 16.3999 12.9007 18.9199 15.4073 19.9999C16.0007 20.2599 16.4607 20.4132 16.8273 20.5265C17.4273 20.7132 17.9673 20.6932 18.4073 20.6265C18.874 20.5532 19.874 20.0199 20.0873 19.4399C20.294 18.8532 20.294 18.3532 20.234 18.2532C20.1673 18.1465 20.0073 18.0865 19.754 17.9532C19.5007 17.8332 18.274 17.2332 18.0473 17.1465C17.8207 17.0665 17.6473 17.0265 17.4807 17.2665C17.3207 17.5199 16.8407 18.0865 16.7007 18.2532C16.554 18.4199 16.4007 18.4399 16.154 18.3132C15.9007 18.1865 15.094 17.9265 14.1407 17.0732C13.4007 16.4065 12.9007 15.5932 12.754 15.3465C12.614 15.0932 12.754 14.9732 12.8607 14.8399C13.134 14.4932 13.414 14.1465 13.4873 13.9799C13.574 13.8132 13.534 13.6665 13.474 13.5399V13.5399ZM19.0873 6.47988C20.3073 6.98654 21.4273 7.73321 22.3873 8.68654L22.5873 8.89321C23.4473 9.80654 24.1273 10.8532 24.594 11.9865C25.094 13.2132 25.3607 14.5332 25.3607 15.8799C25.3607 18.6865 24.2207 21.2265 22.3807 23.0665C20.5407 24.9065 18.0007 26.0465 15.194 26.0465C14.3473 26.0465 13.5073 25.9399 12.694 25.7332C11.9473 25.5465 11.2273 25.2665 10.534 24.9132L5.25401 25.7265L6.26068 20.7265C5.88068 20.0265 5.58068 19.2799 5.37401 18.5132C5.14734 17.6532 5.02734 16.7665 5.02734 15.8732C5.02734 13.0732 6.17401 10.5332 8.01401 8.69321C9.84734 6.85321 12.394 5.70654 15.194 5.70654C16.5473 5.70654 17.8673 5.97321 19.0873 6.47988V6.47988Z" fill="white"/>
</svg>
