<svg width="35" height="35" viewBox="0 0 35 35" fill="none" xmlns="http://www.w3.org/2000/svg">
<path d="M35 17.5C35 7.83502 27.165 0 17.5 0C7.83502 0 0 7.83502 0 17.5C0 27.165 7.83502 35 17.5 35C27.165 35 35 27.165 35 17.5Z" fill="#2B68A8"/>
<path d="M28.1799 12.1414C27.9233 11.1848 27.1688 10.4381 26.2199 10.1814C24.4699 9.69922 17.5011 9.69922 17.5011 9.69922C17.5011 9.69922 10.5322 9.69922 8.78217 10.1581C7.84884 10.4148 7.07884 11.1848 6.82217 12.1414C6.36328 13.8837 6.36328 17.5003 6.36328 17.5003C6.36328 17.5003 6.36328 21.1325 6.82217 22.8592C7.07884 23.8159 7.83328 24.5626 8.78217 24.8192C10.5477 25.3014 17.5011 25.3014 17.5011 25.3014C17.5011 25.3014 24.4699 25.3014 26.2199 24.8425C27.1688 24.5859 27.9233 23.8314 28.1799 22.8748C28.6388 21.1326 28.6388 17.5159 28.6388 17.5159C28.6388 17.5159 28.6544 13.8837 28.1799 12.1414V12.1414ZM15.2844 20.837V14.1637L21.0788 17.5003L15.2844 20.837Z" fill="#2B68A8"/>
<path d="M35 17.5C35 7.83502 27.165 0 17.5 0C7.83502 0 0 7.83502 0 17.5C0 27.165 7.83502 35 17.5 35C27.165 35 35 27.165 35 17.5Z" fill="white"/>
<path d="M28.1799 12.1414C27.9233 11.1848 27.1688 10.4381 26.2199 10.1814C24.4699 9.69922 17.5011 9.69922 17.5011 9.69922C17.5011 9.69922 10.5322 9.69922 8.78217 10.1581C7.84884 10.4148 7.07884 11.1848 6.82217 12.1414C6.36328 13.8837 6.36328 17.5003 6.36328 17.5003C6.36328 17.5003 6.36328 21.1326 6.82217 22.8592C7.07884 23.8159 7.83328 24.5626 8.78217 24.8192C10.5477 25.3014 17.5011 25.3014 17.5011 25.3014C17.5011 25.3014 24.4699 25.3014 26.2199 24.8425C27.1688 24.5859 27.9233 23.8314 28.1799 22.8748C28.6388 21.1326 28.6388 17.5159 28.6388 17.5159C28.6388 17.5159 28.6544 13.8837 28.1799 12.1414ZM15.2844 20.837V14.1637L21.0788 17.5003L15.2844 20.837Z" fill="#2B68A8"/>
</svg>
