<svg width="61" height="40" viewBox="0 0 61 40" fill="none" xmlns="http://www.w3.org/2000/svg">
<path fill-rule="evenodd" clip-rule="evenodd" d="M46.9865 4.99999C51.9944 4.99999 56.0541 9.10406 56.0541 14.1667C56.0541 19.2293 51.9944 23.3333 46.9865 23.3333C46.3306 23.3333 45.7016 23.5966 45.2378 24.0656L37.9189 31.4643V14.1667C37.9189 9.10406 41.9786 4.99999 46.9865 4.99999ZM61 14.1667C61 6.34263 54.7259 0 46.9865 0C39.247 0 32.973 6.34263 32.973 14.1667V37.5C32.973 38.511 33.5754 39.4226 34.4996 39.8096C35.4235 40.1966 36.4873 39.9826 37.1946 39.2676L48.0506 28.293C55.293 27.7433 61 21.6286 61 14.1667ZM14.0135 4.99999C19.0215 4.99999 23.0811 9.10406 23.0811 14.1667C23.0811 19.2293 19.0215 23.3333 14.0135 23.3333C13.3577 23.3333 12.7286 23.5966 12.265 24.0656L4.94595 31.4643V14.1667C4.94595 9.10406 9.00558 4.99999 14.0135 4.99999ZM28.027 14.1667C28.027 6.34263 21.7529 0 14.0135 0C6.2741 0 0 6.34263 0 14.1667V37.5C0 38.511 0.602417 39.4226 1.52665 39.8096C2.45055 40.1966 3.51426 39.9826 4.22153 39.2676L15.0776 28.293C22.3201 27.7433 28.027 21.6286 28.027 14.1667Z" fill="#2679F6"/>
</svg>
