<svg width="85" height="85" viewBox="0 0 85 85" fill="none" xmlns="http://www.w3.org/2000/svg">
<g filter="url(#filter0_d_533_62)">
<rect x="30" y="30" width="25" height="25" rx="12.5" fill="#409AF8"/>
</g>
<path d="M41.6513 47.4053C41.5448 47.5232 41.3607 47.5322 41.2421 47.4253L36.7594 43.3852C36.6408 43.2783 36.6357 43.0985 36.7478 42.9856L38.1761 41.5485C38.2883 41.4355 38.4771 41.4306 38.5957 41.5374L41.0444 43.7443C41.163 43.8511 41.3471 43.8421 41.4536 43.7243L46.2375 38.4312C46.344 38.3134 46.5324 38.2999 46.6561 38.4014L48.2308 39.692C48.3545 39.7934 48.3687 39.9728 48.2621 40.0906L41.6513 47.4053Z" fill="white"/>
<defs>
<filter id="filter0_d_533_62" x="0" y="0" width="85" height="85" filterUnits="userSpaceOnUse" color-interpolation-filters="sRGB">
<feFlood flood-opacity="0" result="BackgroundImageFix"/>
<feColorMatrix in="SourceAlpha" type="matrix" values="0 0 0 0 0 0 0 0 0 0 0 0 0 0 0 0 0 0 127 0" result="hardAlpha"/>
<feOffset/>
<feGaussianBlur stdDeviation="15"/>
<feComposite in2="hardAlpha" operator="out"/>
<feColorMatrix type="matrix" values="0 0 0 0 0.235294 0 0 0 0 0.239216 0 0 0 0 0.458824 0 0 0 0.15 0"/>
<feBlend mode="normal" in2="BackgroundImageFix" result="effect1_dropShadow_533_62"/>
<feBlend mode="normal" in="SourceGraphic" in2="effect1_dropShadow_533_62" result="shape"/>
</filter>
</defs>
</svg>
