<svg width="87" height="30" viewBox="0 0 87 30" fill="none" xmlns="http://www.w3.org/2000/svg">
<rect width="87" height="30" rx="15" fill="#178DF1"/>
<path fill-rule="evenodd" clip-rule="evenodd" d="M30 15C30 23.2886 23.2886 30 15 30C6.71143 30 0 23.2886 0 15C0 6.71143 6.71143 0 15 0C23.2886 0 30 6.71143 30 15Z" fill="#178DF1"/>
<path fill-rule="evenodd" clip-rule="evenodd" d="M10.4139 15.7116L18.3253 11.1687L19.8167 10.3202C20.0396 10.1916 20.2539 10.4659 20.0653 10.6287L12.4624 16.843L12.1024 17.1344C12.0253 17.203 11.9739 17.2887 11.9567 17.3916L11.8796 18.0516L11.6567 19.9116C11.6567 19.9287 11.6567 19.9544 11.6396 19.9716C11.6224 19.9887 11.6053 19.9973 11.5796 19.9973C11.5539 20.0059 11.5367 19.9973 11.5196 19.9802C11.5024 19.963 11.4939 19.9459 11.4853 19.9202L10.8682 18.0687L10.2253 16.1659C10.1996 16.0802 10.2082 15.9859 10.2424 15.9002C10.2767 15.823 10.3367 15.7544 10.4139 15.7116ZM22.2167 7.7573L21.9082 7.86873L5.06529 13.9287C4.94529 13.9716 4.84244 14.0487 4.77387 14.143C4.70529 14.2459 4.66244 14.3744 4.67101 14.4944C4.67958 14.623 4.72244 14.743 4.80815 14.8373C4.88529 14.9316 4.99672 15.0002 5.11672 15.0259L9.47958 16.2173L10.2853 18.6002L11.0996 20.9916C11.151 21.103 11.2196 21.2144 11.3224 21.2916C11.4167 21.3773 11.5282 21.4287 11.6567 21.4544C11.7767 21.4887 11.9053 21.4802 12.0253 21.4459C12.1453 21.4116 12.2567 21.3516 12.351 21.2659L14.6053 19.1402L19.0196 22.1402C19.5682 22.5087 20.331 22.2344 20.4682 21.6259L23.3996 8.68301C23.5453 8.04873 22.8682 7.5173 22.2167 7.7573Z" fill="white"/>
<path d="M35.598 13.1H39.637V13.835H38.02V18H37.222V13.835H35.598V13.1ZM40.4733 13.1H43.8473V13.828H41.2713V15.165H43.6373V15.893H41.2713V17.272H43.8893V18H40.4733V13.1ZM44.9541 13.1H45.7521V17.258H48.3281V18H44.9541V13.1ZM49.1615 13.1H52.5355V13.828H49.9595V15.165H52.3255V15.893H49.9595V17.272H52.5775V18H49.1615V13.1ZM53.2729 15.55C53.2729 15.1347 53.3476 14.7613 53.4969 14.43C53.6463 14.0987 53.8469 13.8327 54.0989 13.632C54.3509 13.4267 54.6309 13.2727 54.9389 13.17C55.2469 13.0627 55.5689 13.009 55.9049 13.009C56.4416 13.009 56.9363 13.1163 57.3889 13.331V14.108C57.0109 13.8653 56.5536 13.744 56.0169 13.744C55.4849 13.744 55.0299 13.8957 54.6519 14.199C54.2786 14.5023 54.0919 14.9527 54.0919 15.55C54.0919 15.886 54.1479 16.1777 54.2599 16.425C54.3719 16.6677 54.5236 16.8543 54.7149 16.985C54.9063 17.1157 55.1069 17.2113 55.3169 17.272C55.5316 17.3327 55.7579 17.363 55.9959 17.363C56.2853 17.363 56.5303 17.3163 56.7309 17.223V15.368H57.5079V17.762C57.0179 17.9813 56.4976 18.091 55.9469 18.091C55.5923 18.091 55.2609 18.0443 54.9529 17.951C54.6449 17.853 54.3626 17.706 54.1059 17.51C53.8493 17.314 53.6463 17.048 53.4969 16.712C53.3476 16.376 53.2729 15.9887 53.2729 15.55ZM59.4407 18H58.6427V13.1H60.6027C60.8453 13.1 61.0717 13.1257 61.2817 13.177C61.4963 13.2283 61.697 13.3123 61.8837 13.429C62.0703 13.541 62.2173 13.6997 62.3247 13.905C62.432 14.1103 62.4857 14.353 62.4857 14.633C62.4857 15.0437 62.376 15.368 62.1567 15.606C61.9373 15.8393 61.6503 15.998 61.2957 16.082L62.8637 18H61.9047L60.4347 16.166H59.4407V18ZM59.4407 13.828V15.459H60.6377C60.9363 15.459 61.1837 15.396 61.3797 15.27C61.5757 15.144 61.6737 14.9363 61.6737 14.647C61.6737 14.3577 61.5757 14.15 61.3797 14.024C61.1837 13.8933 60.9363 13.828 60.6377 13.828H59.4407ZM63.9849 18H63.1379L65.2099 13.1H66.0849L68.1499 18H67.3099L66.8759 16.943H64.4189L63.9849 18ZM65.5529 14.15L64.6919 16.243H66.5959L65.7349 14.15C65.6975 14.0473 65.6672 13.9563 65.6439 13.877C65.6205 13.9563 65.5902 14.0473 65.5529 14.15ZM73.3686 13.1H74.0896V18H73.2916V14.57L71.7446 16.894H71.2686L69.7216 14.563V18H68.9236V13.1H69.6446L71.5066 15.907L73.3686 13.1Z" fill="white"/>
</svg>
